AnekTamil-CondensedExtraBold.ufo
<glyph name="plus" format="2">
  <advance width="733"/>
  <unicode hex="002B"/>
  <outline>
    <contour>
      <point x="500" y="299" type="line"/>
      <point x="500" y="974" type="line"/>
      <point x="234" y="974" type="line"/>
      <point x="234" y="299" type="line"/>
    </contour>
    <contour>
      <point x="53" y="508" type="line"/>
      <point x="680" y="508" type="line"/>
      <point x="680" y="765" type="line"/>
      <point x="53" y="765" type="line"/>
    </contour>
  </outline>
</glyph>
<glyph name="comma" format="2">
  <advance width="398"/>
  <unicode hex="002C"/>
  <outline>
    <contour>
      <point x="341" y="348" type="curve"/>
      <point x="59" y="348" type="line"/>
      <point x="63" y="294"/>
      <point x="65" y="258"/>
      <point x="65" y="210" type="curve" smooth="yes"/>
      <point x="65" y="57"/>
      <point x="32" y="-57"/>
      <point x="-18" y="-158" type="curve"/>
      <point x="186" y="-208" type="line"/>
      <point x="302" y="-81"/>
      <point x="350" y="57"/>
      <point x="350" y="223" type="curve" smooth="yes"/>
      <point x="350" y="272"/>
      <point x="346" y="309"/>
    </contour>
  </outline>
</glyph>
<glyph name="N" format="2">
  <advance width="991"/>
  <unicode hex="004E"/>
  <anchor x="506" y="0" name="bottom"/>
  <anchor x="506" y="1278" name="top"/>
  <outline>
    <contour>
      <point x="492" y="1280" type="line"/>
      <point x="74" y="1280" type="line"/>
      <point x="74" y="0" type="line"/>
      <point x="360" y="0" type="line"/>
      <point x="360" y="285" type="line"/>
      <point x="339" y="926" type="line"/>
      <point x="349" y="926" type="line"/>
      <point x="503" y="0" type="line"/>
      <point x="917" y="0" type="line"/>
      <point x="917" y="1280" type="line"/>
      <point x="633" y="1280" type="line"/>
      <point x="633" y="995" type="line"/>
      <point x="654" y="369" type="line"/>
      <point x="644" y="369" type="line"/>
    </contour>
  </outline>
</glyph>
<glyph name="k" format="2">
  <advance width="845"/>
  <unicode hex="006B"/>
  <anchor x="423" y="0" name="bottom"/>
  <anchor x="423" y="1324" name="top"/>
  <outline>
    <contour>
      <point x="524" y="0" type="line"/>
      <point x="842" y="0" type="line"/>
      <point x="649" y="562" type="line"/>
      <point x="649" y="496" type="line"/>
      <point x="834" y="1006" type="line"/>
      <point x="524" y="1006" type="line"/>
      <point x="388" y="600" type="line"/>
      <point x="365" y="600" type="line"/>
      <point x="365" y="443" type="line"/>
      <point x="388" y="443" type="line"/>
    </contour>
    <contour>
      <point x="66" y="0" type="line"/>
      <point x="377" y="0" type="line"/>
      <point x="377" y="1324" type="line"/>
      <point x="66" y="1324" type="line"/>
    </contour>
  </outline>
</glyph>
<glyph name="twosuperior" format="2">
  <advance width="420"/>
  <unicode hex="00B2"/>
  <outline>
    <contour>
      <point x="20" y="700" type="line"/>
      <point x="400" y="700" type="line"/>
      <point x="400" y="872" type="line"/>
      <point x="164" y="872" type="line"/>
      <point x="234" y="845" type="line"/>
      <point x="234" y="878" type="line"/>
      <point x="318" y="986" type="line" smooth="yes"/>
      <point x="364" y="1046"/>
      <point x="400" y="1111"/>
      <point x="400" y="1188" type="curve" smooth="yes"/>
      <point x="400" y="1198" type="line" smooth="yes"/>
      <point x="400" y="1315"/>
      <point x="329" y="1396"/>
      <point x="191" y="1396" type="curve" smooth="yes"/>
      <point x="130" y="1396"/>
      <point x="88" y="1384"/>
      <point x="42" y="1363" type="curve"/>
      <point x="27" y="1194" type="line"/>
      <point x="48" y="1204"/>
      <point x="82" y="1219"/>
      <point x="125" y="1219" type="curve" smooth="yes"/>
      <point x="178" y="1219"/>
      <point x="193" y="1195"/>
      <point x="193" y="1161" type="curve" smooth="yes"/>
      <point x="193" y="1158" type="line" smooth="yes"/>
      <point x="193" y="1124"/>
      <point x="169" y="1085"/>
      <point x="138" y="1043" type="curve" smooth="yes"/>
      <point x="20" y="884" type="line"/>
    </contour>
  </outline>
</glyph>
<glyph name="Anusvara.tm" format="2">
  <unicode hex="0B82"/>
  <note>
Anusvara.tm
</note>
  <outline>
    <contour>
      <point x="289" y="2020" type="curve" smooth="yes"/>
      <point x="88" y="2020"/>
      <point x="0" y="1903"/>
      <point x="0" y="1719" type="curve" smooth="yes"/>
      <point x="0" y="1606" type="line" smooth="yes"/>
      <point x="0" y="1422"/>
      <point x="88" y="1305"/>
      <point x="289" y="1305" type="curve" smooth="yes"/>
      <point x="495" y="1305"/>
      <point x="576" y="1420"/>
      <point x="576" y="1606" type="curve" smooth="yes"/>
      <point x="576" y="1719" type="line" smooth="yes"/>
      <point x="576" y="1904"/>
      <point x="495" y="2020"/>
    </contour>
    <contour>
      <point x="289" y="1814" type="curve" smooth="yes"/>
      <point x="328" y="1814"/>
      <point x="337" y="1785"/>
      <point x="337" y="1726" type="curve" smooth="yes"/>
      <point x="337" y="1599" type="line" smooth="yes"/>
      <point x="337" y="1540"/>
      <point x="328" y="1511"/>
      <point x="289" y="1511" type="curve" smooth="yes"/>
      <point x="250" y="1511"/>
      <point x="239" y="1540"/>
      <point x="239" y="1599" type="curve" smooth="yes"/>
      <point x="239" y="1726" type="line" smooth="yes"/>
      <point x="239" y="1785"/>
      <point x="250" y="1814"/>
    </contour>
  </outline>
</glyph>
<glyph name="Aaytam.tm" format="2">
  <advance width="1408"/>
  <unicode hex="0B83"/>
  <note>
Aaytam.tm
</note>
  <outline>
    <contour>
      <point x="371" y="740" type="curve" smooth="yes"/>
      <point x="161" y="740"/>
      <point x="64" y="610"/>
      <point x="64" y="404" type="curve"/>
      <point x="64" y="311" type="line" smooth="yes"/>
      <point x="64" y="105"/>
      <point x="161" y="-26"/>
      <point x="371" y="-26" type="curve" smooth="yes"/>
      <point x="586" y="-26"/>
      <point x="677" y="101"/>
      <point x="677" y="302" type="curve" smooth="yes"/>
      <point x="677" y="413" type="line"/>
      <point x="677" y="613"/>
      <point x="586" y="740"/>
    </contour>
    <contour>
      <point x="371" y="516" type="curve" smooth="yes"/>
      <point x="410" y="516"/>
      <point x="419" y="486"/>
      <point x="419" y="428" type="curve"/>
      <point x="419" y="287" type="line" smooth="yes"/>
      <point x="419" y="228"/>
      <point x="410" y="199"/>
      <point x="371" y="199" type="curve" smooth="yes"/>
      <point x="332" y="199"/>
      <point x="321" y="228"/>
      <point x="321" y="287" type="curve"/>
      <point x="321" y="428" type="line" smooth="yes"/>
      <point x="321" y="486"/>
      <point x="332" y="516"/>
    </contour>
    <contour>
      <point x="1039" y="740" type="curve" smooth="yes"/>
      <point x="829" y="740"/>
      <point x="732" y="610"/>
      <point x="732" y="404" type="curve"/>
      <point x="732" y="311" type="line" smooth="yes"/>
      <point x="732" y="105"/>
      <point x="829" y="-26"/>
      <point x="1039" y="-26" type="curve" smooth="yes"/>
      <point x="1254" y="-26"/>
      <point x="1344" y="101"/>
      <point x="1344" y="302" type="curve" smooth="yes"/>
      <point x="1344" y="413" type="line"/>
      <point x="1344" y="613"/>
      <point x="1254" y="740"/>
    </contour>
    <contour>
      <point x="1039" y="516" type="curve" smooth="yes"/>
      <point x="1078" y="516"/>
      <point x="1087" y="486"/>
      <point x="1087" y="428" type="curve"/>
      <point x="1087" y="287" type="line" smooth="yes"/>
      <point x="1087" y="228"/>
      <point x="1078" y="199"/>
      <point x="1039" y="199" type="curve" smooth="yes"/>
      <point x="1000" y="199"/>
      <point x="989" y="228"/>
      <point x="989" y="287" type="curve"/>
      <point x="989" y="428" type="line" smooth="yes"/>
      <point x="989" y="486"/>
      <point x="1000" y="516"/>
    </contour>
    <contour>
      <point x="708" y="1497" type="curve" smooth="yes"/>
      <point x="498" y="1497"/>
      <point x="401" y="1366"/>
      <point x="401" y="1160" type="curve"/>
      <point x="401" y="1048" type="line" smooth="yes"/>
      <point x="401" y="842"/>
      <point x="498" y="711"/>
      <point x="708" y="711" type="curve" smooth="yes"/>
      <point x="923" y="711"/>
      <point x="1013" y="838"/>
      <point x="1013" y="1038" type="curve" smooth="yes"/>
      <point x="1013" y="1170" type="line"/>
      <point x="1013" y="1370"/>
      <point x="923" y="1497"/>
    </contour>
    <contour>
      <point x="708" y="1273" type="curve" smooth="yes"/>
      <point x="746" y="1273"/>
      <point x="756" y="1243"/>
      <point x="756" y="1184" type="curve"/>
      <point x="756" y="1024" type="line" smooth="yes"/>
      <point x="756" y="965"/>
      <point x="746" y="935"/>
      <point x="708" y="935" type="curve" smooth="yes"/>
      <point x="669" y="935"/>
      <point x="658" y="965"/>
      <point x="658" y="1024" type="curve"/>
      <point x="658" y="1184" type="line" smooth="yes"/>
      <point x="658" y="1243"/>
      <point x="669" y="1273"/>
    </contour>
  </outline>
</glyph>
<glyph name="VowelA.tm" format="2">
  <advance width="1946"/>
  <unicode hex="0B85"/>
  <note>
vowelA.tm
</note>
  <outline>
    <contour>
      <point x="925" y="1244" type="curve" smooth="yes"/>
      <point x="603" y="1244"/>
      <point x="419" y="1052"/>
      <point x="419" y="701" type="curve" smooth="yes"/>
      <point x="419" y="513" type="line" smooth="yes"/>
      <point x="419" y="307"/>
      <point x="517" y="178"/>
      <point x="734" y="178" type="curve" smooth="yes"/>
      <point x="955" y="178"/>
      <point x="1047" y="304"/>
      <point x="1047" y="504" type="curve" smooth="yes"/>
      <point x="1047" y="651" type="line" smooth="yes"/>
      <point x="1047" y="837"/>
      <point x="995" y="935"/>
      <point x="855" y="935" type="curve" smooth="yes"/>
      <point x="748" y="935"/>
      <point x="689" y="860"/>
      <point x="677" y="771" type="curve"/>
      <point x="661" y="771" type="line"/>
      <point x="673" y="650" type="line"/>
      <point x="677" y="690"/>
      <point x="703" y="714"/>
      <point x="734" y="714" type="curve" smooth="yes"/>
      <point x="772" y="714"/>
      <point x="785" y="686"/>
      <point x="785" y="629" type="curve" smooth="yes"/>
      <point x="785" y="489" type="line" smooth="yes"/>
      <point x="785" y="431"/>
      <point x="774" y="399"/>
      <point x="734" y="399" type="curve" smooth="yes"/>
      <point x="693" y="399"/>
      <point x="680" y="431"/>
      <point x="680" y="489" type="curve"/>
      <point x="680" y="771" type="line"/>
      <point x="668" y="771" type="line"/>
      <point x="679" y="911"/>
      <point x="752" y="1005"/>
      <point x="918" y="1005" type="curve" smooth="yes"/>
      <point x="1094" y="1005"/>
      <point x="1151" y="905"/>
      <point x="1151" y="727" type="curve" smooth="yes"/>
      <point x="1151" y="521" type="line" smooth="yes"/>
      <point x="1151" y="217"/>
      <point x="1032" y="98"/>
      <point x="745" y="98" type="curve" smooth="yes"/>
      <point x="741" y="98" type="line" smooth="yes"/>
      <point x="484" y="98"/>
      <point x="327" y="247"/>
      <point x="327" y="484" type="curve" smooth="yes"/>
      <point x="327" y="497" type="line" smooth="yes"/>
      <point x="327" y="500"/>
      <point x="327" y="502"/>
      <point x="327" y="506" type="curve"/>
      <point x="474" y="506" type="line"/>
      <point x="474" y="745" type="line"/>
      <point x="40" y="745" type="line"/>
      <point x="40" y="697"/>
      <point x="40" y="672"/>
      <point x="40" y="631" type="curve" smooth="yes"/>
      <point x="40" y="565" type="line" smooth="yes"/>
      <point x="40" y="94"/>
      <point x="314" y="-151"/>
      <point x="752" y="-151" type="curve" smooth="yes"/>
      <point x="758" y="-151" type="line" smooth="yes"/>
      <point x="1232" y="-151"/>
      <point x="1431" y="72"/>
      <point x="1431" y="532" type="curve" smooth="yes"/>
      <point x="1431" y="710" type="line" smooth="yes"/>
      <point x="1431" y="1051"/>
      <point x="1291" y="1244"/>
    </contour>
    <contour>
      <point x="841" y="734" type="line"/>
      <point x="841" y="506" type="line"/>
      <point x="1192" y="506" type="line"/>
      <point x="1192" y="734" type="line"/>
    </contour>
    <contour>
      <point x="1216" y="745" type="line"/>
      <point x="1216" y="495" type="line"/>
      <point x="1564" y="495" type="line"/>
      <point x="1564" y="745" type="line"/>
    </contour>
    <contour>
      <point x="1560" y="1189" type="line"/>
      <point x="1560" y="-92" type="line"/>
      <point x="1854" y="-92" type="line"/>
      <point x="1854" y="1189" type="line"/>
    </contour>
  </outline>
</glyph>
<glyph name="VowelAa.tm" format="2">
  <advance width="2336"/>
  <unicode hex="0B86"/>
  <note>
vowelAa.tm
</note>
  <outline>
    <contour>
      <point x="2066" y="604" type="curve" smooth="yes"/>
      <point x="1939" y="604"/>
      <point x="1871" y="524"/>
      <point x="1857" y="420" type="curve"/>
      <point x="1818" y="420" type="line"/>
      <point x="1818" y="252" type="line"/>
      <point x="1838" y="252" type="line"/>
      <point x="1844" y="313"/>
      <point x="1880" y="353"/>
      <point x="1926" y="353" type="curve" smooth="yes"/>
      <point x="1984" y="353"/>
      <point x="2002" y="315"/>
      <point x="2002" y="219" type="curve" smooth="yes"/>
      <point x="2002" y="83" type="line" smooth="yes"/>
      <point x="2002" y="-132"/>
      <point x="1945" y="-217"/>
      <point x="1748" y="-217" type="curve" smooth="yes"/>
      <point x="1627" y="-217"/>
      <point x="1518" y="-195"/>
      <point x="1419" y="-151" type="curve"/>
      <point x="1452" y="-404" type="line"/>
      <point x="1555" y="-446"/>
      <point x="1665" y="-467"/>
      <point x="1783" y="-467" type="curve" smooth="yes"/>
      <point x="2164" y="-467"/>
      <point x="2296" y="-293"/>
      <point x="2296" y="72" type="curve" smooth="yes"/>
      <point x="2296" y="263" type="line" smooth="yes"/>
      <point x="2296" y="491"/>
      <point x="2237" y="604"/>
    </contour>
    <component base="VowelA.tm"/>
  </outline>
</glyph>
<glyph name="VowelI.tm" format="2">
  <advance width="1989"/>
  <unicode hex="0B87"/>
  <note>
vowelI.tm
</note>
  <outline>
    <contour>
      <point x="988" y="1233" type="curve" smooth="yes"/>
      <point x="655" y="1233"/>
      <point x="464" y="1045"/>
      <point x="464" y="701" type="curve" smooth="yes"/>
      <point x="464" y="519" type="line" smooth="yes"/>
      <point x="464" y="313"/>
      <point x="561" y="184"/>
      <point x="778" y="184" type="curve" smooth="yes"/>
      <point x="999" y="184"/>
      <point x="1091" y="309"/>
      <point x="1091" y="510" type="curve" smooth="yes"/>
      <point x="1091" y="651" type="line" smooth="yes"/>
      <point x="1091" y="837"/>
      <point x="1040" y="935"/>
      <point x="902" y="935" type="curve" smooth="yes"/>
      <point x="793" y="935"/>
      <point x="735" y="859"/>
      <point x="723" y="771" type="curve"/>
      <point x="703" y="771" type="line"/>
      <point x="718" y="650" type="line"/>
      <point x="721" y="690"/>
      <point x="747" y="714"/>
      <point x="778" y="714" type="curve" smooth="yes"/>
      <point x="817" y="714"/>
      <point x="830" y="686"/>
      <point x="830" y="629" type="curve" smooth="yes"/>
      <point x="830" y="495" type="line" smooth="yes"/>
      <point x="830" y="436"/>
      <point x="819" y="405"/>
      <point x="778" y="405" type="curve" smooth="yes"/>
      <point x="738" y="405"/>
      <point x="725" y="436"/>
      <point x="725" y="495" type="curve"/>
      <point x="725" y="771" type="line"/>
      <point x="712" y="771" type="line"/>
      <point x="723" y="911"/>
      <point x="808" y="1005"/>
      <point x="977" y="1005" type="curve" smooth="yes"/>
      <point x="1157" y="1005"/>
      <point x="1214" y="898"/>
      <point x="1214" y="708" type="curve" smooth="yes"/>
      <point x="1214" y="594" type="line" smooth="yes"/>
      <point x="1214" y="252"/>
      <point x="1089" y="110"/>
      <point x="787" y="110" type="curve" smooth="yes"/>
      <point x="521" y="110"/>
      <point x="353" y="258"/>
      <point x="353" y="484" type="curve" smooth="yes"/>
      <point x="353" y="497" type="line" smooth="yes"/>
      <point x="353" y="502"/>
      <point x="353" y="504"/>
      <point x="353" y="510" type="curve"/>
      <point x="519" y="510" type="line"/>
      <point x="519" y="730" type="line"/>
      <point x="66" y="730" type="line"/>
      <point x="66" y="688"/>
      <point x="66" y="666"/>
      <point x="66" y="631" type="curve" smooth="yes"/>
      <point x="66" y="565" type="line" smooth="yes"/>
      <point x="66" y="101"/>
      <point x="350" y="-140"/>
      <point x="802" y="-140" type="curve" smooth="yes"/>
      <point x="1019" y="-140"/>
      <point x="1181" y="-86"/>
      <point x="1271" y="18" type="curve"/>
      <point x="1327" y="70" type="line"/>
      <point x="1441" y="180"/>
      <point x="1494" y="368"/>
      <point x="1494" y="605" type="curve" smooth="yes"/>
      <point x="1494" y="692" type="line" smooth="yes"/>
      <point x="1494" y="1036"/>
      <point x="1354" y="1233"/>
    </contour>
    <contour>
      <point x="1917" y="732" type="curve"/>
      <point x="968" y="732" type="line"/>
      <point x="968" y="510" type="line"/>
      <point x="1630" y="510" type="line"/>
      <point x="1630" y="471"/>
      <point x="1630" y="431"/>
      <point x="1630" y="392" type="curve"/>
      <point x="1630" y="316" type="line" smooth="yes"/>
      <point x="1630" y="182"/>
      <point x="1582" y="116"/>
      <point x="1468" y="116" type="curve" smooth="yes"/>
      <point x="1409" y="116"/>
      <point x="1363" y="136"/>
      <point x="1327" y="175" type="curve"/>
      <point x="1163" y="9" type="line"/>
      <point x="1247" y="-86"/>
      <point x="1367" y="-132"/>
      <point x="1514" y="-132" type="curve" smooth="yes"/>
      <point x="1792" y="-132"/>
      <point x="1917" y="17"/>
      <point x="1917" y="311" type="curve" smooth="yes"/>
      <point x="1917" y="504" type="line"/>
      <point x="1917" y="580"/>
      <point x="1917" y="657"/>
    </contour>
    <contour>
      <point x="995" y="1617" type="curve" smooth="yes"/>
      <point x="432" y="1617"/>
      <point x="103" y="1310"/>
      <point x="103" y="850" type="curve" smooth="yes"/>
      <point x="103" y="846" type="line" smooth="yes"/>
      <point x="103" y="841"/>
      <point x="103" y="835"/>
      <point x="103" y="830" type="curve"/>
      <point x="390" y="764" type="line"/>
      <point x="390" y="775"/>
      <point x="390" y="788"/>
      <point x="390" y="802" type="curve" smooth="yes"/>
      <point x="390" y="819" type="line" smooth="yes"/>
      <point x="390" y="1159"/>
      <point x="615" y="1360"/>
      <point x="994" y="1360" type="curve" smooth="yes"/>
      <point x="1389" y="1360"/>
      <point x="1579" y="1167"/>
      <point x="1579" y="837" type="curve" smooth="yes"/>
      <point x="1579" y="821"/>
      <point x="1579" y="806"/>
      <point x="1579" y="793" type="curve"/>
      <point x="1868" y="793" type="line"/>
      <point x="1868" y="810"/>
      <point x="1868" y="824"/>
      <point x="1868" y="848" type="curve" smooth="yes"/>
      <point x="1868" y="1323"/>
      <point x="1575" y="1617"/>
    </contour>
  </outline>
</glyph>
<glyph name="VowelUu.tm" format="2">
  <advance width="2717"/>
  <unicode hex="0B8A"/>
  <note>
vowelUu.tm
</note>
  <outline>
    <contour>
      <point x="867" y="0" type="line"/>
      <point x="2709" y="0" type="line"/>
      <point x="2733" y="224" type="line"/>
      <point x="867" y="224" type="line"/>
    </contour>
    <contour>
      <point x="2327" y="1143" type="line"/>
      <point x="2327" y="318" type="line"/>
      <point x="2590" y="318" type="line"/>
      <point x="2590" y="1143" type="line"/>
    </contour>
    <contour>
      <point x="1672" y="1224" type="curve" smooth="yes"/>
      <point x="1388" y="1224"/>
      <point x="1224" y="1051"/>
      <point x="1224" y="723" type="curve" smooth="yes"/>
      <point x="1224" y="609" type="line" smooth="yes"/>
      <point x="1224" y="425"/>
      <point x="1322" y="304"/>
      <point x="1526" y="304" type="curve" smooth="yes"/>
      <point x="1736" y="304"/>
      <point x="1826" y="421"/>
      <point x="1826" y="602" type="curve" smooth="yes"/>
      <point x="1826" y="668" type="line" smooth="yes"/>
      <point x="1826" y="828"/>
      <point x="1775" y="913"/>
      <point x="1644" y="913" type="curve" smooth="yes"/>
      <point x="1542" y="913"/>
      <point x="1487" y="844"/>
      <point x="1477" y="765" type="curve"/>
      <point x="1464" y="765" type="line"/>
      <point x="1473" y="664" type="line"/>
      <point x="1476" y="694"/>
      <point x="1499" y="716"/>
      <point x="1526" y="716" type="curve" smooth="yes"/>
      <point x="1559" y="716"/>
      <point x="1572" y="694"/>
      <point x="1572" y="646" type="curve" smooth="yes"/>
      <point x="1572" y="578" type="line" smooth="yes"/>
      <point x="1572" y="528"/>
      <point x="1563" y="502"/>
      <point x="1526" y="502" type="curve" smooth="yes"/>
      <point x="1491" y="502"/>
      <point x="1478" y="528"/>
      <point x="1478" y="578" type="curve"/>
      <point x="1478" y="765" type="line"/>
      <point x="1471" y="765" type="line"/>
      <point x="1471" y="767"/>
      <point x="1471" y="767"/>
      <point x="1471" y="765" type="curve"/>
      <point x="1471" y="905"/>
      <point x="1543" y="983"/>
      <point x="1697" y="983" type="curve" smooth="yes"/>
      <point x="1857" y="983"/>
      <point x="1922" y="889"/>
      <point x="1922" y="730" type="curve" smooth="yes"/>
      <point x="1922" y="318" type="line"/>
      <point x="2185" y="318" type="line"/>
      <point x="2185" y="959" type="line"/>
      <point x="2715" y="959" type="line"/>
      <point x="2693" y="1189" type="line"/>
      <point x="2014" y="1189" type="line"/>
      <point x="2006" y="1021" type="line"/>
      <point x="2001" y="1021" type="line"/>
      <point x="1968" y="1141"/>
      <point x="1863" y="1224"/>
    </contour>
    <component base="VowelU.tm"/>
  </outline>
</glyph>
<glyph name="VowelE.tm" format="2">
  <advance width="1279"/>
  <unicode hex="0B8E"/>
  <note>
vowelE.tm
</note>
  <outline>
    <contour>
      <point x="679" y="935" type="line"/>
      <point x="1293" y="935" type="line"/>
      <point x="1272" y="1189" type="line"/>
      <point x="679" y="1189" type="line"/>
    </contour>
    <contour>
      <point x="854" y="1121" type="line"/>
      <point x="854" y="0" type="line"/>
      <point x="1149" y="0" type="line"/>
      <point x="1149" y="1121" type="line"/>
    </contour>
    <component base="VowelE_NonExporting"/>
  </outline>
</glyph>
<glyph name="VowelO.tm" format="2">
  <advance width="1539"/>
  <unicode hex="0B92"/>
  <note>
vowelO.tm
</note>
  <outline>
    <contour>
      <point x="771" y="1301" type="curve" smooth="yes"/>
      <point x="325" y="1301"/>
      <point x="62" y="1069"/>
      <point x="62" y="629" type="curve" smooth="yes"/>
      <point x="62" y="467" type="line" smooth="yes"/>
      <point x="62" y="245"/>
      <point x="160" y="107"/>
      <point x="404" y="107" type="curve" smooth="yes"/>
      <point x="642" y="107"/>
      <point x="730" y="241"/>
      <point x="730" y="456" type="curve" smooth="yes"/>
      <point x="730" y="592" type="line" smooth="yes"/>
      <point x="730" y="788"/>
      <point x="673" y="889"/>
      <point x="528" y="889" type="curve" smooth="yes"/>
      <point x="408" y="889"/>
      <point x="347" y="815"/>
      <point x="333" y="710" type="curve"/>
      <point x="318" y="710" type="line"/>
      <point x="327" y="580" type="line"/>
      <point x="331" y="626"/>
      <point x="360" y="653"/>
      <point x="397" y="653" type="curve" smooth="yes"/>
      <point x="445" y="653"/>
      <point x="458" y="626"/>
      <point x="458" y="565" type="curve" smooth="yes"/>
      <point x="458" y="427" type="line" smooth="yes"/>
      <point x="458" y="364"/>
      <point x="447" y="333"/>
      <point x="397" y="333" type="curve" smooth="yes"/>
      <point x="347" y="333"/>
      <point x="335" y="364"/>
      <point x="335" y="427" type="curve"/>
      <point x="335" y="710" type="line"/>
      <point x="323" y="710" type="line"/>
      <point x="323" y="930"/>
      <point x="482" y="1052"/>
      <point x="761" y="1052" type="curve" smooth="yes"/>
      <point x="1082" y="1052"/>
      <point x="1179" y="926"/>
      <point x="1179" y="655" type="curve" smooth="yes"/>
      <point x="1179" y="473" type="line" smooth="yes"/>
      <point x="1179" y="421"/>
      <point x="1164" y="392"/>
      <point x="1126" y="392" type="curve" smooth="yes"/>
      <point x="1085" y="392"/>
      <point x="1067" y="421"/>
      <point x="1067" y="473" type="curve" smooth="yes"/>
      <point x="1067" y="604"/>
      <point x="1067" y="712"/>
      <point x="1067" y="843" type="curve"/>
      <point x="806" y="843" type="line"/>
      <point x="806" y="721"/>
      <point x="806" y="602"/>
      <point x="806" y="480" type="curve" smooth="yes"/>
      <point x="806" y="315"/>
      <point x="883" y="208"/>
      <point x="1065" y="208" type="curve" smooth="yes"/>
      <point x="1140" y="208"/>
      <point x="1218" y="221"/>
      <point x="1289" y="252" type="curve"/>
      <point x="1407" y="293"/>
      <point x="1459" y="357"/>
      <point x="1459" y="576" type="curve" smooth="yes"/>
      <point x="1459" y="655" type="line" smooth="yes"/>
      <point x="1459" y="1076"/>
      <point x="1242" y="1301"/>
    </contour>
    <contour>
      <point x="1481" y="322" type="line"/>
      <point x="1227" y="322" type="line"/>
      <point x="1061" y="210" type="line"/>
      <point x="1061" y="199" type="line"/>
      <point x="944" y="182"/>
      <point x="893" y="132"/>
      <point x="887" y="15" type="curve" smooth="yes"/>
      <point x="883" y="-63" type="line" smooth="yes"/>
      <point x="878" y="-155"/>
      <point x="853" y="-199"/>
      <point x="782" y="-199" type="curve" smooth="yes"/>
      <point x="706" y="-199"/>
      <point x="669" y="-153"/>
      <point x="669" y="-61" type="curve" smooth="yes"/>
      <point x="669" y="-6"/>
      <point x="669" y="48"/>
      <point x="669" y="103" type="curve"/>
      <point x="392" y="72" type="line"/>
      <point x="392" y="35"/>
      <point x="392" y="4"/>
      <point x="392" y="-33" type="curve" smooth="yes"/>
      <point x="392" y="-280"/>
      <point x="511" y="-432"/>
      <point x="782" y="-432" type="curve" smooth="yes"/>
      <point x="1054" y="-432"/>
      <point x="1148" y="-289"/>
      <point x="1161" y="-52" type="curve" smooth="yes"/>
      <point x="1164" y="4" type="line" smooth="yes"/>
      <point x="1167" y="63"/>
      <point x="1186" y="83"/>
      <point x="1243" y="83" type="curve" smooth="yes"/>
      <point x="1457" y="83" type="line"/>
    </contour>
  </outline>
</glyph>
<glyph name="Ka.tm" format="2">
  <advance width="1318"/>
  <unicode hex="0B95"/>
  <note>
Ka.tm
</note>
  <anchor x="692" y="1249" name="top"/>
  <outline>
    <contour>
      <point x="775" y="524" type="line"/>
      <point x="867" y="524" type="line" smooth="yes"/>
      <point x="943" y="524"/>
      <point x="963" y="502"/>
      <point x="963" y="421" type="curve" smooth="yes"/>
      <point x="963" y="325" type="line" smooth="yes"/>
      <point x="963" y="257"/>
      <point x="946" y="224"/>
      <point x="887" y="224" type="curve" smooth="yes"/>
      <point x="839" y="224"/>
      <point x="800" y="252"/>
      <point x="787" y="285" type="curve"/>
      <point x="783" y="265" type="line"/>
      <point x="816" y="0" type="line"/>
      <point x="849" y="-15"/>
      <point x="901" y="-26"/>
      <point x="966" y="-26" type="curve" smooth="yes"/>
      <point x="1175" y="-26"/>
      <point x="1254" y="92"/>
      <point x="1254" y="308" type="curve" smooth="yes"/>
      <point x="1254" y="454" type="line" smooth="yes"/>
      <point x="1254" y="679"/>
      <point x="1171" y="771"/>
      <point x="924" y="771" type="curve" smooth="yes"/>
      <point x="775" y="771" type="line"/>
    </contour>
    <component base="KaComponent_Nonexporting" xOffset="45"/>
    <component base="KaBeak_Nonexporting" xOffset="849"/>
  </outline>
</glyph>
<glyph name="Nga.tm" format="2">
  <advance width="1759"/>
  <unicode hex="0B99"/>
  <note>
Nga.tm
</note>
  <anchor x="991" y="1249" name="top"/>
  <outline>
    <contour>
      <point x="545" y="1121" type="line"/>
      <point x="545" y="0" type="line"/>
      <point x="840" y="0" type="line"/>
      <point x="840" y="1121" type="line"/>
    </contour>
    <contour>
      <point x="1051" y="817" type="curve" smooth="yes"/>
      <point x="917" y="817"/>
      <point x="862" y="732"/>
      <point x="849" y="638" type="curve"/>
      <point x="831" y="638" type="line"/>
      <point x="831" y="474" type="line"/>
      <point x="836" y="474" type="line"/>
      <point x="840" y="526"/>
      <point x="870" y="559"/>
      <point x="911" y="559" type="curve" smooth="yes"/>
      <point x="965" y="559"/>
      <point x="981" y="525"/>
      <point x="981" y="450" type="curve" smooth="yes"/>
      <point x="981" y="318" type="line" smooth="yes"/>
      <point x="981" y="188"/>
      <point x="964" y="103"/>
      <point x="916" y="17" type="curve"/>
      <point x="916" y="0" type="line"/>
      <point x="1562" y="0" type="line"/>
      <point x="1562" y="250" type="line"/>
      <point x="1203" y="250" type="line"/>
      <point x="1211" y="169" type="line"/>
      <point x="1253" y="230"/>
      <point x="1264" y="274"/>
      <point x="1264" y="385" type="curve" smooth="yes"/>
      <point x="1264" y="515" type="line" smooth="yes"/>
      <point x="1264" y="715"/>
      <point x="1206" y="817"/>
    </contour>
    <contour>
      <point x="1372" y="1189" type="line"/>
      <point x="1372" y="0" type="line"/>
      <point x="1667" y="0" type="line"/>
      <point x="1667" y="1189" type="line"/>
    </contour>
    <contour>
      <point x="950" y="1189" type="line"/>
      <point x="92" y="1189" type="line"/>
      <point x="92" y="0" type="line"/>
      <point x="387" y="0" type="line"/>
      <point x="387" y="935" type="line"/>
      <point x="950" y="935" type="line"/>
    </contour>
    <component base="RaBeak_Nonexporting" xOffset="628"/>
  </outline>
</glyph>
<glyph name="Ca.tm" format="2">
  <advance width="1044"/>
  <unicode hex="0B9A"/>
  <note>
Ca.tm
</note>
  <anchor x="692" y="1249" name="top"/>
  <outline>
    <contour>
      <point x="735" y="524" type="line"/>
      <point x="1029" y="524" type="line"/>
      <point x="1002" y="771" type="line"/>
      <point x="735" y="771" type="line"/>
    </contour>
    <component base="KaComponent_Nonexporting" xOffset="45"/>
    <component base="KaBeak_Nonexporting" xOffset="776"/>
  </outline>
</glyph>
<glyph name="Ja.tm" format="2">
  <advance width="1649"/>
  <unicode hex="0B9C"/>
  <note>
Ja.tm
</note>
  <anchor x="954" y="1249" name="top"/>
  <outline>
    <contour>
      <point x="573" y="1233" type="curve" smooth="yes"/>
      <point x="256" y="1233"/>
      <point x="72" y="1045"/>
      <point x="72" y="701" type="curve" smooth="yes"/>
      <point x="72" y="469" type="line" smooth="yes"/>
      <point x="72" y="252"/>
      <point x="178" y="134"/>
      <point x="410" y="134" type="curve"/>
      <point x="641" y="134"/>
      <point x="738" y="252"/>
      <point x="738" y="469" type="curve" smooth="yes"/>
      <point x="738" y="623" type="line" smooth="yes"/>
      <point x="738" y="809"/>
      <point x="684" y="906"/>
      <point x="537" y="906" type="curve" smooth="yes"/>
      <point x="425" y="906"/>
      <point x="363" y="831"/>
      <point x="350" y="743" type="curve"/>
      <point x="332" y="743" type="line"/>
      <point x="345" y="619" type="line"/>
      <point x="350" y="660"/>
      <point x="379" y="686"/>
      <point x="411" y="686" type="curve" smooth="yes"/>
      <point x="454" y="686"/>
      <point x="466" y="658"/>
      <point x="466" y="603" type="curve" smooth="yes"/>
      <point x="466" y="447" type="line" smooth="yes"/>
      <point x="466" y="388"/>
      <point x="455" y="357"/>
      <point x="410" y="357" type="curve" smooth="yes"/>
      <point x="364" y="357"/>
      <point x="352" y="388"/>
      <point x="352" y="447" type="curve" smooth="yes"/>
      <point x="352" y="743" type="line"/>
      <point x="339" y="743" type="line"/>
      <point x="339" y="891"/>
      <point x="429" y="990"/>
      <point x="598" y="990" type="curve" smooth="yes"/>
      <point x="786" y="990"/>
      <point x="847" y="885"/>
      <point x="847" y="690" type="curve" smooth="yes"/>
      <point x="847" y="460" type="line"/>
      <point x="1130" y="460" type="line"/>
      <point x="1130" y="839" type="line" smooth="yes"/>
      <point x="1130" y="935"/>
      <point x="1158" y="968"/>
      <point x="1217" y="968" type="curve" smooth="yes"/>
      <point x="1266" y="968"/>
      <point x="1292" y="935"/>
      <point x="1292" y="839" type="curve"/>
      <point x="1292" y="701" type="line" smooth="yes"/>
      <point x="1292" y="482"/>
      <point x="1233" y="416"/>
      <point x="1071" y="396" type="curve" smooth="yes"/>
      <point x="523" y="328" type="line" smooth="yes"/>
      <point x="256" y="295"/>
      <point x="127" y="175"/>
      <point x="127" y="-63" type="curve" smooth="yes"/>
      <point x="127" y="-79" type="line" smooth="yes"/>
      <point x="127" y="-313"/>
      <point x="258" y="-447"/>
      <point x="521" y="-447" type="curve" smooth="yes"/>
      <point x="738" y="-447"/>
      <point x="848" y="-360"/>
      <point x="968" y="-145" type="curve" smooth="yes"/>
      <point x="1044" y="-9" type="line" smooth="yes"/>
      <point x="1116" y="120"/>
      <point x="1145" y="151"/>
      <point x="1200" y="151" type="curve" smooth="yes"/>
      <point x="1257" y="151"/>
      <point x="1281" y="112"/>
      <point x="1281" y="37" type="curve" smooth="yes"/>
      <point x="1281" y="-55" type="line" smooth="yes"/>
      <point x="1281" y="-149"/>
      <point x="1248" y="-199"/>
      <point x="1158" y="-199" type="curve" smooth="yes"/>
      <point x="1101" y="-199"/>
      <point x="1055" y="-186"/>
      <point x="1003" y="-166" type="curve"/>
      <point x="1046" y="-421" type="line"/>
      <point x="1101" y="-442"/>
      <point x="1173" y="-447"/>
      <point x="1235" y="-447" type="curve" smooth="yes"/>
      <point x="1467" y="-447"/>
      <point x="1566" y="-316"/>
      <point x="1566" y="-55" type="curve" smooth="yes"/>
      <point x="1566" y="7" type="line" smooth="yes"/>
      <point x="1566" y="251"/>
      <point x="1492" y="381"/>
      <point x="1200" y="381" type="curve" smooth="yes"/>
      <point x="997" y="381"/>
      <point x="904" y="263"/>
      <point x="782" y="70" type="curve" smooth="yes"/>
      <point x="690" y="-75" type="line" smooth="yes"/>
      <point x="636" y="-160"/>
      <point x="606" y="-201"/>
      <point x="529" y="-201" type="curve" smooth="yes"/>
      <point x="442" y="-201"/>
      <point x="413" y="-149"/>
      <point x="413" y="-70" type="curve" smooth="yes"/>
      <point x="413" y="-52" type="line" smooth="yes"/>
      <point x="413" y="40"/>
      <point x="460" y="92"/>
      <point x="565" y="101" type="curve" smooth="yes"/>
      <point x="1081" y="147" type="line" smooth="yes"/>
      <point x="1461" y="181"/>
      <point x="1577" y="296"/>
      <point x="1577" y="703" type="curve" smooth="yes"/>
      <point x="1577" y="813" type="line"/>
      <point x="1577" y="1095"/>
      <point x="1491" y="1224"/>
      <point x="1281" y="1224" type="curve" smooth="yes"/>
      <point x="1088" y="1224"/>
      <point x="1000" y="1119"/>
      <point x="978" y="942" type="curve"/>
      <point x="970" y="942" type="line"/>
      <point x="937" y="1106"/>
      <point x="823" y="1233"/>
    </contour>
  </outline>
</glyph>
<glyph name="Tta.tm" format="2">
  <advance width="845"/>
  <unicode hex="0B9F"/>
  <note>
Tta.tm
</note>
  <anchor x="600" y="1249" name="top"/>
  <outline>
    <contour>
      <point x="390" y="1189" type="line"/>
      <point x="92" y="1189" type="line"/>
      <point x="92" y="0" type="line"/>
      <point x="817" y="0" type="line"/>
      <point x="845" y="258" type="line"/>
      <point x="390" y="258" type="line"/>
    </contour>
  </outline>
</glyph>
<glyph name="Ta.tm" format="2">
  <advance width="1294"/>
  <unicode hex="0BA4"/>
  <note>
Ta.tm
</note>
  <anchor x="702" y="1249" name="top"/>
  <outline>
    <contour>
      <point x="742" y="524" type="line"/>
      <point x="818" y="524" type="line" smooth="yes"/>
      <point x="912" y="524"/>
      <point x="936" y="488"/>
      <point x="936" y="368" type="curve" smooth="yes"/>
      <point x="936" y="190" type="line" smooth="yes"/>
      <point x="936" y="-52"/>
      <point x="853" y="-136"/>
      <point x="641" y="-136" type="curve" smooth="yes"/>
      <point x="431" y="-136" type="line"/>
      <point x="463" y="-390" type="line"/>
      <point x="665" y="-390" type="line" smooth="yes"/>
      <point x="1092" y="-390"/>
      <point x="1226" y="-230"/>
      <point x="1226" y="206" type="curve" smooth="yes"/>
      <point x="1226" y="397" type="line" smooth="yes"/>
      <point x="1226" y="657"/>
      <point x="1132" y="771"/>
      <point x="862" y="771" type="curve" smooth="yes"/>
      <point x="742" y="771" type="line"/>
    </contour>
    <component base="Tail_NonExporting" xOffset="21"/>
    <component base="KaComponent_Nonexporting" xOffset="45"/>
    <component base="KaBeak_Nonexporting" xOffset="868"/>
  </outline>
</glyph>
<glyph name="Ma.tm" format="2">
  <advance width="1371"/>
  <unicode hex="0BAE"/>
  <note>
Ma.tm
</note>
  <anchor x="696" y="1249" name="top"/>
  <outline>
    <contour>
      <point x="92" y="1189" type="line"/>
      <point x="92" y="0" type="line"/>
      <point x="828" y="0" type="line" smooth="yes"/>
      <point x="1198" y="0"/>
      <point x="1299" y="127"/>
      <point x="1299" y="478" type="curve" smooth="yes"/>
      <point x="1299" y="764" type="line" smooth="yes"/>
      <point x="1299" y="1062"/>
      <point x="1187" y="1189"/>
      <point x="865" y="1189" type="curve" smooth="yes"/>
      <point x="548" y="1189" type="line"/>
      <point x="548" y="64" type="line"/>
      <point x="843" y="64" type="line"/>
      <point x="843" y="938" type="line"/>
      <point x="876" y="938" type="line" smooth="yes"/>
      <point x="977" y="938"/>
      <point x="1001" y="898"/>
      <point x="1001" y="771" type="curve" smooth="yes"/>
      <point x="1001" y="466" type="line" smooth="yes"/>
      <point x="1001" y="304"/>
      <point x="977" y="254"/>
      <point x="846" y="254" type="curve" smooth="yes"/>
      <point x="387" y="254" type="line"/>
      <point x="387" y="1189" type="line"/>
    </contour>
  </outline>
</glyph>
<glyph name="Ya.tm" format="2">
  <advance width="1435"/>
  <unicode hex="0BAF"/>
  <note>
Ya.tm
</note>
  <anchor x="676" y="1249" name="top"/>
  <outline>
    <contour>
      <point x="1045" y="1189" type="line"/>
      <point x="1045" y="258" type="line"/>
      <point x="916" y="258" type="line"/>
      <point x="916" y="0" type="line"/>
      <point x="1343" y="0" type="line"/>
      <point x="1343" y="1189" type="line"/>
    </contour>
    <contour>
      <point x="949" y="0" type="line"/>
      <point x="949" y="258" type="line"/>
      <point x="825" y="258" type="line"/>
      <point x="825" y="1189" type="line"/>
      <point x="527" y="1189" type="line"/>
      <point x="527" y="342" type="line" smooth="yes"/>
      <point x="527" y="264"/>
      <point x="510" y="233"/>
      <point x="459" y="233" type="curve" smooth="yes"/>
      <point x="412" y="233"/>
      <point x="387" y="264"/>
      <point x="387" y="342" type="curve" smooth="yes"/>
      <point x="387" y="1189" type="line"/>
      <point x="92" y="1189" type="line"/>
      <point x="92" y="324" type="line" smooth="yes"/>
      <point x="92" y="79"/>
      <point x="184" y="-25"/>
      <point x="363" y="-25" type="curve" smooth="yes"/>
      <point x="518" y="-25"/>
      <point x="594" y="51"/>
      <point x="612" y="181" type="curve"/>
      <point x="619" y="181" type="line"/>
      <point x="619" y="0" type="line"/>
    </contour>
  </outline>
</glyph>
<glyph name="Va.tm" format="2">
  <advance width="1681"/>
  <unicode hex="0BB5"/>
  <note>
Va.tm
</note>
  <anchor x="982" y="1249" name="top"/>
  <outline>
    <contour>
      <point x="1294" y="1189" type="line"/>
      <point x="1294" y="254" type="line"/>
      <point x="1161" y="254" type="line"/>
      <point x="1161" y="0" type="line"/>
      <point x="1589" y="0" type="line"/>
      <point x="1589" y="1189" type="line"/>
    </contour>
    <component base="Va_NonExporting" xOffset="2"/>
  </outline>
</glyph>
<glyph name="Ha.tm" format="2">
  <advance width="2567"/>
  <unicode hex="0BB9"/>
  <note>
Ha.tm
</note>
  <anchor x="1196" y="1249" name="top"/>
  <outline>
    <contour>
      <point x="1167" y="254" type="line"/>
      <point x="1167" y="0" type="line"/>
      <point x="1470" y="0" type="line"/>
      <point x="1470" y="254" type="line"/>
    </contour>
    <contour>
      <point x="1434" y="-136" type="line"/>
      <point x="398" y="-136" type="line"/>
      <point x="429" y="-390" type="line"/>
      <point x="1434" y="-390" type="line"/>
    </contour>
    <component base="Va_NonExporting" xOffset="2"/>
    <component base="Rra_Simple.tm" xOffset="1196"/>
    <component base="Tail_NonExporting" xOffset="6"/>
  </outline>
</glyph>
<glyph name="MatraUDflt.tm" format="2">
  <advance width="864"/>
  <unicode hex="0BC1"/>
  <note>
MatraUDflt.tm
</note>
  <outline>
    <contour>
      <point x="0" y="938" type="line"/>
      <point x="447" y="938" type="line"/>
      <point x="526" y="938"/>
      <point x="552" y="902"/>
      <point x="552" y="832" type="curve" smooth="yes"/>
      <point x="552" y="613" type="line" smooth="yes"/>
      <point x="552" y="558"/>
      <point x="539" y="526"/>
      <point x="499" y="526" type="curve" smooth="yes"/>
      <point x="456" y="526"/>
      <point x="443" y="558"/>
      <point x="443" y="613" type="curve" smooth="yes"/>
      <point x="443" y="834" type="line" smooth="yes"/>
      <point x="443" y="883"/>
      <point x="447" y="920"/>
      <point x="462" y="948" type="curve"/>
      <point x="443" y="942" type="line"/>
      <point x="171" y="900" type="line"/>
      <point x="171" y="863"/>
      <point x="171" y="826"/>
      <point x="171" y="789" type="curve" smooth="yes"/>
      <point x="171" y="605" type="line" smooth="yes"/>
      <point x="171" y="410"/>
      <point x="270" y="298"/>
      <point x="499" y="298" type="curve" smooth="yes"/>
      <point x="729" y="298"/>
      <point x="824" y="418"/>
      <point x="824" y="622" type="curve" smooth="yes"/>
      <point x="824" y="800" type="line" smooth="yes"/>
      <point x="824" y="1040"/>
      <point x="705" y="1189"/>
      <point x="383" y="1189" type="curve" smooth="yes"/>
      <point x="0" y="1189" type="line"/>
    </contour>
  </outline>
</glyph>
<glyph name="MatraE.tm" format="2">
  <advance width="1591"/>
  <unicode hex="0BC6"/>
  <note>
MatraE.tm
</note>
  <outline>
    <contour>
      <point x="800" y="1428" type="curve" smooth="yes"/>
      <point x="335" y="1428"/>
      <point x="74" y="1185"/>
      <point x="74" y="693" type="curve" smooth="yes"/>
      <point x="74" y="519" type="line" smooth="yes"/>
      <point x="74" y="188"/>
      <point x="243" y="-18"/>
      <point x="646" y="-18" type="curve" smooth="yes"/>
      <point x="992" y="-18"/>
      <point x="1121" y="129"/>
      <point x="1121" y="362" type="curve" smooth="yes"/>
      <point x="1121" y="528" type="line" smooth="yes"/>
      <point x="1121" y="753"/>
      <point x="1021" y="885"/>
      <point x="786" y="885" type="curve" smooth="yes"/>
      <point x="556" y="885"/>
      <point x="453" y="753"/>
      <point x="453" y="528" type="curve" smooth="yes"/>
      <point x="453" y="475" type="line" smooth="yes"/>
      <point x="453" y="347"/>
      <point x="489" y="260"/>
      <point x="613" y="219" type="curve"/>
      <point x="613" y="208" type="line"/>
      <point x="758" y="208" type="line"/>
      <point x="732" y="239"/>
      <point x="725" y="278"/>
      <point x="725" y="331" type="curve" smooth="yes"/>
      <point x="725" y="556" type="line" smooth="yes"/>
      <point x="725" y="609"/>
      <point x="738" y="638"/>
      <point x="782" y="638" type="curve" smooth="yes"/>
      <point x="826" y="638"/>
      <point x="837" y="609"/>
      <point x="837" y="556" type="curve" smooth="yes"/>
      <point x="837" y="351" type="line" smooth="yes"/>
      <point x="837" y="261"/>
      <point x="811" y="213"/>
      <point x="714" y="213" type="curve" smooth="yes"/>
      <point x="695" y="213"/>
      <point x="678" y="214"/>
      <point x="661" y="216" type="curve"/>
      <point x="613" y="223" type="line"/>
      <point x="613" y="212" type="line"/>
      <point x="442" y="219"/>
      <point x="364" y="326"/>
      <point x="364" y="499" type="curve" smooth="yes"/>
      <point x="364" y="708" type="line" smooth="yes"/>
      <point x="364" y="1012"/>
      <point x="510" y="1163"/>
      <point x="800" y="1163" type="curve" smooth="yes"/>
      <point x="1106" y="1163"/>
      <point x="1211" y="1017"/>
      <point x="1211" y="695" type="curve" smooth="yes"/>
      <point x="1211" y="0" type="line"/>
      <point x="1505" y="0" type="line"/>
      <point x="1505" y="679" type="line" smooth="yes"/>
      <point x="1505" y="1179"/>
      <point x="1328" y="1428"/>
    </contour>
  </outline>
</glyph>
<glyph name="MatraEe.tm" format="2">
  <advance width="821"/>
  <unicode hex="0BC7"/>
  <note>
MatraEe.tm
</note>
  <outline>
    <contour>
      <point x="434" y="1492" type="curve" smooth="yes"/>
      <point x="195" y="1492"/>
      <point x="86" y="1356"/>
      <point x="86" y="1137" type="curve" smooth="yes"/>
      <point x="86" y="337" type="line" smooth="yes"/>
      <point x="86" y="118"/>
      <point x="195" y="-18"/>
      <point x="434" y="-18" type="curve" smooth="yes"/>
      <point x="664" y="-18"/>
      <point x="759" y="114"/>
      <point x="759" y="328" type="curve" smooth="yes"/>
      <point x="759" y="453" type="line" smooth="yes"/>
      <point x="759" y="627"/>
      <point x="705" y="717"/>
      <point x="560" y="717" type="curve" smooth="yes"/>
      <point x="442" y="717"/>
      <point x="381" y="639"/>
      <point x="369" y="548" type="curve"/>
      <point x="355" y="548" type="line"/>
      <point x="364" y="429" type="line"/>
      <point x="368" y="467"/>
      <point x="397" y="491"/>
      <point x="428" y="491" type="curve" smooth="yes"/>
      <point x="467" y="491"/>
      <point x="483" y="466"/>
      <point x="483" y="412" type="curve" smooth="yes"/>
      <point x="483" y="294" type="line" smooth="yes"/>
      <point x="483" y="234"/>
      <point x="472" y="202"/>
      <point x="430" y="202" type="curve" smooth="yes"/>
      <point x="386" y="202"/>
      <point x="371" y="234"/>
      <point x="371" y="294" type="curve"/>
      <point x="371" y="548" type="line"/>
      <point x="360" y="548" type="line"/>
      <point x="360" y="926" type="line"/>
      <point x="371" y="926" type="line"/>
      <point x="371" y="1179" type="line"/>
      <point x="371" y="1240"/>
      <point x="386" y="1271"/>
      <point x="430" y="1271" type="curve" smooth="yes"/>
      <point x="472" y="1271"/>
      <point x="483" y="1240"/>
      <point x="483" y="1179" type="curve" smooth="yes"/>
      <point x="483" y="1060" type="line" smooth="yes"/>
      <point x="483" y="1006"/>
      <point x="467" y="983"/>
      <point x="428" y="983" type="curve" smooth="yes"/>
      <point x="397" y="983"/>
      <point x="368" y="1006"/>
      <point x="364" y="1045" type="curve"/>
      <point x="357" y="926" type="line"/>
      <point x="369" y="926" type="line"/>
      <point x="381" y="836"/>
      <point x="442" y="757"/>
      <point x="560" y="757" type="curve" smooth="yes"/>
      <point x="705" y="757"/>
      <point x="759" y="847"/>
      <point x="759" y="1021" type="curve" smooth="yes"/>
      <point x="759" y="1146" type="line" smooth="yes"/>
      <point x="759" y="1360"/>
      <point x="664" y="1492"/>
    </contour>
  </outline>
</glyph>
<glyph name="MatraAi.tm" format="2">
  <advance width="2068"/>
  <unicode hex="0BC8"/>
  <note>
MatraAi.tm
</note>
  <outline>
    <contour>
      <point x="1622" y="-11" type="line"/>
      <point x="1644" y="-15"/>
      <point x="1679" y="-18"/>
      <point x="1706" y="-18" type="curve" smooth="yes"/>
      <point x="1914" y="-18"/>
      <point x="1998" y="110"/>
      <point x="1998" y="342" type="curve" smooth="yes"/>
      <point x="1998" y="657" type="line" smooth="yes"/>
      <point x="1998" y="1049"/>
      <point x="1879" y="1231"/>
      <point x="1507" y="1231" type="curve" smooth="yes"/>
      <point x="1299" y="1231"/>
      <point x="1154" y="1159"/>
      <point x="1067" y="1069" type="curve"/>
      <point x="1211" y="892" type="line"/>
      <point x="1295" y="953"/>
      <point x="1384" y="979"/>
      <point x="1470" y="979" type="curve" smooth="yes"/>
      <point x="1649" y="979"/>
      <point x="1704" y="883"/>
      <point x="1704" y="646" type="curve" smooth="yes"/>
      <point x="1704" y="329" type="line" smooth="yes"/>
      <point x="1704" y="259"/>
      <point x="1687" y="225"/>
      <point x="1630" y="225" type="curve" smooth="yes"/>
      <point x="1617" y="225"/>
      <point x="1605" y="226"/>
      <point x="1595" y="229" type="curve"/>
    </contour>
    <contour>
      <point x="813" y="1231" type="curve" smooth="yes"/>
      <point x="326" y="1231"/>
      <point x="64" y="1008"/>
      <point x="64" y="583" type="curve" smooth="yes"/>
      <point x="64" y="339" type="line" smooth="yes"/>
      <point x="64" y="116"/>
      <point x="173" y="-26"/>
      <point x="408" y="-26" type="curve" smooth="yes"/>
      <point x="648" y="-26"/>
      <point x="751" y="112"/>
      <point x="751" y="329" type="curve" smooth="yes"/>
      <point x="751" y="519" type="line" smooth="yes"/>
      <point x="751" y="714"/>
      <point x="694" y="817"/>
      <point x="548" y="817" type="curve" smooth="yes"/>
      <point x="422" y="817"/>
      <point x="356" y="726"/>
      <point x="348" y="624" type="curve"/>
      <point x="336" y="624" type="line"/>
      <point x="342" y="499" type="line"/>
      <point x="346" y="539"/>
      <point x="374" y="567"/>
      <point x="408" y="567" type="curve" smooth="yes"/>
      <point x="453" y="567"/>
      <point x="466" y="537"/>
      <point x="466" y="475" type="curve" smooth="yes"/>
      <point x="466" y="315" type="line" smooth="yes"/>
      <point x="466" y="250"/>
      <point x="454" y="217"/>
      <point x="408" y="217" type="curve" smooth="yes"/>
      <point x="362" y="217"/>
      <point x="350" y="250"/>
      <point x="350" y="315" type="curve"/>
      <point x="350" y="624" type="line"/>
      <point x="339" y="624" type="line"/>
      <point x="339" y="624"/>
      <point x="339" y="624"/>
      <point x="339" y="624" type="curve"/>
      <point x="339" y="859"/>
      <point x="486" y="973"/>
      <point x="813" y="973" type="curve" smooth="yes"/>
      <point x="994" y="973"/>
      <point x="1084" y="944"/>
      <point x="1159" y="905" type="curve"/>
      <point x="1172" y="903" type="line"/>
      <point x="1249" y="859"/>
      <point x="1271" y="788"/>
      <point x="1271" y="640" type="curve" smooth="yes"/>
      <point x="1271" y="333" type="line" smooth="yes"/>
      <point x="1271" y="261"/>
      <point x="1253" y="232"/>
      <point x="1205" y="232" type="curve" smooth="yes"/>
      <point x="1156" y="232"/>
      <point x="1135" y="261"/>
      <point x="1135" y="331" type="curve" smooth="yes"/>
      <point x="1135" y="638" type="line" smooth="yes"/>
      <point x="1135" y="788"/>
      <point x="1157" y="859"/>
      <point x="1242" y="903" type="curve"/>
      <point x="1106" y="1069" type="line"/>
      <point x="907" y="1003"/>
      <point x="845" y="837"/>
      <point x="845" y="620" type="curve" smooth="yes"/>
      <point x="845" y="340" type="line" smooth="yes"/>
      <point x="845" y="114"/>
      <point x="955" y="-26"/>
      <point x="1205" y="-26" type="curve" smooth="yes"/>
      <point x="1454" y="-26"/>
      <point x="1562" y="109"/>
      <point x="1562" y="340" type="curve" smooth="yes"/>
      <point x="1562" y="620" type="line" smooth="yes"/>
      <point x="1562" y="835"/>
      <point x="1500" y="994"/>
      <point x="1349" y="1062" type="curve"/>
      <point x="1349" y="1078" type="line"/>
      <point x="1248" y="1168"/>
      <point x="1069" y="1231"/>
    </contour>
  </outline>
</glyph>
<glyph name="Om.tm" format="2">
  <advance width="1911"/>
  <unicode hex="0BD0"/>
  <note>
Om.tm
</note>
  <guideline x="3064" y="2801" angle="0"/>
  <outline>
    <contour>
      <point x="951" y="1448" type="curve" smooth="yes"/>
      <point x="395" y="1448"/>
      <point x="62" y="1167"/>
      <point x="62" y="629" type="curve" smooth="yes"/>
      <point x="62" y="467" type="line" smooth="yes"/>
      <point x="62" y="245"/>
      <point x="160" y="107"/>
      <point x="404" y="107" type="curve" smooth="yes"/>
      <point x="642" y="107"/>
      <point x="730" y="241"/>
      <point x="730" y="456" type="curve" smooth="yes"/>
      <point x="730" y="592" type="line" smooth="yes"/>
      <point x="730" y="788"/>
      <point x="673" y="889"/>
      <point x="528" y="889" type="curve" smooth="yes"/>
      <point x="408" y="889"/>
      <point x="347" y="815"/>
      <point x="333" y="710" type="curve"/>
      <point x="316" y="710" type="line"/>
      <point x="327" y="580" type="line"/>
      <point x="331" y="626"/>
      <point x="360" y="653"/>
      <point x="397" y="653" type="curve" smooth="yes"/>
      <point x="445" y="653"/>
      <point x="458" y="626"/>
      <point x="458" y="565" type="curve" smooth="yes"/>
      <point x="458" y="427" type="line" smooth="yes"/>
      <point x="458" y="364"/>
      <point x="447" y="333"/>
      <point x="397" y="333" type="curve" smooth="yes"/>
      <point x="347" y="333"/>
      <point x="335" y="364"/>
      <point x="335" y="427" type="curve"/>
      <point x="335" y="710" type="line"/>
      <point x="323" y="710" type="line"/>
      <point x="323" y="1022"/>
      <point x="553" y="1200"/>
      <point x="951" y="1200" type="curve" smooth="yes"/>
      <point x="1405" y="1200"/>
      <point x="1547" y="1014"/>
      <point x="1547" y="618" type="curve" smooth="yes"/>
      <point x="1547" y="510" type="line" smooth="yes"/>
      <point x="1547" y="458"/>
      <point x="1532" y="429"/>
      <point x="1494" y="429" type="curve" smooth="yes"/>
      <point x="1453" y="429"/>
      <point x="1435" y="458"/>
      <point x="1435" y="510" type="curve" smooth="yes"/>
      <point x="1435" y="627"/>
      <point x="1435" y="725"/>
      <point x="1435" y="843" type="curve"/>
      <point x="1174" y="843" type="line"/>
      <point x="1174" y="740"/>
      <point x="1174" y="638"/>
      <point x="1174" y="535" type="curve" smooth="yes"/>
      <point x="1174" y="359"/>
      <point x="1264" y="245"/>
      <point x="1477" y="245" type="curve" smooth="yes"/>
      <point x="1538" y="245"/>
      <point x="1600" y="258"/>
      <point x="1657" y="289" type="curve"/>
      <point x="1775" y="329"/>
      <point x="1827" y="394"/>
      <point x="1827" y="613" type="curve" smooth="yes"/>
      <point x="1827" y="618" type="line" smooth="yes"/>
      <point x="1827" y="1161"/>
      <point x="1549" y="1448"/>
    </contour>
    <contour>
      <point x="1853" y="359" type="line"/>
      <point x="1597" y="359" type="line"/>
      <point x="1531" y="250" type="line"/>
      <point x="1531" y="239" type="line"/>
      <point x="1415" y="223"/>
      <point x="1362" y="171"/>
      <point x="1359" y="52" type="curve" smooth="yes"/>
      <point x="1358" y="11" type="line" smooth="yes"/>
      <point x="1351" y="-256"/>
      <point x="1249" y="-383"/>
      <point x="971" y="-383" type="curve" smooth="yes"/>
      <point x="703" y="-383"/>
      <point x="577" y="-245"/>
      <point x="577" y="31" type="curve" smooth="yes"/>
      <point x="577" y="85"/>
      <point x="577" y="138"/>
      <point x="577" y="191" type="curve"/>
      <point x="309" y="191" type="line"/>
      <point x="309" y="147"/>
      <point x="309" y="103"/>
      <point x="309" y="59" type="curve" smooth="yes"/>
      <point x="309" y="-359"/>
      <point x="513" y="-616"/>
      <point x="971" y="-616" type="curve" smooth="yes"/>
      <point x="1439" y="-616"/>
      <point x="1592" y="-383"/>
      <point x="1624" y="15" type="curve" smooth="yes"/>
      <point x="1626" y="40" type="line" smooth="yes"/>
      <point x="1631" y="99"/>
      <point x="1648" y="120"/>
      <point x="1705" y="120" type="curve" smooth="yes"/>
      <point x="1829" y="120" type="line"/>
    </contour>
    <contour>
      <point x="730" y="172" type="line"/>
      <point x="730" y="-245" type="line"/>
      <point x="1065" y="-245" type="line" smooth="yes"/>
      <point x="1232" y="-245"/>
      <point x="1277" y="-190"/>
      <point x="1277" y="-33" type="curve" smooth="yes"/>
      <point x="1277" y="90" type="line" smooth="yes"/>
      <point x="1277" y="226"/>
      <point x="1225" y="282"/>
      <point x="1078" y="282" type="curve" smooth="yes"/>
      <point x="927" y="282" type="line"/>
      <point x="927" y="-221" type="line"/>
      <point x="1074" y="-221" type="line"/>
      <point x="1074" y="153" type="line"/>
      <point x="1089" y="153" type="line" smooth="yes"/>
      <point x="1122" y="153"/>
      <point x="1129" y="142"/>
      <point x="1129" y="105" type="curve" smooth="yes"/>
      <point x="1129" y="-52" type="line" smooth="yes"/>
      <point x="1129" y="-101"/>
      <point x="1122" y="-116"/>
      <point x="1080" y="-116" type="curve" smooth="yes"/>
      <point x="877" y="-116" type="line"/>
      <point x="877" y="172" type="line"/>
    </contour>
    <contour>
      <point x="958" y="320" type="curve" smooth="yes"/>
      <point x="1026" y="320"/>
      <point x="1050" y="359"/>
      <point x="1050" y="436" type="curve" smooth="yes"/>
      <point x="1050" y="447" type="line" smooth="yes"/>
      <point x="1050" y="524"/>
      <point x="1026" y="561"/>
      <point x="958" y="561" type="curve" smooth="yes"/>
      <point x="890" y="561"/>
      <point x="866" y="524"/>
      <point x="866" y="447" type="curve" smooth="yes"/>
      <point x="866" y="436" type="line" smooth="yes"/>
      <point x="866" y="359"/>
      <point x="890" y="320"/>
    </contour>
    <contour>
      <point x="877" y="159" type="line"/>
      <point x="877" y="176" type="line" smooth="yes"/>
      <point x="877" y="327"/>
      <point x="832" y="390"/>
      <point x="711" y="409" type="curve"/>
      <point x="673" y="251" type="line"/>
      <point x="717" y="250"/>
      <point x="730" y="232"/>
      <point x="730" y="159" type="curve"/>
    </contour>
  </outline>
</glyph>
<glyph name="Two.tm" format="2">
  <advance width="1030"/>
  <unicode hex="0BE8"/>
  <note>
Two.tm
</note>
  <outline>
    <contour>
      <point x="210" y="346" type="curve"/>
      <point x="445" y="432" type="line"/>
      <point x="375" y="485"/>
      <point x="350" y="543"/>
      <point x="350" y="634" type="curve" smooth="yes"/>
      <point x="350" y="777" type="line" smooth="yes"/>
      <point x="350" y="917"/>
      <point x="392" y="995"/>
      <point x="508" y="995" type="curve" smooth="yes"/>
      <point x="624" y="995"/>
      <point x="664" y="917"/>
      <point x="664" y="777" type="curve" smooth="yes"/>
      <point x="664" y="711" type="line" smooth="yes"/>
      <point x="664" y="560"/>
      <point x="631" y="503"/>
      <point x="521" y="489" type="curve" smooth="yes"/>
      <point x="243" y="454" type="line" smooth="yes"/>
      <point x="125" y="439"/>
      <point x="77" y="374"/>
      <point x="77" y="236" type="curve" smooth="yes"/>
      <point x="77" y="164"/>
      <point x="90" y="85"/>
      <point x="110" y="0" type="curve"/>
      <point x="1006" y="0" type="line"/>
      <point x="1030" y="224" type="line"/>
      <point x="350" y="224" type="line"/>
      <point x="348" y="236"/>
      <point x="348" y="241"/>
      <point x="348" y="245" type="curve" smooth="yes"/>
      <point x="348" y="263"/>
      <point x="355" y="269"/>
      <point x="374" y="270" type="curve" smooth="yes"/>
      <point x="528" y="282" type="line" smooth="yes"/>
      <point x="843" y="307"/>
      <point x="944" y="431"/>
      <point x="944" y="709" type="curve" smooth="yes"/>
      <point x="944" y="757" type="line" smooth="yes"/>
      <point x="944" y="1066"/>
      <point x="822" y="1244"/>
      <point x="508" y="1244" type="curve" smooth="yes"/>
      <point x="212" y="1244"/>
      <point x="70" y="1066"/>
      <point x="70" y="757" type="curve" smooth="yes"/>
      <point x="70" y="652" type="line" smooth="yes"/>
      <point x="70" y="503"/>
      <point x="107" y="433"/>
    </contour>
  </outline>
</glyph>
<glyph name="Three.tm" format="2">
  <advance width="1463"/>
  <unicode hex="0BE9"/>
  <note>
Three.tm
</note>
  <outline>
    <contour>
      <point x="545" y="1121" type="line"/>
      <point x="545" y="0" type="line"/>
      <point x="840" y="0" type="line"/>
      <point x="840" y="1121" type="line"/>
    </contour>
    <contour>
      <point x="1051" y="817" type="curve" smooth="yes"/>
      <point x="917" y="817"/>
      <point x="862" y="732"/>
      <point x="849" y="638" type="curve"/>
      <point x="831" y="638" type="line"/>
      <point x="831" y="474" type="line"/>
      <point x="836" y="474" type="line"/>
      <point x="840" y="526"/>
      <point x="870" y="559"/>
      <point x="911" y="559" type="curve" smooth="yes"/>
      <point x="965" y="559"/>
      <point x="981" y="525"/>
      <point x="981" y="448" type="curve" smooth="yes"/>
      <point x="981" y="318" type="line" smooth="yes"/>
      <point x="981" y="188"/>
      <point x="964" y="103"/>
      <point x="916" y="17" type="curve"/>
      <point x="916" y="0" type="line"/>
      <point x="1435" y="0" type="line"/>
      <point x="1463" y="258" type="line"/>
      <point x="1203" y="258" type="line"/>
      <point x="1211" y="169" type="line"/>
      <point x="1253" y="230"/>
      <point x="1264" y="274"/>
      <point x="1264" y="385" type="curve" smooth="yes"/>
      <point x="1264" y="515" type="line" smooth="yes"/>
      <point x="1264" y="715"/>
      <point x="1206" y="817"/>
    </contour>
    <contour>
      <point x="880" y="1189" type="line"/>
      <point x="92" y="1189" type="line"/>
      <point x="92" y="0" type="line"/>
      <point x="387" y="0" type="line"/>
      <point x="387" y="935" type="line"/>
      <point x="880" y="935" type="line"/>
    </contour>
    <component base="RaBeak_Nonexporting" xOffset="628"/>
  </outline>
</glyph>
<glyph name="Five.tm" format="2">
  <advance width="1806"/>
  <unicode hex="0BEB"/>
  <note>
Five.tm
</note>
  <outline>
    <contour>
      <point x="989" y="1121" type="line"/>
      <point x="989" y="0" type="line"/>
      <point x="1283" y="0" type="line"/>
      <point x="1283" y="1121" type="line"/>
    </contour>
    <contour>
      <point x="1500" y="817" type="curve" smooth="yes"/>
      <point x="1375" y="817"/>
      <point x="1307" y="738"/>
      <point x="1292" y="633" type="curve"/>
      <point x="1254" y="633" type="line"/>
      <point x="1254" y="466" type="line"/>
      <point x="1274" y="466" type="line"/>
      <point x="1280" y="526"/>
      <point x="1316" y="567"/>
      <point x="1362" y="567" type="curve" smooth="yes"/>
      <point x="1419" y="567"/>
      <point x="1438" y="528"/>
      <point x="1438" y="429" type="curve" smooth="yes"/>
      <point x="1438" y="320" type="line" smooth="yes"/>
      <point x="1438" y="-46"/>
      <point x="1325" y="-232"/>
      <point x="936" y="-232" type="curve" smooth="yes"/>
      <point x="927" y="-232" type="line" smooth="yes"/>
      <point x="536" y="-232"/>
      <point x="379" y="-61"/>
      <point x="379" y="302" type="curve" smooth="yes"/>
      <point x="379" y="784" type="line" smooth="yes"/>
      <point x="379" y="1248"/>
      <point x="559" y="1433"/>
      <point x="1010" y="1433" type="curve" smooth="yes"/>
      <point x="1255" y="1433"/>
      <point x="1452" y="1384"/>
      <point x="1616" y="1297" type="curve"/>
      <point x="1589" y="1566" type="line"/>
      <point x="1433" y="1650"/>
      <point x="1209" y="1695"/>
      <point x="997" y="1695" type="curve" smooth="yes"/>
      <point x="377" y="1695"/>
      <point x="85" y="1393"/>
      <point x="85" y="758" type="curve" smooth="yes"/>
      <point x="85" y="328" type="line" smooth="yes"/>
      <point x="85" y="-248"/>
      <point x="381" y="-497"/>
      <point x="929" y="-497" type="curve" smooth="yes"/>
      <point x="934" y="-497" type="line" smooth="yes"/>
      <point x="1510" y="-497"/>
      <point x="1732" y="-215"/>
      <point x="1732" y="315" type="curve" smooth="yes"/>
      <point x="1732" y="471" type="line" smooth="yes"/>
      <point x="1732" y="701"/>
      <point x="1670" y="817"/>
    </contour>
    <contour>
      <point x="1342" y="1189" type="line"/>
      <point x="548" y="1189" type="line"/>
      <point x="548" y="0" type="line"/>
      <point x="843" y="0" type="line"/>
      <point x="843" y="935" type="line"/>
      <point x="1342" y="935" type="line"/>
    </contour>
    <component base="RaBeak_Nonexporting" xOffset="1046"/>
  </outline>
</glyph>
<glyph name="Six.tm" format="2">
  <advance width="1782"/>
  <unicode hex="0BEC"/>
  <note>
Six.tm
</note>
  <guideline x="4258" y="1424" angle="0"/>
  <outline>
    <contour>
      <point x="766" y="524" type="line"/>
      <point x="838" y="524" type="line" smooth="yes"/>
      <point x="913" y="524"/>
      <point x="934" y="500"/>
      <point x="934" y="410" type="curve" smooth="yes"/>
      <point x="934" y="0" type="line"/>
      <point x="1224" y="0" type="line"/>
      <point x="1224" y="410" type="line" smooth="yes"/>
      <point x="1224" y="500"/>
      <point x="1245" y="524"/>
      <point x="1320" y="524" type="curve"/>
      <point x="1767" y="524" type="line"/>
      <point x="1747" y="771" type="line"/>
      <point x="1309" y="771" type="line" smooth="yes"/>
      <point x="1153" y="771"/>
      <point x="1097" y="710"/>
      <point x="1083" y="567" type="curve"/>
      <point x="1074" y="567" type="line"/>
      <point x="1059" y="710"/>
      <point x="1004" y="771"/>
      <point x="847" y="771" type="curve" smooth="yes"/>
      <point x="766" y="771" type="line"/>
    </contour>
    <contour>
      <point x="1350" y="559" type="line"/>
      <point x="1350" y="0" type="line"/>
      <point x="1640" y="0" type="line"/>
      <point x="1640" y="559" type="line"/>
    </contour>
    <component base="KaComponent_Nonexporting" xOffset="45"/>
    <component base="KaBeak_Nonexporting" xOffset="849"/>
  </outline>
</glyph>
<glyph name="Eight.tm" format="2">
  <advance width="1690"/>
  <unicode hex="0BEE"/>
  <note>
Eight.tm
</note>
  <outline>
    <contour>
      <point x="1303" y="1189" type="line"/>
      <point x="1303" y="-92" type="line"/>
      <point x="1598" y="-92" type="line"/>
      <point x="1598" y="1189" type="line"/>
    </contour>
    <contour>
      <point x="726" y="1244" type="curve" smooth="yes"/>
      <point x="410" y="1244"/>
      <point x="277" y="1060"/>
      <point x="277" y="736" type="curve"/>
      <point x="277" y="688"/>
      <point x="277" y="642"/>
      <point x="277" y="594" type="curve"/>
      <point x="557" y="594" type="line"/>
      <point x="557" y="648"/>
      <point x="557" y="699"/>
      <point x="557" y="753" type="curve" smooth="yes"/>
      <point x="557" y="907"/>
      <point x="599" y="990"/>
      <point x="726" y="990" type="curve" smooth="yes"/>
      <point x="853" y="990"/>
      <point x="894" y="907"/>
      <point x="894" y="753" type="curve" smooth="yes"/>
      <point x="894" y="510" type="line" smooth="yes"/>
      <point x="894" y="213"/>
      <point x="824" y="98"/>
      <point x="614" y="98" type="curve" smooth="yes"/>
      <point x="611" y="98" type="line" smooth="yes"/>
      <point x="417" y="98"/>
      <point x="327" y="213"/>
      <point x="327" y="399" type="curve" smooth="yes"/>
      <point x="327" y="431" type="line" smooth="yes"/>
      <point x="327" y="434"/>
      <point x="327" y="434"/>
      <point x="327" y="438" type="curve"/>
      <point x="1486" y="438" type="line"/>
      <point x="1486" y="692" type="line"/>
      <point x="40" y="692" type="line"/>
      <point x="40" y="642"/>
      <point x="40" y="616"/>
      <point x="40" y="576" type="curve" smooth="yes"/>
      <point x="40" y="491" type="line" smooth="yes"/>
      <point x="40" y="88"/>
      <point x="226" y="-151"/>
      <point x="614" y="-151" type="curve" smooth="yes"/>
      <point x="620" y="-151" type="line" smooth="yes"/>
      <point x="1036" y="-151"/>
      <point x="1174" y="86"/>
      <point x="1174" y="521" type="curve" smooth="yes"/>
      <point x="1174" y="736" type="line" smooth="yes"/>
      <point x="1174" y="1060"/>
      <point x="1058" y="1244"/>
    </contour>
  </outline>
</glyph>
<glyph name="Nine.tm" format="2">
  <advance width="1702"/>
  <unicode hex="0BEF"/>
  <note>
Nine.tm
</note>
  <outline>
    <contour>
      <point x="767" y="524" type="line"/>
      <point x="838" y="524" type="line" smooth="yes"/>
      <point x="913" y="524"/>
      <point x="934" y="500"/>
      <point x="934" y="410" type="curve" smooth="yes"/>
      <point x="934" y="0" type="line"/>
      <point x="1224" y="0" type="line"/>
      <point x="1224" y="464" type="line" smooth="yes"/>
      <point x="1224" y="535"/>
      <point x="1245" y="569"/>
      <point x="1294" y="569" type="curve" smooth="yes"/>
      <point x="1344" y="569"/>
      <point x="1359" y="535"/>
      <point x="1359" y="464" type="curve" smooth="yes"/>
      <point x="1359" y="320" type="line" smooth="yes"/>
      <point x="1359" y="219"/>
      <point x="1350" y="96"/>
      <point x="1315" y="0" type="curve"/>
      <point x="1605" y="0" type="line"/>
      <point x="1637" y="86"/>
      <point x="1646" y="202"/>
      <point x="1646" y="386" type="curve" smooth="yes"/>
      <point x="1646" y="497" type="line" smooth="yes"/>
      <point x="1646" y="714"/>
      <point x="1567" y="826"/>
      <point x="1361" y="826" type="curve" smooth="yes"/>
      <point x="1173" y="826"/>
      <point x="1077" y="719"/>
      <point x="1077" y="567" type="curve" smooth="yes"/>
      <point x="1077" y="567" type="line"/>
      <point x="1068" y="567" type="line"/>
      <point x="1053" y="710"/>
      <point x="1000" y="771"/>
      <point x="847" y="771" type="curve" smooth="yes"/>
      <point x="767" y="771" type="line"/>
    </contour>
    <component base="KaComponent_Nonexporting" xOffset="45"/>
    <component base="KaBeak_Nonexporting" xOffset="849"/>
  </outline>
</glyph>
<glyph name="Ten.tm" format="2">
  <advance width="1363"/>
  <unicode hex="0BF0"/>
  <note>
Ten.tm
</note>
  <guideline x="336" y="2503" angle="270"/>
  <outline>
    <contour>
      <point x="661" y="1562" type="curve" smooth="yes"/>
      <point x="458" y="1562"/>
      <point x="302" y="1562"/>
      <point x="99" y="1562" type="curve"/>
      <point x="66" y="1308" type="line"/>
      <point x="272" y="1308"/>
      <point x="432" y="1308"/>
      <point x="639" y="1308" type="curve" smooth="yes"/>
      <point x="916" y="1308"/>
      <point x="988" y="1224"/>
      <point x="988" y="938" type="curve"/>
      <point x="988" y="364" type="line" smooth="yes"/>
      <point x="988" y="265"/>
      <point x="961" y="232"/>
      <point x="905" y="232" type="curve" smooth="yes"/>
      <point x="845" y="232"/>
      <point x="817" y="265"/>
      <point x="817" y="364" type="curve" smooth="yes"/>
      <point x="817" y="1189" type="line"/>
      <point x="523" y="1189" type="line"/>
      <point x="523" y="340" type="line" smooth="yes"/>
      <point x="523" y="263"/>
      <point x="504" y="232"/>
      <point x="455" y="232" type="curve" smooth="yes"/>
      <point x="409" y="232"/>
      <point x="383" y="263"/>
      <point x="383" y="340" type="curve" smooth="yes"/>
      <point x="383" y="1189" type="line"/>
      <point x="88" y="1189" type="line"/>
      <point x="88" y="350" type="line" smooth="yes"/>
      <point x="88" y="86"/>
      <point x="199" y="-26"/>
      <point x="403" y="-26" type="curve" smooth="yes"/>
      <point x="565" y="-26"/>
      <point x="650" y="66"/>
      <point x="666" y="226" type="curve"/>
      <point x="675" y="226" type="line"/>
      <point x="697" y="68"/>
      <point x="784" y="-26"/>
      <point x="973" y="-26" type="curve" smooth="yes"/>
      <point x="1191" y="-26"/>
      <point x="1283" y="92"/>
      <point x="1283" y="353" type="curve" smooth="yes"/>
      <point x="1283" y="937" type="line" smooth="yes"/>
      <point x="1283" y="1371"/>
      <point x="1156" y="1562"/>
    </contour>
  </outline>
</glyph>
<glyph name="Thousand.tm" format="2">
  <advance width="1863"/>
  <unicode hex="0BF2"/>
  <note>
Thousand.tm
</note>
  <guideline x="3882" y="-95" angle="90"/>
  <guideline x="3704" y="-95" angle="90"/>
  <outline>
    <contour>
      <point x="770" y="524" type="line"/>
      <point x="1701" y="524" type="line"/>
      <point x="1681" y="771" type="line"/>
      <point x="770" y="771" type="line"/>
    </contour>
    <contour>
      <point x="1245" y="708" type="line"/>
      <point x="1245" y="333" type="line"/>
      <point x="1230" y="302" type="line"/>
      <point x="1230" y="31" type="line" smooth="yes"/>
      <point x="1230" y="-29"/>
      <point x="1213" y="-59"/>
      <point x="1171" y="-59" type="curve" smooth="yes"/>
      <point x="1129" y="-59"/>
      <point x="1112" y="-29"/>
      <point x="1112" y="31" type="curve" smooth="yes"/>
      <point x="1112" y="123" type="line" smooth="yes"/>
      <point x="1112" y="158"/>
      <point x="1120" y="177"/>
      <point x="1151" y="177" type="curve"/>
      <point x="1342" y="177" type="line"/>
      <point x="1399" y="173" type="line"/>
      <point x="1480" y="173" type="line" smooth="yes"/>
      <point x="1552" y="173"/>
      <point x="1570" y="144"/>
      <point x="1570" y="48" type="curve" smooth="yes"/>
      <point x="1570" y="-83" type="line" smooth="yes"/>
      <point x="1570" y="-287"/>
      <point x="1506" y="-359"/>
      <point x="1322" y="-359" type="curve" smooth="yes"/>
      <point x="1145" y="-359" type="line"/>
      <point x="1173" y="-591" type="line"/>
      <point x="1346" y="-591" type="line" smooth="yes"/>
      <point x="1716" y="-591"/>
      <point x="1833" y="-451"/>
      <point x="1833" y="-72" type="curve" smooth="yes"/>
      <point x="1833" y="74" type="line" smooth="yes"/>
      <point x="1833" y="298"/>
      <point x="1753" y="396"/>
      <point x="1517" y="396" type="curve" smooth="yes"/>
      <point x="1399" y="396" type="line"/>
      <point x="1342" y="392" type="line"/>
      <point x="1094" y="392" type="line" smooth="yes"/>
      <point x="917" y="392"/>
      <point x="860" y="313"/>
      <point x="860" y="134" type="curve" smooth="yes"/>
      <point x="860" y="31" type="line" smooth="yes"/>
      <point x="860" y="-173"/>
      <point x="958" y="-283"/>
      <point x="1171" y="-283" type="curve" smooth="yes"/>
      <point x="1390" y="-283"/>
      <point x="1482" y="-173"/>
      <point x="1482" y="31" type="curve" smooth="yes"/>
      <point x="1482" y="302" type="line"/>
      <point x="1482" y="333" type="line"/>
      <point x="1482" y="708" type="line"/>
    </contour>
    <contour>
      <point x="1215" y="-359" type="line"/>
      <point x="1092" y="-359" type="line"/>
      <point x="937" y="-359"/>
      <point x="862" y="-372"/>
      <point x="792" y="-401" type="curve"/>
      <point x="779" y="-664" type="line"/>
      <point x="877" y="-618"/>
      <point x="987" y="-591"/>
      <point x="1105" y="-591" type="curve"/>
      <point x="1215" y="-591" type="line"/>
    </contour>
    <component base="KaComponent_Nonexporting" xOffset="45"/>
    <component base="KaBeak_Nonexporting" xOffset="849"/>
  </outline>
</glyph>
<glyph name="DaySign.tm" format="2">
  <advance width="1358"/>
  <unicode hex="0BF3"/>
  <note>
DaySign.tm
</note>
  <outline>
    <contour>
      <point x="992" y="0" type="line"/>
      <point x="1330" y="0" type="line"/>
      <point x="1358" y="258" type="line"/>
      <point x="992" y="258" type="line"/>
    </contour>
    <component base="Va_NonExporting" xOffset="2"/>
  </outline>
</glyph>
<glyph name="MonthSign.tm" format="2">
  <advance width="1371"/>
  <unicode hex="0BF4"/>
  <note>
MonthSign.tm
</note>
  <anchor x="696" y="1249" name="top"/>
  <outline>
    <contour>
      <point x="1579" y="1976" type="curve" smooth="yes"/>
      <point x="1375" y="1976"/>
      <point x="1273" y="1864"/>
      <point x="1273" y="1650" type="curve" smooth="yes"/>
      <point x="1273" y="1614" type="line"/>
      <point x="1264" y="1614" type="line"/>
      <point x="1238" y="1713"/>
      <point x="1174" y="1772"/>
      <point x="1050" y="1772" type="curve" smooth="yes"/>
      <point x="861" y="1772"/>
      <point x="776" y="1645"/>
      <point x="776" y="1387" type="curve"/>
      <point x="776" y="1326" type="line" smooth="yes"/>
      <point x="776" y="1253"/>
      <point x="789" y="1193"/>
      <point x="836" y="1166" type="curve"/>
      <point x="1113" y="1146" type="line"/>
      <point x="1074" y="1170"/>
      <point x="1063" y="1207"/>
      <point x="1063" y="1275" type="curve"/>
      <point x="1063" y="1409" type="line"/>
      <point x="1063" y="1478"/>
      <point x="1076" y="1511"/>
      <point x="1118" y="1511" type="curve" smooth="yes"/>
      <point x="1159" y="1511"/>
      <point x="1170" y="1479"/>
      <point x="1170" y="1409" type="curve" smooth="yes"/>
      <point x="1170" y="1325" type="line"/>
      <point x="1462" y="1325" type="line"/>
      <point x="1462" y="1617" type="line" smooth="yes"/>
      <point x="1462" y="1687"/>
      <point x="1481" y="1719"/>
      <point x="1527" y="1719" type="curve" smooth="yes"/>
      <point x="1573" y="1719"/>
      <point x="1586" y="1687"/>
      <point x="1586" y="1617" type="curve" smooth="yes"/>
      <point x="1586" y="1560" type="line" smooth="yes"/>
      <point x="1586" y="1430"/>
      <point x="1569" y="1345"/>
      <point x="1521" y="1259" type="curve"/>
      <point x="1521" y="1242" type="line"/>
      <point x="2024" y="1242" type="line"/>
      <point x="2049" y="1481" type="line"/>
      <point x="1812" y="1481" type="line"/>
      <point x="1819" y="1356" type="line"/>
      <point x="1862" y="1454"/>
      <point x="1873" y="1498"/>
      <point x="1873" y="1608" type="curve" smooth="yes"/>
      <point x="1873" y="1649" type="line" smooth="yes"/>
      <point x="1873" y="1864"/>
      <point x="1791" y="1976"/>
    </contour>
    <component base="Ma.tm"/>
  </outline>
</glyph>
<glyph name="YearSign.tm" format="2">
  <advance width="3897"/>
  <unicode hex="0BF5"/>
  <note>
YearSign.tm
</note>
  <guideline x="1583" y="-548" angle="0"/>
  <outline>
    <contour>
      <point x="2222" y="1121" type="line"/>
      <point x="2222" y="0" type="line"/>
      <point x="2517" y="0" type="line"/>
      <point x="2517" y="1121" type="line"/>
    </contour>
    <contour>
      <point x="1690" y="0" type="line"/>
      <point x="1907" y="0" type="line"/>
      <point x="1907" y="254" type="line"/>
      <point x="1690" y="254" type="line"/>
    </contour>
    <contour>
      <point x="1359" y="1706" type="line" smooth="yes"/>
      <point x="433" y="1706"/>
      <point x="80" y="1365"/>
      <point x="80" y="703" type="curve" smooth="yes"/>
      <point x="80" y="396" type="line" smooth="yes"/>
      <point x="80" y="-226"/>
      <point x="424" y="-548"/>
      <point x="1322" y="-548" type="curve" smooth="yes"/>
      <point x="1853" y="-548" type="line" smooth="yes"/>
      <point x="2662" y="-548"/>
      <point x="2970" y="-250"/>
      <point x="2970" y="329" type="curve" smooth="yes"/>
      <point x="2970" y="471" type="line" smooth="yes"/>
      <point x="2970" y="701"/>
      <point x="2907" y="817"/>
      <point x="2736" y="817" type="curve" smooth="yes"/>
      <point x="2609" y="817"/>
      <point x="2541" y="738"/>
      <point x="2526" y="633" type="curve"/>
      <point x="2487" y="633" type="line"/>
      <point x="2487" y="466" type="line"/>
      <point x="2508" y="466" type="line"/>
      <point x="2513" y="526"/>
      <point x="2550" y="567"/>
      <point x="2598" y="567" type="curve" smooth="yes"/>
      <point x="2657" y="567"/>
      <point x="2675" y="528"/>
      <point x="2675" y="429" type="curve" smooth="yes"/>
      <point x="2675" y="340" type="line" smooth="yes"/>
      <point x="2675" y="-77"/>
      <point x="2491" y="-283"/>
      <point x="1864" y="-283" type="curve" smooth="yes"/>
      <point x="1311" y="-283" type="line" smooth="yes"/>
      <point x="584" y="-283"/>
      <point x="374" y="-55"/>
      <point x="374" y="407" type="curve" smooth="yes"/>
      <point x="374" y="692" type="line" smooth="yes"/>
      <point x="374" y="1192"/>
      <point x="593" y="1441"/>
      <point x="1348" y="1441" type="curve" smooth="yes"/>
      <point x="2206" y="1441" type="line" smooth="yes"/>
      <point x="2889" y="1441"/>
      <point x="3087" y="1163"/>
      <point x="3087" y="600" type="curve" smooth="yes"/>
      <point x="3087" y="368" type="line" smooth="yes"/>
      <point x="3087" y="123"/>
      <point x="3188" y="-26"/>
      <point x="3455" y="-26" type="curve" smooth="yes"/>
      <point x="3720" y="-26"/>
      <point x="3823" y="123"/>
      <point x="3823" y="368" type="curve" smooth="yes"/>
      <point x="3823" y="832" type="line" smooth="yes"/>
      <point x="3823" y="1100"/>
      <point x="3741" y="1224"/>
      <point x="3503" y="1224" type="curve" smooth="yes"/>
      <point x="3468" y="1224"/>
      <point x="3434" y="1220"/>
      <point x="3403" y="1213" type="curve"/>
      <point x="3378" y="956" type="line"/>
      <point x="3392" y="958"/>
      <point x="3407" y="960"/>
      <point x="3424" y="960" type="curve" smooth="yes"/>
      <point x="3501" y="960"/>
      <point x="3525" y="917"/>
      <point x="3525" y="815" type="curve" smooth="yes"/>
      <point x="3525" y="348" type="line" smooth="yes"/>
      <point x="3525" y="280"/>
      <point x="3512" y="236"/>
      <point x="3455" y="236" type="curve" smooth="yes"/>
      <point x="3396" y="236"/>
      <point x="3382" y="280"/>
      <point x="3382" y="348" type="curve" smooth="yes"/>
      <point x="3382" y="611" type="line" smooth="yes"/>
      <point x="3382" y="1334"/>
      <point x="3054" y="1706"/>
      <point x="2195" y="1706" type="curve" smooth="yes"/>
    </contour>
    <contour>
      <point x="2569" y="1189" type="line"/>
      <point x="1782" y="1189" type="line"/>
      <point x="1782" y="0" type="line"/>
      <point x="2076" y="0" type="line"/>
      <point x="2076" y="935" type="line"/>
      <point x="2569" y="935" type="line"/>
    </contour>
    <component base="Va_NonExporting" xOffset="490"/>
    <component base="RaBeak_Nonexporting" xOffset="2257"/>
  </outline>
</glyph>
<glyph name="DebitSign.tm" format="2">
  <advance width="1504"/>
  <unicode hex="0BF6"/>
  <note>
DebitSign.tm
</note>
  <anchor x="498" y="1249" name="top"/>
  <outline>
    <contour>
      <point x="1117" y="1189" type="line"/>
      <point x="1117" y="-206" type="line"/>
      <point x="1412" y="-206" type="line"/>
      <point x="1412" y="1189" type="line"/>
    </contour>
    <contour>
      <point x="499" y="-708" type="curve" smooth="yes"/>
      <point x="781" y="-708"/>
      <point x="886" y="-537"/>
      <point x="906" y="-282" type="curve"/>
      <point x="913" y="-206" type="line"/>
      <point x="913" y="-138"/>
      <point x="913" y="-68"/>
      <point x="913" y="0" type="curve"/>
      <point x="913" y="140" type="line"/>
      <point x="634" y="140" type="line"/>
      <point x="634" y="0" type="line"/>
      <point x="634" y="-68"/>
      <point x="634" y="-138"/>
      <point x="634" y="-206" type="curve"/>
      <point x="630" y="-287" type="line"/>
      <point x="630" y="-416"/>
      <point x="589" y="-495"/>
      <point x="475" y="-495" type="curve" smooth="yes"/>
      <point x="361" y="-495"/>
      <point x="316" y="-420"/>
      <point x="313" y="-335" type="curve"/>
      <point x="805" y="-335" type="line"/>
      <point x="865" y="-355" type="line"/>
      <point x="1412" y="-355" type="line"/>
      <point x="1412" y="-118" type="line"/>
      <point x="37" y="-118" type="line"/>
      <point x="37" y="-499"/>
      <point x="159" y="-708"/>
    </contour>
    <component base="Pa.tm"/>
  </outline>
</glyph>
<glyph name="CreditSign.tm" format="2">
  <advance width="2188"/>
  <unicode hex="0BF7"/>
  <note>
CreditSign.tm
</note>
  <outline>
    <contour>
      <point x="1706" y="826" type="curve" smooth="yes"/>
      <point x="1518" y="826"/>
      <point x="1422" y="719"/>
      <point x="1422" y="567" type="curve" smooth="yes"/>
      <point x="1422" y="567" type="line"/>
      <point x="1413" y="567" type="line"/>
      <point x="1398" y="710"/>
      <point x="1345" y="771"/>
      <point x="1192" y="771" type="curve" smooth="yes"/>
      <point x="1121" y="771" type="line"/>
      <point x="1121" y="524" type="line"/>
      <point x="1183" y="524" type="line" smooth="yes"/>
      <point x="1259" y="524"/>
      <point x="1279" y="500"/>
      <point x="1279" y="410" type="curve" smooth="yes"/>
      <point x="1279" y="0" type="line"/>
      <point x="1570" y="0" type="line"/>
      <point x="1570" y="464" type="line" smooth="yes"/>
      <point x="1570" y="535"/>
      <point x="1590" y="569"/>
      <point x="1639" y="569" type="curve" smooth="yes"/>
      <point x="1689" y="569"/>
      <point x="1704" y="535"/>
      <point x="1704" y="464" type="curve" smooth="yes"/>
      <point x="1704" y="318" type="line" smooth="yes"/>
      <point x="1704" y="188"/>
      <point x="1687" y="103"/>
      <point x="1639" y="17" type="curve"/>
      <point x="1639" y="0" type="line"/>
      <point x="2160" y="0" type="line"/>
      <point x="2188" y="258" type="line"/>
      <point x="1930" y="258" type="line"/>
      <point x="1938" y="169" type="line"/>
      <point x="1980" y="230"/>
      <point x="1991" y="274"/>
      <point x="1991" y="385" type="curve" smooth="yes"/>
      <point x="1991" y="497" type="line" smooth="yes"/>
      <point x="1991" y="714"/>
      <point x="1912" y="826"/>
    </contour>
    <component base="VowelE.tm"/>
  </outline>
</glyph>
<glyph name="RupeeSign.tm" format="2">
  <advance width="2618"/>
  <unicode hex="0BF9"/>
  <note>
RupeeSign.tm
</note>
  <outline>
    <contour>
      <point x="989" y="1121" type="line"/>
      <point x="989" y="0" type="line"/>
      <point x="1283" y="0" type="line"/>
      <point x="1283" y="1121" type="line"/>
    </contour>
    <contour>
      <point x="1500" y="817" type="curve" smooth="yes"/>
      <point x="1375" y="817"/>
      <point x="1307" y="738"/>
      <point x="1292" y="633" type="curve"/>
      <point x="1254" y="633" type="line"/>
      <point x="1254" y="466" type="line"/>
      <point x="1274" y="466" type="line"/>
      <point x="1280" y="526"/>
      <point x="1316" y="567"/>
      <point x="1362" y="567" type="curve" smooth="yes"/>
      <point x="1419" y="567"/>
      <point x="1438" y="528"/>
      <point x="1438" y="429" type="curve" smooth="yes"/>
      <point x="1438" y="328" type="line" smooth="yes"/>
      <point x="1438" y="-48"/>
      <point x="1325" y="-239"/>
      <point x="936" y="-239" type="curve" smooth="yes"/>
      <point x="927" y="-239" type="line" smooth="yes"/>
      <point x="536" y="-239"/>
      <point x="379" y="-63"/>
      <point x="379" y="309" type="curve" smooth="yes"/>
      <point x="379" y="784" type="line" smooth="yes"/>
      <point x="379" y="1284"/>
      <point x="615" y="1522"/>
      <point x="1071" y="1522" type="curve" smooth="yes"/>
      <point x="1080" y="1522" type="line" smooth="yes"/>
      <point x="1576" y="1522"/>
      <point x="1768" y="1260"/>
      <point x="1768" y="747" type="curve" smooth="yes"/>
      <point x="1768" y="699" type="line"/>
      <point x="2040" y="699" type="line"/>
      <point x="2040" y="924" type="line" smooth="yes"/>
      <point x="2040" y="995"/>
      <point x="2060" y="1029"/>
      <point x="2110" y="1029" type="curve" smooth="yes"/>
      <point x="2160" y="1029"/>
      <point x="2174" y="995"/>
      <point x="2174" y="924" type="curve" smooth="yes"/>
      <point x="2174" y="797" type="line" smooth="yes"/>
      <point x="2174" y="666"/>
      <point x="2158" y="581"/>
      <point x="2110" y="495" type="curve"/>
      <point x="2110" y="478" type="line"/>
      <point x="2612" y="478" type="line"/>
      <point x="2638" y="718" type="line"/>
      <point x="2401" y="718" type="line"/>
      <point x="2408" y="629" type="line"/>
      <point x="2450" y="690"/>
      <point x="2461" y="734"/>
      <point x="2461" y="900" type="curve" smooth="yes"/>
      <point x="2461" y="960" type="line" smooth="yes"/>
      <point x="2461" y="1176"/>
      <point x="2395" y="1286"/>
      <point x="2224" y="1286" type="curve" smooth="yes"/>
      <point x="2066" y="1286"/>
      <point x="1985" y="1187"/>
      <point x="1985" y="1043" type="curve"/>
      <point x="1985" y="1043" type="line"/>
      <point x="1976" y="1043" type="line"/>
      <point x="1945" y="1512"/>
      <point x="1640" y="1787"/>
      <point x="1078" y="1787" type="curve" smooth="yes"/>
      <point x="1072" y="1787" type="line" smooth="yes"/>
      <point x="472" y="1787"/>
      <point x="85" y="1470"/>
      <point x="85" y="758" type="curve" smooth="yes"/>
      <point x="85" y="335" type="line" smooth="yes"/>
      <point x="85" y="-252"/>
      <point x="381" y="-504"/>
      <point x="929" y="-504" type="curve" smooth="yes"/>
      <point x="934" y="-504" type="line" smooth="yes"/>
      <point x="1510" y="-504"/>
      <point x="1732" y="-217"/>
      <point x="1732" y="322" type="curve" smooth="yes"/>
      <point x="1732" y="471" type="line" smooth="yes"/>
      <point x="1732" y="701"/>
      <point x="1670" y="817"/>
    </contour>
    <contour>
      <point x="1342" y="1189" type="line"/>
      <point x="548" y="1189" type="line"/>
      <point x="548" y="0" type="line"/>
      <point x="843" y="0" type="line"/>
      <point x="843" y="935" type="line"/>
      <point x="1342" y="935" type="line"/>
    </contour>
    <component base="RaBeak_Nonexporting" xOffset="1046"/>
  </outline>
</glyph>
<glyph name="fraction" format="2">
  <advance width="266"/>
  <unicode hex="2044"/>
  <outline>
    <contour>
      <point x="-240" y="0" type="line"/>
      <point x="-39" y="0" type="line"/>
      <point x="516" y="1278" type="line"/>
      <point x="315" y="1278" type="line"/>
    </contour>
  </outline>
</glyph>
<glyph name="zerosuperior" format="2">
  <advance width="522"/>
  <unicode hex="2070"/>
  <outline>
    <contour>
      <point x="260" y="682" type="curve" smooth="yes"/>
      <point x="413" y="682"/>
      <point x="492" y="764"/>
      <point x="492" y="934" type="curve"/>
      <point x="492" y="1142" type="line"/>
      <point x="492" y="1311"/>
      <point x="413" y="1394"/>
      <point x="260" y="1394" type="curve" smooth="yes"/>
      <point x="107" y="1394"/>
      <point x="30" y="1311"/>
      <point x="30" y="1142" type="curve"/>
      <point x="30" y="934" type="line"/>
      <point x="30" y="764"/>
      <point x="107" y="682"/>
    </contour>
    <contour>
      <point x="261" y="849" type="curve" smooth="yes"/>
      <point x="237" y="849"/>
      <point x="228" y="866"/>
      <point x="228" y="903" type="curve" smooth="yes"/>
      <point x="228" y="1172" type="line" smooth="yes"/>
      <point x="228" y="1208"/>
      <point x="237" y="1226"/>
      <point x="261" y="1226" type="curve" smooth="yes"/>
      <point x="285" y="1226"/>
      <point x="294" y="1206"/>
      <point x="294" y="1172" type="curve" smooth="yes"/>
      <point x="294" y="903" type="line" smooth="yes"/>
      <point x="294" y="869"/>
      <point x="285" y="849"/>
    </contour>
  </outline>
</glyph>
<glyph name="AsAboveSign_Simple.tm" format="2">
  <advance width="2948"/>
  <note>
AsAboveSign.tm
</note>
  <outline>
    <contour>
      <point x="650" y="1389" type="curve" smooth="yes"/>
      <point x="274" y="1389"/>
      <point x="74" y="1171"/>
      <point x="74" y="757" type="curve" smooth="yes"/>
      <point x="74" y="339" type="line" smooth="yes"/>
      <point x="74" y="116"/>
      <point x="182" y="-26"/>
      <point x="418" y="-26" type="curve" smooth="yes"/>
      <point x="659" y="-26"/>
      <point x="760" y="112"/>
      <point x="760" y="329" type="curve" smooth="yes"/>
      <point x="760" y="519" type="line" smooth="yes"/>
      <point x="760" y="714"/>
      <point x="703" y="817"/>
      <point x="557" y="817" type="curve" smooth="yes"/>
      <point x="431" y="817"/>
      <point x="365" y="726"/>
      <point x="357" y="624" type="curve"/>
      <point x="345" y="624" type="line"/>
      <point x="351" y="499" type="line"/>
      <point x="355" y="539"/>
      <point x="383" y="567"/>
      <point x="417" y="567" type="curve" smooth="yes"/>
      <point x="462" y="567"/>
      <point x="475" y="537"/>
      <point x="475" y="475" type="curve" smooth="yes"/>
      <point x="475" y="315" type="line" smooth="yes"/>
      <point x="475" y="250"/>
      <point x="464" y="217"/>
      <point x="418" y="217" type="curve" smooth="yes"/>
      <point x="372" y="217"/>
      <point x="359" y="250"/>
      <point x="359" y="315" type="curve" smooth="yes"/>
      <point x="359" y="624" type="line"/>
      <point x="348" y="624" type="line"/>
      <point x="348" y="680"/>
      <point x="348" y="735"/>
      <point x="348" y="791" type="curve" smooth="yes"/>
      <point x="348" y="1017"/>
      <point x="442" y="1124"/>
      <point x="651" y="1124" type="curve" smooth="yes"/>
      <point x="865" y="1124"/>
      <point x="935" y="1010"/>
      <point x="935" y="760" type="curve"/>
      <point x="1139" y="997" type="line"/>
      <point x="1111" y="1248"/>
      <point x="942" y="1389"/>
    </contour>
    <contour>
      <point x="873" y="602" type="curve" smooth="yes"/>
      <point x="873" y="339" type="line" smooth="yes"/>
      <point x="873" y="116"/>
      <point x="982" y="-26"/>
      <point x="1217" y="-26" type="curve" smooth="yes"/>
      <point x="1457" y="-26"/>
      <point x="1560" y="112"/>
      <point x="1560" y="329" type="curve" smooth="yes"/>
      <point x="1560" y="519" type="line" smooth="yes"/>
      <point x="1560" y="714"/>
      <point x="1503" y="817"/>
      <point x="1357" y="817" type="curve" smooth="yes"/>
      <point x="1231" y="817"/>
      <point x="1165" y="726"/>
      <point x="1157" y="624" type="curve"/>
      <point x="1145" y="624" type="line"/>
      <point x="1151" y="499" type="line"/>
      <point x="1155" y="539"/>
      <point x="1183" y="567"/>
      <point x="1217" y="567" type="curve" smooth="yes"/>
      <point x="1262" y="567"/>
      <point x="1275" y="537"/>
      <point x="1275" y="475" type="curve" smooth="yes"/>
      <point x="1275" y="315" type="line" smooth="yes"/>
      <point x="1275" y="250"/>
      <point x="1263" y="217"/>
      <point x="1217" y="217" type="curve" smooth="yes"/>
      <point x="1171" y="217"/>
      <point x="1159" y="250"/>
      <point x="1159" y="315" type="curve"/>
      <point x="1159" y="624" type="line"/>
      <point x="1148" y="624" type="line"/>
      <point x="1148" y="629"/>
      <point x="1148" y="629"/>
      <point x="1148" y="635" type="curve" smooth="yes"/>
      <point x="1148" y="854"/>
      <point x="1233" y="959"/>
      <point x="1421" y="959" type="curve" smooth="yes"/>
      <point x="1606" y="959"/>
      <point x="1671" y="854"/>
      <point x="1671" y="624" type="curve" smooth="yes"/>
      <point x="1671" y="447" type="line" smooth="yes"/>
      <point x="1671" y="239"/>
      <point x="1649" y="138"/>
      <point x="1584" y="17" type="curve"/>
      <point x="1584" y="0" type="line"/>
      <point x="2042" y="0" type="line"/>
      <point x="2042" y="254" type="line"/>
      <point x="1901" y="254" type="line"/>
      <point x="1908" y="160" type="line"/>
      <point x="1952" y="232"/>
      <point x="1969" y="307"/>
      <point x="1969" y="453" type="curve" smooth="yes"/>
      <point x="1969" y="620" type="line" smooth="yes"/>
      <point x="1969" y="1012"/>
      <point x="1838" y="1224"/>
      <point x="1455" y="1224" type="curve" smooth="yes"/>
      <point x="1235" y="1224"/>
      <point x="1086" y="1132"/>
      <point x="1040" y="962" type="curve"/>
      <point x="957" y="962" type="line"/>
      <point x="895" y="887"/>
      <point x="873" y="749"/>
    </contour>
    <component base="Ssa_Above_NonExporting" xOffset="1901"/>
    <component base="Ssa_Below_Simple_NonExporting" xOffset="2151"/>
  </outline>
</glyph>
<glyph name="CaMatraU.tm" format="2">
  <advance width="1376"/>
  <note>
CaMatraU.tm
</note>
  <outline>
    <contour>
      <point x="737" y="524" type="line"/>
      <point x="1361" y="524" type="line"/>
      <point x="1333" y="771" type="line"/>
      <point x="737" y="771" type="line"/>
    </contour>
    <contour>
      <point x="948" y="580" type="line"/>
      <point x="948" y="0" type="line"/>
      <point x="1239" y="0" type="line"/>
      <point x="1239" y="580" type="line"/>
    </contour>
    <component base="KaComponent_Nonexporting" xOffset="45"/>
    <component base="KaBeak_Nonexporting" xOffset="868"/>
  </outline>
</glyph>
<glyph name="CaMatraUu.tm" format="2">
  <advance width="2100"/>
  <note>
CaMatraUu.tm
</note>
  <outline>
    <contour>
      <point x="1179" y="524" type="line"/>
      <point x="1463" y="524" type="line"/>
      <point x="1523" y="535" type="line"/>
      <point x="1875" y="535" type="line"/>
      <point x="1851" y="771" type="line"/>
      <point x="1179" y="771" type="line"/>
    </contour>
    <contour>
      <point x="1359" y="561" type="line"/>
      <point x="1359" y="0" type="line"/>
      <point x="1650" y="0" type="line"/>
      <point x="1650" y="561" type="line"/>
    </contour>
    <contour>
      <point x="92" y="1189" type="line"/>
      <point x="88" y="1014"/>
      <point x="84" y="841"/>
      <point x="84" y="458" type="curve" smooth="yes"/>
      <point x="84" y="-202"/>
      <point x="400" y="-537"/>
      <point x="1143" y="-537" type="curve" smooth="yes"/>
      <point x="1191" y="-537" type="line" smooth="yes"/>
      <point x="1804" y="-537"/>
      <point x="2070" y="-309"/>
      <point x="2070" y="90" type="curve" smooth="yes"/>
      <point x="2070" y="145" type="line" smooth="yes"/>
      <point x="2070" y="359"/>
      <point x="2013" y="467"/>
      <point x="1853" y="467" type="curve" smooth="yes"/>
      <point x="1737" y="467"/>
      <point x="1672" y="388"/>
      <point x="1659" y="283" type="curve"/>
      <point x="1621" y="283" type="line"/>
      <point x="1621" y="125" type="line"/>
      <point x="1641" y="125" type="line"/>
      <point x="1647" y="180"/>
      <point x="1676" y="217"/>
      <point x="1715" y="217" type="curve" smooth="yes"/>
      <point x="1761" y="217"/>
      <point x="1775" y="186"/>
      <point x="1775" y="105" type="curve" smooth="yes"/>
      <point x="1775" y="92" type="line" smooth="yes"/>
      <point x="1775" y="-138"/>
      <point x="1621" y="-272"/>
      <point x="1191" y="-272" type="curve" smooth="yes"/>
      <point x="1143" y="-272" type="line" smooth="yes"/>
      <point x="575" y="-272"/>
      <point x="379" y="-31"/>
      <point x="379" y="469" type="curve" smooth="yes"/>
      <point x="379" y="819"/>
      <point x="382" y="979"/>
      <point x="386" y="1189" type="curve"/>
    </contour>
    <component base="KaComponent_Nonexporting" xOffset="471"/>
    <component base="KaBeak_Nonexporting" xOffset="1294"/>
  </outline>
</glyph>
<glyph name="HaMatraI.tm" format="2">
  <advance width="3034"/>
  <note>
HaMatraI.tm
</note>
  <anchor x="1196" y="1249" name="top"/>
  <outline>
    <contour>
      <point x="2493" y="1781" type="curve" smooth="yes"/>
      <point x="2200" y="1781"/>
      <point x="2045" y="1607"/>
      <point x="2045" y="1353" type="curve" smooth="yes"/>
      <point x="2045" y="1316" type="line" smooth="yes"/>
      <point x="2045" y="1263"/>
      <point x="2053" y="1215"/>
      <point x="2082" y="1183" type="curve"/>
      <point x="2363" y="1176" type="line"/>
      <point x="2338" y="1200"/>
      <point x="2331" y="1227"/>
      <point x="2331" y="1279" type="curve" smooth="yes"/>
      <point x="2331" y="1309" type="line" smooth="yes"/>
      <point x="2331" y="1453"/>
      <point x="2381" y="1519"/>
      <point x="2493" y="1519" type="curve" smooth="yes"/>
      <point x="2602" y="1519"/>
      <point x="2647" y="1456"/>
      <point x="2647" y="1308" type="curve" smooth="yes"/>
      <point x="2647" y="0" type="line"/>
      <point x="2942" y="0" type="line"/>
      <point x="2942" y="1312" type="line" smooth="yes"/>
      <point x="2942" y="1612"/>
      <point x="2809" y="1781"/>
    </contour>
    <component base="Ha.tm"/>
  </outline>
</glyph>
<glyph name="HaMatraI_Fly.tm" format="2">
  <advance width="2567"/>
  <note>
HaMatraI.tm
</note>
  <anchor x="1196" y="1249" name="top"/>
  <outline>
    <contour>
      <point x="2551" y="1625" type="line"/>
      <point x="2263" y="1625" type="line" smooth="yes"/>
      <point x="2067" y="1625"/>
      <point x="1981" y="1553"/>
      <point x="1981" y="1411" type="curve" smooth="yes"/>
      <point x="1981" y="1329"/>
      <point x="1996" y="1289"/>
      <point x="2061" y="1159" type="curve"/>
      <point x="2330" y="1159" type="line"/>
      <point x="2295" y="1212"/>
      <point x="2268" y="1280"/>
      <point x="2268" y="1317" type="curve" smooth="yes"/>
      <point x="2268" y="1356"/>
      <point x="2286" y="1371"/>
      <point x="2340" y="1371" type="curve" smooth="yes"/>
      <point x="2585" y="1371" type="line"/>
    </contour>
    <component base="Ha.tm"/>
  </outline>
</glyph>
<glyph name="HaMatraI_Simple_Fly.tm" format="2">
  <advance width="2567"/>
  <note>
HaMatraI.tm
</note>
  <anchor x="1894" y="1249" name="top"/>
  <outline>
    <contour>
      <point x="1167" y="254" type="line"/>
      <point x="1167" y="0" type="line"/>
      <point x="1470" y="0" type="line"/>
      <point x="1470" y="254" type="line"/>
    </contour>
    <contour>
      <point x="1533" y="-136" type="line"/>
      <point x="11" y="-136" type="line"/>
      <point x="42" y="-390" type="line"/>
      <point x="1533" y="-390" type="line"/>
    </contour>
    <component base="Va_NonExporting" xOffset="2"/>
    <component base="RraMatraI_Simple_Fly.tm" xOffset="1196"/>
  </outline>
</glyph>
<glyph name="HaMatraIi.tm" format="2">
  <advance width="2567"/>
  <note>
HaMatraIi.tm
</note>
  <anchor x="1196" y="1249" name="top"/>
  <outline>
    <contour>
      <point x="2531" y="1989" type="curve" smooth="yes"/>
      <point x="2195" y="1989"/>
      <point x="2053" y="1807"/>
      <point x="2053" y="1514" type="curve" smooth="yes"/>
      <point x="2053" y="1356" type="line" smooth="yes"/>
      <point x="2053" y="1281"/>
      <point x="2066" y="1223"/>
      <point x="2113" y="1197" type="curve"/>
      <point x="2377" y="1171" type="line"/>
      <point x="2335" y="1196"/>
      <point x="2323" y="1224"/>
      <point x="2323" y="1294" type="curve" smooth="yes"/>
      <point x="2323" y="1498" type="line" smooth="yes"/>
      <point x="2323" y="1674"/>
      <point x="2384" y="1757"/>
      <point x="2517" y="1763" type="curve"/>
      <point x="2517" y="1752" type="line"/>
      <point x="2544" y="1757"/>
      <point x="2568" y="1761"/>
      <point x="2596" y="1761" type="curve" smooth="yes"/>
      <point x="2675" y="1761"/>
      <point x="2701" y="1717"/>
      <point x="2701" y="1632" type="curve" smooth="yes"/>
      <point x="2701" y="1529" type="line" smooth="yes"/>
      <point x="2701" y="1483"/>
      <point x="2690" y="1457"/>
      <point x="2657" y="1457" type="curve" smooth="yes"/>
      <point x="2622" y="1457"/>
      <point x="2611" y="1483"/>
      <point x="2611" y="1529" type="curve" smooth="yes"/>
      <point x="2611" y="1652" type="line" smooth="yes"/>
      <point x="2611" y="1702"/>
      <point x="2618" y="1739"/>
      <point x="2644" y="1766" type="curve"/>
      <point x="2517" y="1766" type="line"/>
      <point x="2517" y="1754" type="line"/>
      <point x="2413" y="1715"/>
      <point x="2381" y="1654"/>
      <point x="2381" y="1554" type="curve" smooth="yes"/>
      <point x="2381" y="1526" type="line" smooth="yes"/>
      <point x="2381" y="1361"/>
      <point x="2464" y="1266"/>
      <point x="2657" y="1266" type="curve" smooth="yes"/>
      <point x="2866" y="1266"/>
      <point x="2955" y="1372"/>
      <point x="2955" y="1553" type="curve" smooth="yes"/>
      <point x="2955" y="1601" type="line" smooth="yes"/>
      <point x="2955" y="1840"/>
      <point x="2841" y="1989"/>
    </contour>
    <component base="Ha.tm"/>
  </outline>
</glyph>
<glyph name="Ha_Simple.tm" format="2">
  <advance width="2567"/>
  <note>
Ha.tm
</note>
  <anchor x="1196" y="1249" name="top"/>
  <outline>
    <contour>
      <point x="1167" y="254" type="line"/>
      <point x="1167" y="0" type="line"/>
      <point x="1470" y="0" type="line"/>
      <point x="1470" y="254" type="line"/>
    </contour>
    <contour>
      <point x="1434" y="-136" type="line"/>
      <point x="11" y="-136" type="line"/>
      <point x="42" y="-390" type="line"/>
      <point x="1434" y="-390" type="line"/>
    </contour>
    <component base="Va_NonExporting" xOffset="2"/>
    <component base="Rra_Simple.tm" xOffset="1196"/>
  </outline>
</glyph>
<glyph name="JaMatraI.tm" format="2">
  <advance width="2116"/>
  <note>
JaMatraI.tm
</note>
  <anchor x="954" y="1249" name="top"/>
  <outline>
    <contour>
      <point x="1575" y="1781" type="curve" smooth="yes"/>
      <point x="1282" y="1781"/>
      <point x="1127" y="1607"/>
      <point x="1127" y="1353" type="curve" smooth="yes"/>
      <point x="1127" y="1316" type="line" smooth="yes"/>
      <point x="1127" y="1263"/>
      <point x="1135" y="1215"/>
      <point x="1164" y="1183" type="curve"/>
      <point x="1445" y="1176" type="line"/>
      <point x="1420" y="1200"/>
      <point x="1413" y="1227"/>
      <point x="1413" y="1279" type="curve" smooth="yes"/>
      <point x="1413" y="1309" type="line" smooth="yes"/>
      <point x="1413" y="1453"/>
      <point x="1463" y="1519"/>
      <point x="1575" y="1519" type="curve" smooth="yes"/>
      <point x="1684" y="1519"/>
      <point x="1729" y="1456"/>
      <point x="1729" y="1308" type="curve" smooth="yes"/>
      <point x="1729" y="0" type="line"/>
      <point x="2024" y="0" type="line"/>
      <point x="2024" y="1312" type="line" smooth="yes"/>
      <point x="2024" y="1612"/>
      <point x="1891" y="1781"/>
    </contour>
    <component base="Ja.tm"/>
  </outline>
</glyph>
<glyph name="JaMatraI_Fused.tm" format="2">
  <advance width="2116"/>
  <note>
JaMatraI.tm
</note>
  <anchor x="954" y="1249" name="top"/>
  <outline>
    <contour>
      <point x="1575" y="1781" type="curve" smooth="yes"/>
      <point x="1282" y="1781"/>
      <point x="1127" y="1607"/>
      <point x="1127" y="1353" type="curve" smooth="yes"/>
      <point x="1127" y="1316" type="line" smooth="yes"/>
      <point x="1127" y="1263"/>
      <point x="1135" y="1215"/>
      <point x="1164" y="1183" type="curve"/>
      <point x="1445" y="1176" type="line"/>
      <point x="1420" y="1200"/>
      <point x="1413" y="1227"/>
      <point x="1413" y="1279" type="curve" smooth="yes"/>
      <point x="1413" y="1309" type="line" smooth="yes"/>
      <point x="1413" y="1453"/>
      <point x="1463" y="1519"/>
      <point x="1575" y="1519" type="curve" smooth="yes"/>
      <point x="1684" y="1519"/>
      <point x="1729" y="1456"/>
      <point x="1729" y="1308" type="curve" smooth="yes"/>
      <point x="1729" y="0" type="line"/>
      <point x="2024" y="0" type="line"/>
      <point x="2024" y="1312" type="line" smooth="yes"/>
      <point x="2024" y="1612"/>
      <point x="1891" y="1781"/>
    </contour>
    <component base="Ja_Fused.tm"/>
  </outline>
</glyph>
<glyph name="JaMatraIi_Fused.tm" format="2">
  <advance width="1649"/>
  <note>
JaMatraIi.tm
</note>
  <anchor x="954" y="1249" name="top"/>
  <outline>
    <contour>
      <point x="1586" y="1989" type="curve" smooth="yes"/>
      <point x="1250" y="1989"/>
      <point x="1108" y="1807"/>
      <point x="1108" y="1514" type="curve" smooth="yes"/>
      <point x="1108" y="1356" type="line" smooth="yes"/>
      <point x="1108" y="1278"/>
      <point x="1120" y="1215"/>
      <point x="1164" y="1186" type="curve"/>
      <point x="1428" y="1186" type="line"/>
      <point x="1390" y="1219"/>
      <point x="1378" y="1256"/>
      <point x="1378" y="1329" type="curve" smooth="yes"/>
      <point x="1378" y="1498" type="line" smooth="yes"/>
      <point x="1378" y="1674"/>
      <point x="1439" y="1757"/>
      <point x="1572" y="1763" type="curve"/>
      <point x="1572" y="1752" type="line"/>
      <point x="1599" y="1757"/>
      <point x="1623" y="1761"/>
      <point x="1651" y="1761" type="curve" smooth="yes"/>
      <point x="1730" y="1761"/>
      <point x="1756" y="1717"/>
      <point x="1756" y="1632" type="curve" smooth="yes"/>
      <point x="1756" y="1529" type="line" smooth="yes"/>
      <point x="1756" y="1483"/>
      <point x="1745" y="1457"/>
      <point x="1712" y="1457" type="curve" smooth="yes"/>
      <point x="1677" y="1457"/>
      <point x="1666" y="1483"/>
      <point x="1666" y="1529" type="curve" smooth="yes"/>
      <point x="1666" y="1652" type="line" smooth="yes"/>
      <point x="1666" y="1702"/>
      <point x="1673" y="1739"/>
      <point x="1699" y="1766" type="curve"/>
      <point x="1572" y="1766" type="line"/>
      <point x="1572" y="1754" type="line"/>
      <point x="1468" y="1715"/>
      <point x="1436" y="1654"/>
      <point x="1436" y="1554" type="curve" smooth="yes"/>
      <point x="1436" y="1526" type="line" smooth="yes"/>
      <point x="1436" y="1361"/>
      <point x="1519" y="1266"/>
      <point x="1712" y="1266" type="curve" smooth="yes"/>
      <point x="1921" y="1266"/>
      <point x="2010" y="1372"/>
      <point x="2010" y="1553" type="curve" smooth="yes"/>
      <point x="2010" y="1601" type="line" smooth="yes"/>
      <point x="2010" y="1840"/>
      <point x="1896" y="1989"/>
    </contour>
    <component base="Ja_Fused.tm"/>
  </outline>
</glyph>
<glyph name="JaMatraIi_Fused_SimpleIi.tm" format="2">
  <advance width="1649"/>
  <note>
JaMatraIi.tm
</note>
  <anchor x="954" y="1249" name="top"/>
  <outline>
    <contour>
      <point x="1443" y="1910" type="curve" smooth="yes"/>
      <point x="1212" y="1910"/>
      <point x="1108" y="1776"/>
      <point x="1108" y="1549" type="curve" smooth="yes"/>
      <point x="1108" y="1336" type="line" smooth="yes"/>
      <point x="1108" y="1267"/>
      <point x="1119" y="1212"/>
      <point x="1160" y="1186" type="curve"/>
      <point x="1436" y="1186" type="line"/>
      <point x="1401" y="1214"/>
      <point x="1390" y="1246"/>
      <point x="1390" y="1309" type="curve" smooth="yes"/>
      <point x="1390" y="1478" type="line"/>
      <point x="1390" y="1612" type="line" smooth="yes"/>
      <point x="1390" y="1656"/>
      <point x="1406" y="1680"/>
      <point x="1443" y="1680" type="curve" smooth="yes"/>
      <point x="1478" y="1680"/>
      <point x="1493" y="1656"/>
      <point x="1493" y="1612" type="curve" smooth="yes"/>
      <point x="1493" y="1522" type="line" smooth="yes"/>
      <point x="1493" y="1479"/>
      <point x="1480" y="1457"/>
      <point x="1443" y="1457" type="curve" smooth="yes"/>
      <point x="1421" y="1457"/>
      <point x="1397" y="1470"/>
      <point x="1388" y="1492" type="curve"/>
      <point x="1378" y="1492" type="line"/>
      <point x="1388" y="1408" type="line"/>
      <point x="1406" y="1408" type="line"/>
      <point x="1441" y="1292" type="line"/>
      <point x="1471" y="1268"/>
      <point x="1521" y="1253"/>
      <point x="1576" y="1253" type="curve" smooth="yes"/>
      <point x="1704" y="1253"/>
      <point x="1769" y="1338"/>
      <point x="1769" y="1511" type="curve" smooth="yes"/>
      <point x="1769" y="1584" type="line" smooth="yes"/>
      <point x="1769" y="1788"/>
      <point x="1674" y="1910"/>
    </contour>
    <component base="Ja_Fused.tm"/>
  </outline>
</glyph>
<glyph name="KaComponent_Nonexporting" format="2">
  <advance width="859"/>
  <outline>
    <contour>
      <point x="635" y="767" type="line"/>
      <point x="350" y="767" type="line"/>
      <point x="169" y="749" type="line"/>
      <point x="37" y="688" type="line"/>
      <point x="37" y="580"/>
      <point x="37" y="456"/>
      <point x="37" y="348" type="curve" smooth="yes"/>
      <point x="37" y="107"/>
      <point x="153" y="-26"/>
      <point x="406" y="-26" type="curve" smooth="yes"/>
      <point x="667" y="-26"/>
      <point x="776" y="107"/>
      <point x="776" y="348" type="curve" smooth="yes"/>
      <point x="776" y="668" type="line"/>
      <point x="776" y="705" type="line"/>
      <point x="776" y="1150" type="line"/>
      <point x="517" y="1150" type="line"/>
      <point x="517" y="705" type="line"/>
      <point x="499" y="668" type="line"/>
      <point x="499" y="353" type="line" smooth="yes"/>
      <point x="499" y="267"/>
      <point x="474" y="224"/>
      <point x="406" y="224" type="curve" smooth="yes"/>
      <point x="338" y="224"/>
      <point x="313" y="267"/>
      <point x="313" y="353" type="curve" smooth="yes"/>
      <point x="313" y="396"/>
      <point x="313" y="486"/>
      <point x="313" y="528" type="curve"/>
      <point x="357" y="528" type="line"/>
      <point x="635" y="528" type="line"/>
    </contour>
    <contour>
      <point x="859" y="1189" type="line"/>
      <point x="127" y="1189" type="line"/>
      <point x="127" y="677" type="line"/>
      <point x="381" y="668" type="line"/>
      <point x="388" y="962" type="line"/>
      <point x="624" y="962" type="line"/>
      <point x="648" y="949" type="line"/>
      <point x="859" y="949" type="line"/>
    </contour>
  </outline>
</glyph>
<glyph name="KaMatraI.tm" format="2">
  <advance width="1325"/>
  <note>
KaMatraI.tm
</note>
  <outline>
    <contour>
      <point x="775" y="524" type="line"/>
      <point x="867" y="524" type="line" smooth="yes"/>
      <point x="943" y="524"/>
      <point x="963" y="502"/>
      <point x="963" y="421" type="curve" smooth="yes"/>
      <point x="963" y="325" type="line" smooth="yes"/>
      <point x="963" y="257"/>
      <point x="946" y="224"/>
      <point x="887" y="224" type="curve" smooth="yes"/>
      <point x="839" y="224"/>
      <point x="800" y="252"/>
      <point x="787" y="285" type="curve"/>
      <point x="783" y="265" type="line"/>
      <point x="816" y="0" type="line"/>
      <point x="849" y="-15"/>
      <point x="901" y="-26"/>
      <point x="966" y="-26" type="curve" smooth="yes"/>
      <point x="1175" y="-26"/>
      <point x="1254" y="92"/>
      <point x="1254" y="308" type="curve" smooth="yes"/>
      <point x="1254" y="454" type="line" smooth="yes"/>
      <point x="1254" y="679"/>
      <point x="1171" y="771"/>
      <point x="924" y="771" type="curve" smooth="yes"/>
      <point x="775" y="771" type="line"/>
    </contour>
    <contour>
      <point x="903" y="1781" type="curve" smooth="yes"/>
      <point x="630" y="1781"/>
      <point x="505" y="1631"/>
      <point x="505" y="1355" type="curve" smooth="yes"/>
      <point x="505" y="1306" type="line" smooth="yes"/>
      <point x="505" y="1254"/>
      <point x="518" y="1204"/>
      <point x="551" y="1176" type="curve"/>
      <point x="821" y="1176" type="line"/>
      <point x="798" y="1204"/>
      <point x="791" y="1236"/>
      <point x="791" y="1299" type="curve"/>
      <point x="791" y="1358" type="line"/>
      <point x="791" y="1473"/>
      <point x="819" y="1525"/>
      <point x="900" y="1525" type="curve" smooth="yes"/>
      <point x="979" y="1525"/>
      <point x="1004" y="1473"/>
      <point x="1004" y="1358" type="curve" smooth="yes"/>
      <point x="1004" y="817" type="line"/>
      <point x="1295" y="817" type="line"/>
      <point x="1295" y="1335" type="line" smooth="yes"/>
      <point x="1295" y="1632"/>
      <point x="1181" y="1781"/>
    </contour>
    <component base="KaComponent_Nonexporting" xOffset="45"/>
    <component base="KaBeak_Nonexporting" xOffset="739"/>
  </outline>
</glyph>
<glyph name="KaMatraU.tm" format="2">
  <advance width="1724"/>
  <note>
KaMatraU.tm
</note>
  <outline>
    <contour>
      <point x="1117" y="524" type="line"/>
      <point x="1255" y="524" type="line" smooth="yes"/>
      <point x="1343" y="524"/>
      <point x="1365" y="489"/>
      <point x="1365" y="375" type="curve" smooth="yes"/>
      <point x="1365" y="263" type="line" smooth="yes"/>
      <point x="1365" y="-40"/>
      <point x="1252" y="-202"/>
      <point x="910" y="-202" type="curve" smooth="yes"/>
      <point x="903" y="-202" type="line" smooth="yes"/>
      <point x="507" y="-202"/>
      <point x="383" y="-11"/>
      <point x="383" y="377" type="curve" smooth="yes"/>
      <point x="383" y="773"/>
      <point x="386" y="951"/>
      <point x="390" y="1189" type="curve"/>
      <point x="96" y="1189" type="line"/>
      <point x="92" y="992"/>
      <point x="88" y="797"/>
      <point x="88" y="366" type="curve" smooth="yes"/>
      <point x="88" y="-182"/>
      <point x="323" y="-467"/>
      <point x="903" y="-467" type="curve" smooth="yes"/>
      <point x="910" y="-467" type="line" smooth="yes"/>
      <point x="1441" y="-467"/>
      <point x="1656" y="-217"/>
      <point x="1656" y="254" type="curve" smooth="yes"/>
      <point x="1656" y="397" type="line"/>
      <point x="1656" y="657"/>
      <point x="1560" y="771"/>
      <point x="1284" y="771" type="curve" smooth="yes"/>
      <point x="1117" y="771" type="line"/>
    </contour>
    <component base="KaComponent_Nonexporting" xOffset="475"/>
    <component base="KaBeak_Nonexporting" xOffset="1298"/>
  </outline>
</glyph>
<glyph name="KssaMatraI_Simple.tm" format="2">
  <advance width="3052"/>
  <note>
KshaMatraI.tm
</note>
  <anchor x="1478" y="1249" name="top"/>
  <outline>
    <contour>
      <point x="2483" y="1781" type="curve" smooth="yes"/>
      <point x="2167" y="1781"/>
      <point x="2009" y="1600"/>
      <point x="2009" y="1330" type="curve" smooth="yes"/>
      <point x="2009" y="1295" type="line" smooth="yes"/>
      <point x="2009" y="1259"/>
      <point x="2015" y="1225"/>
      <point x="2036" y="1205" type="curve"/>
      <point x="2331" y="1166" type="line"/>
      <point x="2303" y="1187"/>
      <point x="2295" y="1207"/>
      <point x="2295" y="1258" type="curve" smooth="yes"/>
      <point x="2295" y="1292" type="line" smooth="yes"/>
      <point x="2295" y="1443"/>
      <point x="2355" y="1520"/>
      <point x="2483" y="1520" type="curve" smooth="yes"/>
      <point x="2612" y="1520"/>
      <point x="2665" y="1443"/>
      <point x="2665" y="1292" type="curve" smooth="yes"/>
      <point x="2665" y="0" type="line"/>
      <point x="2960" y="0" type="line"/>
      <point x="2960" y="1314" type="line" smooth="yes"/>
      <point x="2960" y="1600"/>
      <point x="2823" y="1781"/>
    </contour>
    <component base="Kssa_Simple.tm"/>
  </outline>
</glyph>
<glyph name="KssaMatraI_Simple_Fly.tm" format="2">
  <advance width="2606"/>
  <note>
KshaMatraI.tm
</note>
  <anchor x="1478" y="1249" name="top"/>
  <outline>
    <contour>
      <point x="2482" y="1625" type="line"/>
      <point x="2194" y="1625" type="line" smooth="yes"/>
      <point x="1998" y="1625"/>
      <point x="1912" y="1553"/>
      <point x="1912" y="1411" type="curve" smooth="yes"/>
      <point x="1912" y="1329"/>
      <point x="1927" y="1289"/>
      <point x="1992" y="1159" type="curve"/>
      <point x="2261" y="1159" type="line"/>
      <point x="2226" y="1212"/>
      <point x="2199" y="1280"/>
      <point x="2199" y="1317" type="curve" smooth="yes"/>
      <point x="2199" y="1356"/>
      <point x="2217" y="1371"/>
      <point x="2271" y="1371" type="curve" smooth="yes"/>
      <point x="2516" y="1371" type="line"/>
    </contour>
    <component base="Kssa_Simple.tm"/>
  </outline>
</glyph>
<glyph name="KssaMatraIi.tm" format="2">
  <advance width="2603"/>
  <note>
KshaMatraIi.tm
</note>
  <anchor x="1478" y="1249" name="top"/>
  <outline>
    <contour>
      <point x="2453" y="1989" type="curve" smooth="yes"/>
      <point x="2117" y="1989"/>
      <point x="1975" y="1807"/>
      <point x="1975" y="1514" type="curve" smooth="yes"/>
      <point x="1975" y="1356" type="line" smooth="yes"/>
      <point x="1975" y="1284"/>
      <point x="1988" y="1223"/>
      <point x="2035" y="1198" type="curve"/>
      <point x="2306" y="1184" type="line"/>
      <point x="2259" y="1207"/>
      <point x="2245" y="1232"/>
      <point x="2245" y="1298" type="curve" smooth="yes"/>
      <point x="2245" y="1498" type="line" smooth="yes"/>
      <point x="2245" y="1674"/>
      <point x="2306" y="1757"/>
      <point x="2439" y="1763" type="curve"/>
      <point x="2439" y="1752" type="line"/>
      <point x="2466" y="1757"/>
      <point x="2490" y="1761"/>
      <point x="2518" y="1761" type="curve" smooth="yes"/>
      <point x="2597" y="1761"/>
      <point x="2623" y="1717"/>
      <point x="2623" y="1632" type="curve" smooth="yes"/>
      <point x="2623" y="1529" type="line" smooth="yes"/>
      <point x="2623" y="1483"/>
      <point x="2612" y="1457"/>
      <point x="2579" y="1457" type="curve" smooth="yes"/>
      <point x="2544" y="1457"/>
      <point x="2533" y="1483"/>
      <point x="2533" y="1529" type="curve" smooth="yes"/>
      <point x="2533" y="1652" type="line" smooth="yes"/>
      <point x="2533" y="1702"/>
      <point x="2540" y="1739"/>
      <point x="2566" y="1766" type="curve"/>
      <point x="2439" y="1766" type="line"/>
      <point x="2439" y="1754" type="line"/>
      <point x="2335" y="1715"/>
      <point x="2303" y="1654"/>
      <point x="2303" y="1554" type="curve" smooth="yes"/>
      <point x="2303" y="1526" type="line" smooth="yes"/>
      <point x="2303" y="1361"/>
      <point x="2386" y="1266"/>
      <point x="2579" y="1266" type="curve" smooth="yes"/>
      <point x="2788" y="1266"/>
      <point x="2877" y="1372"/>
      <point x="2877" y="1553" type="curve" smooth="yes"/>
      <point x="2877" y="1601" type="line" smooth="yes"/>
      <point x="2877" y="1840"/>
      <point x="2763" y="1989"/>
    </contour>
    <component base="Kssa.tm"/>
  </outline>
</glyph>
<glyph name="LaMatraI_Fly.tm" format="2">
  <advance width="1660"/>
  <note>
LaMatraI.tm
</note>
  <outline>
    <contour>
      <point x="624" y="1224" type="curve" smooth="yes"/>
      <point x="263" y="1224"/>
      <point x="68" y="1008"/>
      <point x="68" y="602" type="curve" smooth="yes"/>
      <point x="68" y="339" type="line" smooth="yes"/>
      <point x="68" y="116"/>
      <point x="177" y="-26"/>
      <point x="412" y="-26" type="curve" smooth="yes"/>
      <point x="652" y="-26"/>
      <point x="755" y="112"/>
      <point x="755" y="329" type="curve" smooth="yes"/>
      <point x="755" y="519" type="line" smooth="yes"/>
      <point x="755" y="714"/>
      <point x="698" y="817"/>
      <point x="552" y="817" type="curve" smooth="yes"/>
      <point x="426" y="817"/>
      <point x="360" y="726"/>
      <point x="352" y="624" type="curve"/>
      <point x="340" y="624" type="line"/>
      <point x="346" y="499" type="line"/>
      <point x="350" y="539"/>
      <point x="378" y="567"/>
      <point x="412" y="567" type="curve" smooth="yes"/>
      <point x="457" y="567"/>
      <point x="470" y="537"/>
      <point x="470" y="475" type="curve" smooth="yes"/>
      <point x="470" y="315" type="line" smooth="yes"/>
      <point x="470" y="250"/>
      <point x="458" y="217"/>
      <point x="412" y="217" type="curve" smooth="yes"/>
      <point x="366" y="217"/>
      <point x="354" y="250"/>
      <point x="354" y="315" type="curve"/>
      <point x="354" y="624" type="line"/>
      <point x="343" y="624" type="line"/>
      <point x="343" y="629"/>
      <point x="343" y="629"/>
      <point x="343" y="635" type="curve" smooth="yes"/>
      <point x="343" y="854"/>
      <point x="431" y="959"/>
      <point x="613" y="959" type="curve" smooth="yes"/>
      <point x="780" y="959"/>
      <point x="858" y="857"/>
      <point x="858" y="655" type="curve" smooth="yes"/>
      <point x="858" y="368" type="line" smooth="yes"/>
      <point x="858" y="123"/>
      <point x="957" y="-26"/>
      <point x="1222" y="-26" type="curve" smooth="yes"/>
      <point x="1483" y="-26"/>
      <point x="1586" y="123"/>
      <point x="1586" y="368" type="curve" smooth="yes"/>
      <point x="1586" y="862" type="line" smooth="yes"/>
      <point x="1586" y="1068"/>
      <point x="1524" y="1211"/>
      <point x="1366" y="1211" type="curve" smooth="yes"/>
      <point x="1325" y="1211"/>
      <point x="1296" y="1207"/>
      <point x="1259" y="1198" type="curve"/>
      <point x="1334" y="1179" type="line"/>
      <point x="1307" y="1242"/>
      <point x="1292" y="1288"/>
      <point x="1292" y="1317" type="curve" smooth="yes"/>
      <point x="1292" y="1356"/>
      <point x="1310" y="1371"/>
      <point x="1364" y="1371" type="curve" smooth="yes"/>
      <point x="1608" y="1371" type="line"/>
      <point x="1575" y="1625" type="line"/>
      <point x="1281" y="1625" type="line" smooth="yes"/>
      <point x="1090" y="1625"/>
      <point x="1005" y="1557"/>
      <point x="1005" y="1417" type="curve" smooth="yes"/>
      <point x="1005" y="1318"/>
      <point x="1027" y="1252"/>
      <point x="1130" y="987" type="curve"/>
      <point x="1146" y="990"/>
      <point x="1165" y="992"/>
      <point x="1183" y="992" type="curve" smooth="yes"/>
      <point x="1264" y="992"/>
      <point x="1288" y="945"/>
      <point x="1288" y="835" type="curve" smooth="yes"/>
      <point x="1288" y="348" type="line" smooth="yes"/>
      <point x="1288" y="280"/>
      <point x="1275" y="236"/>
      <point x="1222" y="236" type="curve" smooth="yes"/>
      <point x="1167" y="236"/>
      <point x="1152" y="280"/>
      <point x="1152" y="348" type="curve" smooth="yes"/>
      <point x="1152" y="638" type="line" smooth="yes"/>
      <point x="1152" y="1014"/>
      <point x="1018" y="1224"/>
    </contour>
  </outline>
</glyph>
<glyph name="LaMatraU.tm" format="2">
  <advance width="2141"/>
  <note>
LaMatraU.tm
</note>
  <anchor x="984" y="1249" name="top"/>
  <outline>
    <contour>
      <point x="1754" y="1189" type="line"/>
      <point x="1754" y="-217" type="line"/>
      <point x="2049" y="-217" type="line"/>
      <point x="2049" y="1189" type="line"/>
    </contour>
    <contour>
      <point x="714" y="-756" type="curve" smooth="yes"/>
      <point x="1126" y="-756"/>
      <point x="1319" y="-561"/>
      <point x="1358" y="-293" type="curve"/>
      <point x="1356" y="-239" type="line"/>
      <point x="1365" y="-167"/>
      <point x="1373" y="-98"/>
      <point x="1374" y="26" type="curve"/>
      <point x="1087" y="26" type="line"/>
      <point x="1084" y="-72"/>
      <point x="1078" y="-149"/>
      <point x="1073" y="-201" type="curve"/>
      <point x="1064" y="-280" type="line"/>
      <point x="1052" y="-418"/>
      <point x="937" y="-524"/>
      <point x="714" y="-524" type="curve" smooth="yes"/>
      <point x="493" y="-524"/>
      <point x="388" y="-445"/>
      <point x="364" y="-353" type="curve"/>
      <point x="2049" y="-353" type="line"/>
      <point x="2049" y="-118" type="line"/>
      <point x="39" y="-118" type="line"/>
      <point x="46" y="-539"/>
      <point x="282" y="-756"/>
    </contour>
    <component base="La.tm"/>
  </outline>
</glyph>
<glyph name="LlaMatraU.tm" format="2">
  <advance width="2602"/>
  <note>
LlaMatraU.tm
</note>
  <outline>
    <contour>
      <point x="2298" y="817" type="curve" smooth="yes"/>
      <point x="2171" y="817"/>
      <point x="2099" y="745"/>
      <point x="2084" y="633" type="curve"/>
      <point x="2046" y="633" type="line"/>
      <point x="2046" y="466" type="line"/>
      <point x="2066" y="466" type="line"/>
      <point x="2071" y="526"/>
      <point x="2108" y="567"/>
      <point x="2154" y="567" type="curve" smooth="yes"/>
      <point x="2215" y="567"/>
      <point x="2233" y="528"/>
      <point x="2233" y="427" type="curve" smooth="yes"/>
      <point x="2233" y="337" type="line" smooth="yes"/>
      <point x="2233" y="-77"/>
      <point x="2073" y="-265"/>
      <point x="1439" y="-265" type="curve" smooth="yes"/>
      <point x="1319" y="-265" type="line" smooth="yes"/>
      <point x="576" y="-265"/>
      <point x="379" y="6"/>
      <point x="379" y="580" type="curve" smooth="yes"/>
      <point x="379" y="834"/>
      <point x="384" y="1012"/>
      <point x="390" y="1189" type="curve"/>
      <point x="95" y="1189" type="line"/>
      <point x="90" y="1041"/>
      <point x="84" y="850"/>
      <point x="84" y="569" type="curve" smooth="yes"/>
      <point x="84" y="-162"/>
      <point x="414" y="-530"/>
      <point x="1330" y="-530" type="curve" smooth="yes"/>
      <point x="1427" y="-530" type="line" smooth="yes"/>
      <point x="2241" y="-530"/>
      <point x="2528" y="-250"/>
      <point x="2528" y="326" type="curve" smooth="yes"/>
      <point x="2528" y="449" type="line" smooth="yes"/>
      <point x="2528" y="694"/>
      <point x="2463" y="817"/>
    </contour>
    <contour>
      <point x="1780" y="1121" type="line"/>
      <point x="1780" y="0" type="line"/>
      <point x="2075" y="0" type="line"/>
      <point x="2075" y="1121" type="line"/>
    </contour>
    <contour>
      <point x="1065" y="1224" type="curve" smooth="yes"/>
      <point x="721" y="1224"/>
      <point x="542" y="1008"/>
      <point x="542" y="602" type="curve" smooth="yes"/>
      <point x="542" y="339" type="line" smooth="yes"/>
      <point x="542" y="116"/>
      <point x="651" y="-26"/>
      <point x="886" y="-26" type="curve" smooth="yes"/>
      <point x="1126" y="-26"/>
      <point x="1229" y="112"/>
      <point x="1229" y="329" type="curve" smooth="yes"/>
      <point x="1229" y="519" type="line" smooth="yes"/>
      <point x="1229" y="714"/>
      <point x="1172" y="817"/>
      <point x="1026" y="817" type="curve" smooth="yes"/>
      <point x="900" y="817"/>
      <point x="834" y="726"/>
      <point x="826" y="624" type="curve"/>
      <point x="814" y="624" type="line"/>
      <point x="820" y="499" type="line"/>
      <point x="824" y="539"/>
      <point x="852" y="567"/>
      <point x="886" y="567" type="curve" smooth="yes"/>
      <point x="931" y="567"/>
      <point x="944" y="537"/>
      <point x="944" y="475" type="curve" smooth="yes"/>
      <point x="944" y="315" type="line" smooth="yes"/>
      <point x="944" y="250"/>
      <point x="932" y="217"/>
      <point x="886" y="217" type="curve" smooth="yes"/>
      <point x="840" y="217"/>
      <point x="828" y="250"/>
      <point x="828" y="315" type="curve"/>
      <point x="828" y="624" type="line"/>
      <point x="817" y="624" type="line"/>
      <point x="817" y="629"/>
      <point x="817" y="629"/>
      <point x="817" y="635" type="curve" smooth="yes"/>
      <point x="817" y="854"/>
      <point x="901" y="959"/>
      <point x="1091" y="959" type="curve" smooth="yes"/>
      <point x="1262" y="959"/>
      <point x="1339" y="854"/>
      <point x="1339" y="648" type="curve" smooth="yes"/>
      <point x="1339" y="0" type="line"/>
      <point x="1634" y="0" type="line"/>
      <point x="1634" y="935" type="line"/>
      <point x="2131" y="935" type="line"/>
      <point x="2131" y="1189" type="line"/>
      <point x="1459" y="1189" type="line"/>
      <point x="1450" y="984" type="line"/>
      <point x="1442" y="984" type="line"/>
      <point x="1402" y="1126"/>
      <point x="1289" y="1224"/>
    </contour>
    <component base="RaBeak_Nonexporting" xOffset="1857"/>
  </outline>
</glyph>
<glyph name="LlaMatraUu.tm" format="2">
  <advance width="2914"/>
  <note>
LlaMatraUu.tm
</note>
  <outline>
    <contour>
      <point x="1373" y="1224" type="curve" smooth="yes"/>
      <point x="1029" y="1224"/>
      <point x="850" y="1008"/>
      <point x="850" y="602" type="curve" smooth="yes"/>
      <point x="850" y="339" type="line" smooth="yes"/>
      <point x="850" y="116"/>
      <point x="959" y="-26"/>
      <point x="1194" y="-26" type="curve" smooth="yes"/>
      <point x="1434" y="-26"/>
      <point x="1537" y="112"/>
      <point x="1537" y="329" type="curve" smooth="yes"/>
      <point x="1537" y="519" type="line" smooth="yes"/>
      <point x="1537" y="714"/>
      <point x="1480" y="817"/>
      <point x="1334" y="817" type="curve" smooth="yes"/>
      <point x="1208" y="817"/>
      <point x="1142" y="726"/>
      <point x="1134" y="624" type="curve"/>
      <point x="1122" y="624" type="line"/>
      <point x="1128" y="499" type="line"/>
      <point x="1132" y="539"/>
      <point x="1160" y="567"/>
      <point x="1194" y="567" type="curve" smooth="yes"/>
      <point x="1239" y="567"/>
      <point x="1252" y="537"/>
      <point x="1252" y="475" type="curve" smooth="yes"/>
      <point x="1252" y="315" type="line" smooth="yes"/>
      <point x="1252" y="250"/>
      <point x="1240" y="217"/>
      <point x="1194" y="217" type="curve" smooth="yes"/>
      <point x="1148" y="217"/>
      <point x="1136" y="250"/>
      <point x="1136" y="315" type="curve"/>
      <point x="1136" y="624" type="line"/>
      <point x="1125" y="624" type="line"/>
      <point x="1125" y="629"/>
      <point x="1125" y="629"/>
      <point x="1125" y="635" type="curve" smooth="yes"/>
      <point x="1125" y="854"/>
      <point x="1209" y="959"/>
      <point x="1399" y="959" type="curve" smooth="yes"/>
      <point x="1570" y="959"/>
      <point x="1647" y="854"/>
      <point x="1647" y="648" type="curve" smooth="yes"/>
      <point x="1647" y="0" type="line"/>
      <point x="1942" y="0" type="line"/>
      <point x="1942" y="935" type="line"/>
      <point x="2440" y="935" type="line"/>
      <point x="2440" y="1189" type="line"/>
      <point x="1767" y="1189" type="line"/>
      <point x="1758" y="984" type="line"/>
      <point x="1750" y="984" type="line"/>
      <point x="1710" y="1126"/>
      <point x="1597" y="1224"/>
    </contour>
    <contour>
      <point x="2088" y="1121" type="line"/>
      <point x="2088" y="0" type="line"/>
      <point x="2383" y="0" type="line"/>
      <point x="2383" y="1121" type="line"/>
    </contour>
    <contour>
      <point x="2608" y="817" type="curve" smooth="yes"/>
      <point x="2479" y="817"/>
      <point x="2407" y="745"/>
      <point x="2392" y="633" type="curve"/>
      <point x="2354" y="633" type="line"/>
      <point x="2354" y="462" type="line"/>
      <point x="2374" y="462" type="line"/>
      <point x="2380" y="524"/>
      <point x="2416" y="567"/>
      <point x="2464" y="567" type="curve" smooth="yes"/>
      <point x="2527" y="567"/>
      <point x="2545" y="526"/>
      <point x="2545" y="423" type="curve" smooth="yes"/>
      <point x="2545" y="337" type="line" smooth="yes"/>
      <point x="2545" y="-77"/>
      <point x="2358" y="-283"/>
      <point x="1625" y="-283" type="curve" smooth="yes"/>
      <point x="1451" y="-283" type="line" smooth="yes"/>
      <point x="589" y="-283"/>
      <point x="375" y="-26"/>
      <point x="367" y="526" type="curve" smooth="yes"/>
      <point x="366" y="598" type="line"/>
      <point x="366" y="863" type="line" smooth="yes"/>
      <point x="366" y="931"/>
      <point x="379" y="970"/>
      <point x="432" y="970" type="curve" smooth="yes"/>
      <point x="482" y="970"/>
      <point x="494" y="931"/>
      <point x="494" y="863" type="curve"/>
      <point x="494" y="679" type="line" smooth="yes"/>
      <point x="494" y="602"/>
      <point x="480" y="570"/>
      <point x="430" y="570" type="curve" smooth="yes"/>
      <point x="397" y="570"/>
      <point x="373" y="589"/>
      <point x="362" y="616" type="curve"/>
      <point x="356" y="616" type="line"/>
      <point x="356" y="526" type="line"/>
      <point x="375" y="526" type="line"/>
      <point x="412" y="329" type="line"/>
      <point x="441" y="322"/>
      <point x="471" y="318"/>
      <point x="507" y="318" type="curve" smooth="yes"/>
      <point x="704" y="318"/>
      <point x="778" y="458"/>
      <point x="778" y="688" type="curve" smooth="yes"/>
      <point x="778" y="856" type="line" smooth="yes"/>
      <point x="778" y="1078"/>
      <point x="686" y="1224"/>
      <point x="437" y="1224" type="curve" smooth="yes"/>
      <point x="192" y="1224"/>
      <point x="84" y="1093"/>
      <point x="78" y="824" type="curve" smooth="yes"/>
      <point x="73" y="605" type="line" smooth="yes"/>
      <point x="55" y="-204"/>
      <point x="432" y="-548"/>
      <point x="1462" y="-548" type="curve" smooth="yes"/>
      <point x="1614" y="-548" type="line" smooth="yes"/>
      <point x="2518" y="-548"/>
      <point x="2840" y="-250"/>
      <point x="2840" y="326" type="curve" smooth="yes"/>
      <point x="2840" y="445" type="line" smooth="yes"/>
      <point x="2840" y="692"/>
      <point x="2775" y="817"/>
    </contour>
    <component base="RaBeak_Nonexporting" xOffset="2165"/>
  </outline>
</glyph>
<glyph name="LllaMatraI.tm" format="2">
  <advance width="1838"/>
  <note>
LllaMatraI.tm
</note>
  <anchor x="696" y="1249" name="top"/>
  <outline>
    <contour>
      <point x="627" y="-648" type="curve" smooth="yes"/>
      <point x="883" y="-648"/>
      <point x="934" y="-526"/>
      <point x="986" y="-344" type="curve" smooth="yes"/>
      <point x="988" y="-337" type="line" smooth="yes"/>
      <point x="994" y="-315"/>
      <point x="999" y="-307"/>
      <point x="1018" y="-307" type="curve" smooth="yes"/>
      <point x="1126" y="-307" type="line"/>
      <point x="1156" y="-90" type="line"/>
      <point x="942" y="-90" type="line" smooth="yes"/>
      <point x="856" y="-90"/>
      <point x="835" y="-63"/>
      <point x="835" y="24" type="curve" smooth="yes"/>
      <point x="835" y="201" type="line"/>
      <point x="556" y="201" type="line"/>
      <point x="556" y="6" type="line" smooth="yes"/>
      <point x="556" y="-162"/>
      <point x="615" y="-250"/>
      <point x="738" y="-259" type="curve"/>
      <point x="738" y="-267" type="line"/>
      <point x="729" y="-274"/>
      <point x="724" y="-293"/>
      <point x="716" y="-322" type="curve" smooth="yes"/>
      <point x="714" y="-329" type="line" smooth="yes"/>
      <point x="696" y="-391"/>
      <point x="686" y="-425"/>
      <point x="629" y="-425" type="curve" smooth="yes"/>
      <point x="569" y="-425"/>
      <point x="543" y="-385"/>
      <point x="543" y="-302" type="curve" smooth="yes"/>
      <point x="543" y="-267"/>
      <point x="543" y="-234"/>
      <point x="543" y="-199" type="curve"/>
      <point x="265" y="-199" type="line"/>
      <point x="265" y="-228"/>
      <point x="265" y="-258"/>
      <point x="265" y="-287" type="curve" smooth="yes"/>
      <point x="265" y="-512"/>
      <point x="375" y="-648"/>
    </contour>
    <component base="MaMatraI.tm"/>
  </outline>
</glyph>
<glyph name="LllaMatraI_Fly.tm" format="2">
  <advance width="1371"/>
  <note>
LllaMatraI.tm
</note>
  <anchor x="696" y="1249" name="top"/>
  <outline>
    <contour>
      <point x="627" y="-648" type="curve" smooth="yes"/>
      <point x="883" y="-648"/>
      <point x="940" y="-528"/>
      <point x="986" y="-344" type="curve" smooth="yes"/>
      <point x="988" y="-337" type="line" smooth="yes"/>
      <point x="994" y="-315"/>
      <point x="999" y="-307"/>
      <point x="1018" y="-307" type="curve" smooth="yes"/>
      <point x="1126" y="-307" type="line"/>
      <point x="1156" y="-90" type="line"/>
      <point x="942" y="-90" type="line" smooth="yes"/>
      <point x="856" y="-90"/>
      <point x="835" y="-63"/>
      <point x="835" y="24" type="curve" smooth="yes"/>
      <point x="835" y="201" type="line"/>
      <point x="556" y="201" type="line"/>
      <point x="556" y="6" type="line" smooth="yes"/>
      <point x="556" y="-162"/>
      <point x="615" y="-250"/>
      <point x="738" y="-259" type="curve"/>
      <point x="738" y="-267" type="line"/>
      <point x="729" y="-274"/>
      <point x="723" y="-293"/>
      <point x="716" y="-322" type="curve" smooth="yes"/>
      <point x="714" y="-329" type="line" smooth="yes"/>
      <point x="699" y="-392"/>
      <point x="686" y="-425"/>
      <point x="629" y="-425" type="curve" smooth="yes"/>
      <point x="569" y="-425"/>
      <point x="543" y="-385"/>
      <point x="543" y="-302" type="curve" smooth="yes"/>
      <point x="543" y="-254"/>
      <point x="543" y="-210"/>
      <point x="543" y="-162" type="curve"/>
      <point x="265" y="-162" type="line"/>
      <point x="265" y="-204"/>
      <point x="265" y="-245"/>
      <point x="265" y="-287" type="curve" smooth="yes"/>
      <point x="265" y="-512"/>
      <point x="375" y="-648"/>
    </contour>
    <component base="MaMatraI_Fly.tm"/>
  </outline>
</glyph>
<glyph name="LllaMatraUu.tm" format="2">
  <advance width="2149"/>
  <note>
LllaMatraUu.tm
</note>
  <anchor x="1474" y="1249" name="top"/>
  <outline>
    <contour>
      <point x="1014" y="-407" type="curve" smooth="yes"/>
      <point x="543" y="-407"/>
      <point x="366" y="-158"/>
      <point x="366" y="368" type="curve" smooth="yes"/>
      <point x="366" y="420"/>
      <point x="366" y="474"/>
      <point x="366" y="526" type="curve"/>
      <point x="366" y="863" type="line"/>
      <point x="366" y="931"/>
      <point x="379" y="970"/>
      <point x="433" y="970" type="curve" smooth="yes"/>
      <point x="482" y="970"/>
      <point x="495" y="931"/>
      <point x="495" y="863" type="curve"/>
      <point x="495" y="679" type="line" smooth="yes"/>
      <point x="495" y="602"/>
      <point x="480" y="570"/>
      <point x="431" y="570" type="curve" smooth="yes"/>
      <point x="398" y="570"/>
      <point x="374" y="589"/>
      <point x="363" y="616" type="curve"/>
      <point x="357" y="616" type="line"/>
      <point x="357" y="526" type="line"/>
      <point x="376" y="526" type="line"/>
      <point x="412" y="329" type="line"/>
      <point x="442" y="322"/>
      <point x="471" y="318"/>
      <point x="508" y="318" type="curve" smooth="yes"/>
      <point x="705" y="318"/>
      <point x="778" y="458"/>
      <point x="778" y="688" type="curve" smooth="yes"/>
      <point x="778" y="856" type="line" smooth="yes"/>
      <point x="778" y="1078"/>
      <point x="686" y="1224"/>
      <point x="438" y="1224" type="curve" smooth="yes"/>
      <point x="197" y="1224"/>
      <point x="76" y="1093"/>
      <point x="76" y="824" type="curve" smooth="yes"/>
      <point x="76" y="384" type="line" smooth="yes"/>
      <point x="76" y="-344"/>
      <point x="372" y="-664"/>
      <point x="1005" y="-664" type="curve" smooth="yes"/>
      <point x="1365" y="-664"/>
      <point x="1567" y="-571"/>
      <point x="1788" y="-350" type="curve" smooth="yes"/>
      <point x="1803" y="-335" type="line" smooth="yes"/>
      <point x="1823" y="-315"/>
      <point x="1834" y="-307"/>
      <point x="1867" y="-307" type="curve" smooth="yes"/>
      <point x="1941" y="-307" type="line"/>
      <point x="1971" y="-90" type="line"/>
      <point x="1721" y="-90" type="line" smooth="yes"/>
      <point x="1634" y="-90"/>
      <point x="1614" y="-63"/>
      <point x="1614" y="24" type="curve" smooth="yes"/>
      <point x="1614" y="201" type="line"/>
      <point x="1334" y="201" type="line"/>
      <point x="1334" y="6" type="line" smooth="yes"/>
      <point x="1334" y="-155"/>
      <point x="1383" y="-243"/>
      <point x="1487" y="-259" type="curve"/>
      <point x="1487" y="-267" type="line"/>
      <point x="1476" y="-270"/>
      <point x="1468" y="-275"/>
      <point x="1450" y="-287" type="curve" smooth="yes"/>
      <point x="1444" y="-291" type="line" smooth="yes"/>
      <point x="1344" y="-358"/>
      <point x="1209" y="-407"/>
    </contour>
    <component base="Ma.tm" xOffset="778"/>
  </outline>
</glyph>
<glyph name="MaMatraI.tm" format="2">
  <advance width="1838"/>
  <note>
MaMatraI.tm
</note>
  <anchor x="696" y="1249" name="top"/>
  <outline>
    <contour>
      <point x="1279" y="1781" type="curve" smooth="yes"/>
      <point x="970" y="1781"/>
      <point x="815" y="1602"/>
      <point x="815" y="1320" type="curve" smooth="yes"/>
      <point x="815" y="1266" type="line" smooth="yes"/>
      <point x="815" y="1227"/>
      <point x="822" y="1191"/>
      <point x="845" y="1169" type="curve"/>
      <point x="1136" y="1130" type="line"/>
      <point x="1109" y="1153"/>
      <point x="1101" y="1174"/>
      <point x="1101" y="1229" type="curve" smooth="yes"/>
      <point x="1101" y="1282" type="line" smooth="yes"/>
      <point x="1101" y="1446"/>
      <point x="1158" y="1520"/>
      <point x="1279" y="1520" type="curve" smooth="yes"/>
      <point x="1401" y="1520"/>
      <point x="1451" y="1450"/>
      <point x="1451" y="1282" type="curve" smooth="yes"/>
      <point x="1451" y="0" type="line"/>
      <point x="1746" y="0" type="line"/>
      <point x="1746" y="1304" type="line" smooth="yes"/>
      <point x="1745" y="1602"/>
      <point x="1612" y="1781"/>
    </contour>
    <component base="Ma.tm"/>
  </outline>
</glyph>
<glyph name="MaMatraI_Fly.tm" format="2">
  <advance width="1371"/>
  <note>
MaMatraI.tm
</note>
  <anchor x="696" y="1249" name="top"/>
  <outline>
    <contour>
      <point x="1302" y="1625" type="line"/>
      <point x="1014" y="1625" type="line" smooth="yes"/>
      <point x="818" y="1625"/>
      <point x="732" y="1553"/>
      <point x="732" y="1411" type="curve" smooth="yes"/>
      <point x="732" y="1329"/>
      <point x="747" y="1289"/>
      <point x="812" y="1159" type="curve"/>
      <point x="1081" y="1159" type="line"/>
      <point x="1046" y="1212"/>
      <point x="1019" y="1280"/>
      <point x="1019" y="1317" type="curve" smooth="yes"/>
      <point x="1019" y="1356"/>
      <point x="1037" y="1371"/>
      <point x="1091" y="1371" type="curve" smooth="yes"/>
      <point x="1336" y="1371" type="line"/>
    </contour>
    <component base="Ma.tm"/>
  </outline>
</glyph>
<glyph name="MaMatraIi.tm" format="2">
  <advance width="1371"/>
  <note>
MaMatraIi.tm
</note>
  <anchor x="696" y="1249" name="top"/>
  <outline>
    <contour>
      <point x="1264" y="1989" type="curve" smooth="yes"/>
      <point x="928" y="1989"/>
      <point x="786" y="1807"/>
      <point x="786" y="1514" type="curve" smooth="yes"/>
      <point x="786" y="1326" type="line" smooth="yes"/>
      <point x="786" y="1253"/>
      <point x="799" y="1193"/>
      <point x="846" y="1166" type="curve"/>
      <point x="1106" y="1146" type="line"/>
      <point x="1067" y="1170"/>
      <point x="1056" y="1207"/>
      <point x="1056" y="1275" type="curve" smooth="yes"/>
      <point x="1056" y="1498" type="line" smooth="yes"/>
      <point x="1056" y="1674"/>
      <point x="1117" y="1757"/>
      <point x="1250" y="1763" type="curve"/>
      <point x="1250" y="1752" type="line"/>
      <point x="1277" y="1757"/>
      <point x="1301" y="1761"/>
      <point x="1329" y="1761" type="curve" smooth="yes"/>
      <point x="1408" y="1761"/>
      <point x="1434" y="1717"/>
      <point x="1434" y="1632" type="curve" smooth="yes"/>
      <point x="1434" y="1529" type="line" smooth="yes"/>
      <point x="1434" y="1483"/>
      <point x="1423" y="1457"/>
      <point x="1390" y="1457" type="curve" smooth="yes"/>
      <point x="1355" y="1457"/>
      <point x="1344" y="1483"/>
      <point x="1344" y="1529" type="curve" smooth="yes"/>
      <point x="1344" y="1652" type="line" smooth="yes"/>
      <point x="1344" y="1702"/>
      <point x="1351" y="1739"/>
      <point x="1377" y="1766" type="curve"/>
      <point x="1250" y="1766" type="line"/>
      <point x="1250" y="1754" type="line"/>
      <point x="1146" y="1715"/>
      <point x="1114" y="1654"/>
      <point x="1114" y="1554" type="curve" smooth="yes"/>
      <point x="1114" y="1526" type="line" smooth="yes"/>
      <point x="1114" y="1361"/>
      <point x="1197" y="1266"/>
      <point x="1390" y="1266" type="curve" smooth="yes"/>
      <point x="1599" y="1266"/>
      <point x="1688" y="1372"/>
      <point x="1688" y="1553" type="curve" smooth="yes"/>
      <point x="1688" y="1601" type="line" smooth="yes"/>
      <point x="1688" y="1840"/>
      <point x="1574" y="1989"/>
    </contour>
    <component base="Ma.tm"/>
  </outline>
</glyph>
<glyph name="MaMatraUu.tm" format="2">
  <advance width="2149"/>
  <note>
MaMatraUu.tm
</note>
  <anchor x="1474" y="1249" name="top"/>
  <outline>
    <contour>
      <point x="438" y="1224" type="curve" smooth="yes"/>
      <point x="197" y="1224"/>
      <point x="76" y="1093"/>
      <point x="76" y="824" type="curve" smooth="yes"/>
      <point x="76" y="410" type="line" smooth="yes"/>
      <point x="76" y="-256"/>
      <point x="364" y="-537"/>
      <point x="902" y="-537" type="curve" smooth="yes"/>
      <point x="909" y="-537" type="line" smooth="yes"/>
      <point x="1422" y="-537"/>
      <point x="1621" y="-309"/>
      <point x="1621" y="96" type="curve" smooth="yes"/>
      <point x="1621" y="226" type="line"/>
      <point x="1330" y="226" type="line"/>
      <point x="1330" y="101" type="line" smooth="yes"/>
      <point x="1330" y="-149"/>
      <point x="1224" y="-280"/>
      <point x="913" y="-280" type="curve" smooth="yes"/>
      <point x="898" y="-280" type="line" smooth="yes"/>
      <point x="523" y="-280"/>
      <point x="366" y="-68"/>
      <point x="366" y="385" type="curve" smooth="yes"/>
      <point x="366" y="432"/>
      <point x="366" y="478"/>
      <point x="366" y="526" type="curve" smooth="yes"/>
      <point x="366" y="863" type="line" smooth="yes"/>
      <point x="366" y="931"/>
      <point x="379" y="970"/>
      <point x="433" y="970" type="curve" smooth="yes"/>
      <point x="482" y="970"/>
      <point x="495" y="931"/>
      <point x="495" y="863" type="curve"/>
      <point x="495" y="679" type="line" smooth="yes"/>
      <point x="495" y="602"/>
      <point x="480" y="570"/>
      <point x="431" y="570" type="curve" smooth="yes"/>
      <point x="398" y="570"/>
      <point x="374" y="589"/>
      <point x="363" y="616" type="curve"/>
      <point x="357" y="616" type="line"/>
      <point x="357" y="526" type="line"/>
      <point x="376" y="526" type="line"/>
      <point x="412" y="329" type="line"/>
      <point x="442" y="322"/>
      <point x="471" y="318"/>
      <point x="508" y="318" type="curve" smooth="yes"/>
      <point x="705" y="318"/>
      <point x="778" y="458"/>
      <point x="778" y="688" type="curve" smooth="yes"/>
      <point x="778" y="856" type="line" smooth="yes"/>
      <point x="778" y="1078"/>
      <point x="686" y="1224"/>
    </contour>
    <component base="Ma.tm" xOffset="778"/>
  </outline>
</glyph>
<glyph name="MatraAiComponent_Nonexporting" format="2">
  <advance width="1150"/>
  <outline>
    <contour>
      <point x="561" y="1585" type="curve" smooth="yes"/>
      <point x="193" y="1585"/>
      <point x="59" y="1430"/>
      <point x="59" y="1184" type="curve" smooth="yes"/>
      <point x="59" y="1093" type="line" smooth="yes"/>
      <point x="59" y="895"/>
      <point x="156" y="777"/>
      <point x="385" y="777" type="curve" smooth="yes"/>
      <point x="592" y="777"/>
      <point x="683" y="887"/>
      <point x="683" y="1077" type="curve" smooth="yes"/>
      <point x="683" y="1147" type="line" smooth="yes"/>
      <point x="683" y="1253"/>
      <point x="655" y="1329"/>
      <point x="550" y="1356" type="curve"/>
      <point x="550" y="1370" type="line"/>
      <point x="420" y="1362" type="line"/>
      <point x="433" y="1331"/>
      <point x="436" y="1290"/>
      <point x="436" y="1235" type="curve" smooth="yes"/>
      <point x="436" y="1070" type="line" smooth="yes"/>
      <point x="436" y="1016"/>
      <point x="423" y="987"/>
      <point x="385" y="987" type="curve" smooth="yes"/>
      <point x="348" y="987"/>
      <point x="335" y="1016"/>
      <point x="335" y="1070" type="curve" smooth="yes"/>
      <point x="335" y="1215" type="line" smooth="yes"/>
      <point x="335" y="1309"/>
      <point x="364" y="1357"/>
      <point x="461" y="1357" type="curve" smooth="yes"/>
      <point x="491" y="1357"/>
      <point x="518" y="1357"/>
      <point x="550" y="1353" type="curve"/>
      <point x="550" y="1364" type="line"/>
      <point x="702" y="1362"/>
      <point x="760" y="1274"/>
      <point x="760" y="1093" type="curve" smooth="yes"/>
      <point x="760" y="1003" type="line" smooth="yes"/>
      <point x="760" y="865"/>
      <point x="727" y="784"/>
      <point x="567" y="736" type="curve" smooth="yes"/>
      <point x="414" y="690" type="line" smooth="yes"/>
      <point x="148" y="610"/>
      <point x="55" y="527"/>
      <point x="55" y="335" type="curve" smooth="yes"/>
      <point x="55" y="309" type="line" smooth="yes"/>
      <point x="55" y="91"/>
      <point x="199" y="-33"/>
      <point x="504" y="-33" type="curve" smooth="yes"/>
      <point x="727" y="-33"/>
      <point x="946" y="26"/>
      <point x="1150" y="112" type="curve"/>
      <point x="1150" y="392" type="line"/>
      <point x="927" y="296"/>
      <point x="707" y="224"/>
      <point x="504" y="224" type="curve" smooth="yes"/>
      <point x="383" y="224"/>
      <point x="340" y="262"/>
      <point x="340" y="317" type="curve" smooth="yes"/>
      <point x="340" y="328" type="line" smooth="yes"/>
      <point x="340" y="398"/>
      <point x="392" y="420"/>
      <point x="512" y="460" type="curve" smooth="yes"/>
      <point x="675" y="514" type="line" smooth="yes"/>
      <point x="993" y="619"/>
      <point x="1054" y="759"/>
      <point x="1054" y="1038" type="curve" smooth="yes"/>
      <point x="1054" y="1104" type="line" smooth="yes"/>
      <point x="1054" y="1401"/>
      <point x="918" y="1585"/>
    </contour>
  </outline>
</glyph>
<glyph name="MatraE_Simple.tm" format="2">
  <advance width="1238"/>
  <note>
MatraE.tm
</note>
  <outline>
    <contour>
      <point x="629" y="1372" type="curve" smooth="yes"/>
      <point x="267" y="1372"/>
      <point x="74" y="1157"/>
      <point x="74" y="750" type="curve" smooth="yes"/>
      <point x="74" y="339" type="line" smooth="yes"/>
      <point x="74" y="116"/>
      <point x="182" y="-26"/>
      <point x="418" y="-26" type="curve" smooth="yes"/>
      <point x="659" y="-26"/>
      <point x="760" y="112"/>
      <point x="760" y="329" type="curve" smooth="yes"/>
      <point x="760" y="519" type="line" smooth="yes"/>
      <point x="760" y="714"/>
      <point x="703" y="817"/>
      <point x="557" y="817" type="curve" smooth="yes"/>
      <point x="431" y="817"/>
      <point x="365" y="726"/>
      <point x="357" y="624" type="curve"/>
      <point x="345" y="624" type="line"/>
      <point x="351" y="499" type="line"/>
      <point x="355" y="539"/>
      <point x="383" y="567"/>
      <point x="417" y="567" type="curve" smooth="yes"/>
      <point x="462" y="567"/>
      <point x="475" y="537"/>
      <point x="475" y="475" type="curve" smooth="yes"/>
      <point x="475" y="315" type="line" smooth="yes"/>
      <point x="475" y="250"/>
      <point x="464" y="217"/>
      <point x="418" y="217" type="curve" smooth="yes"/>
      <point x="372" y="217"/>
      <point x="359" y="250"/>
      <point x="359" y="315" type="curve" smooth="yes"/>
      <point x="359" y="624" type="line"/>
      <point x="348" y="624" type="line"/>
      <point x="348" y="678"/>
      <point x="348" y="730"/>
      <point x="348" y="784" type="curve" smooth="yes"/>
      <point x="348" y="1003"/>
      <point x="432" y="1107"/>
      <point x="620" y="1107" type="curve" smooth="yes"/>
      <point x="808" y="1107"/>
      <point x="874" y="1003"/>
      <point x="874" y="784" type="curve" smooth="yes"/>
      <point x="874" y="0" type="line"/>
      <point x="1150" y="0" type="line"/>
      <point x="1150" y="750" type="line" smooth="yes"/>
      <point x="1150" y="1157"/>
      <point x="1001" y="1372"/>
    </contour>
  </outline>
</glyph>
<glyph name="MatraEe_Fused.tm" format="2">
  <advance width="1171"/>
  <note>
MatraEe.tm
</note>
  <outline>
    <contour>
      <point x="643" y="1483" type="curve" smooth="yes"/>
      <point x="245" y="1483"/>
      <point x="80" y="1263"/>
      <point x="80" y="909" type="curve" smooth="yes"/>
      <point x="80" y="556" type="line"/>
      <point x="80" y="202"/>
      <point x="245" y="-18"/>
      <point x="643" y="-18" type="curve" smooth="yes"/>
      <point x="978" y="-18"/>
      <point x="1101" y="140"/>
      <point x="1101" y="392" type="curve" smooth="yes"/>
      <point x="1101" y="480" type="line" smooth="yes"/>
      <point x="1101" y="646"/>
      <point x="1009" y="754"/>
      <point x="818" y="754" type="curve"/>
      <point x="762" y="754" type="line"/>
      <point x="573" y="754"/>
      <point x="477" y="646"/>
      <point x="477" y="480" type="curve" smooth="yes"/>
      <point x="477" y="423" type="line" smooth="yes"/>
      <point x="477" y="319"/>
      <point x="510" y="257"/>
      <point x="619" y="217" type="curve"/>
      <point x="619" y="202" type="line"/>
      <point x="764" y="204" type="line"/>
      <point x="739" y="232"/>
      <point x="731" y="265"/>
      <point x="731" y="311" type="curve" smooth="yes"/>
      <point x="731" y="506" type="line" smooth="yes"/>
      <point x="731" y="554"/>
      <point x="744" y="581"/>
      <point x="781" y="581" type="curve" smooth="yes"/>
      <point x="818" y="581"/>
      <point x="829" y="554"/>
      <point x="829" y="506" type="curve" smooth="yes"/>
      <point x="829" y="331" type="line" smooth="yes"/>
      <point x="829" y="252"/>
      <point x="805" y="210"/>
      <point x="716" y="210" type="curve" smooth="yes"/>
      <point x="681" y="210"/>
      <point x="654" y="213"/>
      <point x="619" y="219" type="curve"/>
      <point x="619" y="208" type="line"/>
      <point x="448" y="215"/>
      <point x="371" y="331"/>
      <point x="371" y="517" type="curve"/>
      <point x="371" y="948" type="line" smooth="yes"/>
      <point x="371" y="1134"/>
      <point x="448" y="1250"/>
      <point x="619" y="1257" type="curve"/>
      <point x="619" y="1246" type="line"/>
      <point x="654" y="1252"/>
      <point x="681" y="1255"/>
      <point x="716" y="1255" type="curve" smooth="yes"/>
      <point x="805" y="1255"/>
      <point x="829" y="1213"/>
      <point x="829" y="1134" type="curve" smooth="yes"/>
      <point x="829" y="959" type="line" smooth="yes"/>
      <point x="829" y="911"/>
      <point x="818" y="884"/>
      <point x="781" y="884" type="curve" smooth="yes"/>
      <point x="744" y="884"/>
      <point x="731" y="911"/>
      <point x="731" y="959" type="curve" smooth="yes"/>
      <point x="731" y="1154" type="line" smooth="yes"/>
      <point x="731" y="1200"/>
      <point x="739" y="1233"/>
      <point x="764" y="1261" type="curve"/>
      <point x="619" y="1263" type="line"/>
      <point x="619" y="1248" type="line"/>
      <point x="510" y="1208"/>
      <point x="477" y="1146"/>
      <point x="477" y="1042" type="curve" smooth="yes"/>
      <point x="477" y="985" type="line" smooth="yes"/>
      <point x="477" y="818"/>
      <point x="573" y="710"/>
      <point x="762" y="710" type="curve"/>
      <point x="818" y="710" type="line"/>
      <point x="1009" y="710"/>
      <point x="1101" y="818"/>
      <point x="1101" y="985" type="curve" smooth="yes"/>
      <point x="1101" y="1073" type="line" smooth="yes"/>
      <point x="1101" y="1325"/>
      <point x="978" y="1483"/>
    </contour>
  </outline>
</glyph>
<glyph name="MatraIDflt_Fly.tm" format="2">
  <note>
MatraIDflt.tm
</note>
  <outline>
    <contour>
      <point x="570" y="1625" type="line"/>
      <point x="282" y="1625" type="line" smooth="yes"/>
      <point x="86" y="1625"/>
      <point x="0" y="1553"/>
      <point x="0" y="1411" type="curve" smooth="yes"/>
      <point x="0" y="1341"/>
      <point x="12" y="1304"/>
      <point x="63" y="1176" type="curve"/>
      <point x="337" y="1176" type="line"/>
      <point x="309" y="1218"/>
      <point x="287" y="1280"/>
      <point x="287" y="1317" type="curve" smooth="yes"/>
      <point x="287" y="1356"/>
      <point x="305" y="1371"/>
      <point x="359" y="1371" type="curve" smooth="yes"/>
      <point x="604" y="1371" type="line"/>
    </contour>
  </outline>
</glyph>
<glyph name="MatraIiDflt_SimpleIi.tm" format="2">
  <note>
MatraIiDflt.tm
</note>
  <outline>
    <contour>
      <point x="335" y="1910" type="curve" smooth="yes"/>
      <point x="104" y="1910"/>
      <point x="0" y="1776"/>
      <point x="0" y="1549" type="curve" smooth="yes"/>
      <point x="0" y="1326" type="line" smooth="yes"/>
      <point x="0" y="1257"/>
      <point x="12" y="1202"/>
      <point x="56" y="1176" type="curve"/>
      <point x="332" y="1176" type="line"/>
      <point x="294" y="1204"/>
      <point x="282" y="1236"/>
      <point x="282" y="1299" type="curve" smooth="yes"/>
      <point x="282" y="1478" type="line"/>
      <point x="282" y="1612" type="line" smooth="yes"/>
      <point x="282" y="1656"/>
      <point x="298" y="1680"/>
      <point x="335" y="1680" type="curve" smooth="yes"/>
      <point x="370" y="1680"/>
      <point x="385" y="1656"/>
      <point x="385" y="1612" type="curve" smooth="yes"/>
      <point x="385" y="1522" type="line" smooth="yes"/>
      <point x="385" y="1479"/>
      <point x="372" y="1457"/>
      <point x="335" y="1457" type="curve" smooth="yes"/>
      <point x="313" y="1457"/>
      <point x="289" y="1470"/>
      <point x="280" y="1492" type="curve"/>
      <point x="270" y="1492" type="line"/>
      <point x="280" y="1408" type="line"/>
      <point x="298" y="1408" type="line"/>
      <point x="333" y="1292" type="line"/>
      <point x="363" y="1268"/>
      <point x="413" y="1253"/>
      <point x="468" y="1253" type="curve" smooth="yes"/>
      <point x="596" y="1253"/>
      <point x="661" y="1338"/>
      <point x="661" y="1511" type="curve" smooth="yes"/>
      <point x="661" y="1584" type="line" smooth="yes"/>
      <point x="661" y="1788"/>
      <point x="566" y="1910"/>
    </contour>
  </outline>
</glyph>
<glyph name="NaMatraI.tm" format="2">
  <advance width="1347"/>
  <note>
NaMatraI.tm
</note>
  <outline>
    <contour>
      <point x="536" y="1121" type="line"/>
      <point x="536" y="0" type="line"/>
      <point x="830" y="0" type="line"/>
      <point x="830" y="1121" type="line"/>
    </contour>
    <contour>
      <point x="1047" y="817" type="curve" smooth="yes"/>
      <point x="922" y="817"/>
      <point x="854" y="738"/>
      <point x="840" y="633" type="curve"/>
      <point x="801" y="633" type="line"/>
      <point x="801" y="466" type="line"/>
      <point x="821" y="466" type="line"/>
      <point x="827" y="526"/>
      <point x="863" y="567"/>
      <point x="909" y="567" type="curve" smooth="yes"/>
      <point x="966" y="567"/>
      <point x="985" y="528"/>
      <point x="985" y="427" type="curve" smooth="yes"/>
      <point x="985" y="197" type="line" smooth="yes"/>
      <point x="985" y="-50"/>
      <point x="902" y="-136"/>
      <point x="690" y="-136" type="curve" smooth="yes"/>
      <point x="368" y="-136" type="line"/>
      <point x="399" y="-390" type="line"/>
      <point x="709" y="-390" type="line" smooth="yes"/>
      <point x="1141" y="-390"/>
      <point x="1279" y="-226"/>
      <point x="1279" y="210" type="curve" smooth="yes"/>
      <point x="1279" y="473" type="line" smooth="yes"/>
      <point x="1279" y="701"/>
      <point x="1217" y="817"/>
    </contour>
    <contour>
      <point x="904" y="1189" type="line"/>
      <point x="92" y="1189" type="line"/>
      <point x="92" y="0" type="line"/>
      <point x="386" y="0" type="line"/>
      <point x="386" y="935" type="line"/>
      <point x="904" y="935" type="line"/>
    </contour>
    <contour>
      <point x="912" y="1781" type="curve" smooth="yes"/>
      <point x="639" y="1781"/>
      <point x="514" y="1635"/>
      <point x="514" y="1365" type="curve" smooth="yes"/>
      <point x="514" y="1306" type="line" smooth="yes"/>
      <point x="514" y="1254"/>
      <point x="527" y="1204"/>
      <point x="560" y="1176" type="curve"/>
      <point x="830" y="1176" type="line"/>
      <point x="807" y="1204"/>
      <point x="800" y="1236"/>
      <point x="800" y="1299" type="curve"/>
      <point x="800" y="1358" type="line"/>
      <point x="800" y="1473"/>
      <point x="828" y="1525"/>
      <point x="909" y="1525" type="curve" smooth="yes"/>
      <point x="988" y="1525"/>
      <point x="1013" y="1473"/>
      <point x="1013" y="1358" type="curve" smooth="yes"/>
      <point x="1013" y="881" type="line"/>
      <point x="1297" y="881" type="line"/>
      <point x="1297" y="1345" type="line" smooth="yes"/>
      <point x="1297" y="1635"/>
      <point x="1185" y="1781"/>
    </contour>
    <component base="Tail_NonExporting" xOffset="-37"/>
    <component base="RaBeak_Nonexporting" xOffset="428"/>
  </outline>
</glyph>
<glyph name="NaMatraU_Simple.tm" format="2">
  <advance width="1828"/>
  <note>
NaMatraU.tm
</note>
  <outline>
    <contour>
      <point x="537" y="1121" type="line"/>
      <point x="537" y="0" type="line"/>
      <point x="832" y="0" type="line"/>
      <point x="832" y="1121" type="line"/>
    </contour>
    <contour>
      <point x="1049" y="817" type="curve" smooth="yes"/>
      <point x="924" y="817"/>
      <point x="856" y="738"/>
      <point x="842" y="633" type="curve"/>
      <point x="803" y="633" type="line"/>
      <point x="803" y="466" type="line"/>
      <point x="823" y="466" type="line"/>
      <point x="829" y="526"/>
      <point x="865" y="567"/>
      <point x="911" y="567" type="curve" smooth="yes"/>
      <point x="968" y="567"/>
      <point x="987" y="528"/>
      <point x="987" y="427" type="curve" smooth="yes"/>
      <point x="987" y="197" type="line" smooth="yes"/>
      <point x="987" y="2"/>
      <point x="939" y="-136"/>
      <point x="713" y="-136" type="curve" smooth="yes"/>
      <point x="-2" y="-136" type="line"/>
      <point x="30" y="-390" type="line"/>
      <point x="1736" y="-390" type="line"/>
      <point x="1736" y="-136" type="line"/>
      <point x="1119" y="-136" type="line"/>
      <point x="1119" y="-127" type="line"/>
      <point x="1244" y="-105"/>
      <point x="1281" y="13"/>
      <point x="1281" y="201" type="curve" smooth="yes"/>
      <point x="1281" y="467" type="line" smooth="yes"/>
      <point x="1281" y="699"/>
      <point x="1221" y="817"/>
    </contour>
    <contour>
      <point x="1441" y="1189" type="line"/>
      <point x="1441" y="-217" type="line"/>
      <point x="1736" y="-217" type="line"/>
      <point x="1736" y="1189" type="line"/>
    </contour>
    <contour>
      <point x="905" y="1189" type="line"/>
      <point x="92" y="1189" type="line"/>
      <point x="92" y="0" type="line"/>
      <point x="387" y="0" type="line"/>
      <point x="387" y="935" type="line"/>
      <point x="905" y="935" type="line"/>
    </contour>
    <component base="RaBeak_Nonexporting" xOffset="618"/>
  </outline>
</glyph>
<glyph name="NgaMatraI.tm" format="2">
  <advance width="2399"/>
  <note>
NgaMatraI.tm
</note>
  <outline>
    <contour>
      <point x="545" y="1121" type="line"/>
      <point x="545" y="0" type="line"/>
      <point x="840" y="0" type="line"/>
      <point x="840" y="1121" type="line"/>
    </contour>
    <contour>
      <point x="1051" y="817" type="curve" smooth="yes"/>
      <point x="917" y="817"/>
      <point x="862" y="732"/>
      <point x="849" y="638" type="curve"/>
      <point x="831" y="638" type="line"/>
      <point x="831" y="472" type="line"/>
      <point x="836" y="472" type="line"/>
      <point x="840" y="526"/>
      <point x="870" y="559"/>
      <point x="911" y="559" type="curve" smooth="yes"/>
      <point x="965" y="559"/>
      <point x="981" y="524"/>
      <point x="981" y="448" type="curve" smooth="yes"/>
      <point x="981" y="318" type="line" smooth="yes"/>
      <point x="981" y="188"/>
      <point x="964" y="103"/>
      <point x="916" y="17" type="curve"/>
      <point x="916" y="0" type="line"/>
      <point x="1725" y="0" type="line"/>
      <point x="1725" y="258" type="line"/>
      <point x="1207" y="258" type="line"/>
      <point x="1214" y="169" type="line"/>
      <point x="1257" y="230"/>
      <point x="1268" y="274"/>
      <point x="1268" y="385" type="curve" smooth="yes"/>
      <point x="1268" y="509" type="line" smooth="yes"/>
      <point x="1268" y="712"/>
      <point x="1208" y="817"/>
    </contour>
    <contour>
      <point x="1539" y="1189" type="line"/>
      <point x="1539" y="0" type="line"/>
      <point x="1834" y="0" type="line"/>
      <point x="1834" y="1189" type="line"/>
    </contour>
    <contour>
      <point x="1735" y="1781" type="curve" smooth="yes"/>
      <point x="1353" y="1781"/>
      <point x="1158" y="1564"/>
      <point x="1158" y="1196" type="curve" smooth="yes"/>
      <point x="1158" y="1148" type="line" smooth="yes"/>
      <point x="1158" y="868"/>
      <point x="1266" y="710"/>
      <point x="1549" y="682" type="curve"/>
      <point x="1549" y="960" type="line"/>
      <point x="1470" y="968"/>
      <point x="1448" y="1040"/>
      <point x="1448" y="1124" type="curve" smooth="yes"/>
      <point x="1448" y="1190" type="line" smooth="yes"/>
      <point x="1448" y="1402"/>
      <point x="1528" y="1519"/>
      <point x="1735" y="1519" type="curve" smooth="yes"/>
      <point x="1941" y="1519"/>
      <point x="2012" y="1403"/>
      <point x="2012" y="1170" type="curve" smooth="yes"/>
      <point x="2012" y="0" type="line"/>
      <point x="2307" y="0" type="line"/>
      <point x="2307" y="1148" type="line" smooth="yes"/>
      <point x="2307" y="1547"/>
      <point x="2125" y="1781"/>
    </contour>
    <contour>
      <point x="859" y="1189" type="line"/>
      <point x="92" y="1189" type="line"/>
      <point x="92" y="0" type="line"/>
      <point x="387" y="0" type="line"/>
      <point x="387" y="935" type="line"/>
      <point x="859" y="935" type="line"/>
    </contour>
    <component base="RaBeak_Nonexporting" xOffset="554"/>
  </outline>
</glyph>
<glyph name="NgaMatraI_Fly.tm" format="2">
  <advance width="1849"/>
  <outline>
    <contour>
      <point x="545" y="1121" type="line"/>
      <point x="545" y="0" type="line"/>
      <point x="840" y="0" type="line"/>
      <point x="840" y="1121" type="line"/>
    </contour>
    <contour>
      <point x="1462" y="1189" type="line"/>
      <point x="1462" y="0" type="line"/>
      <point x="1757" y="0" type="line"/>
      <point x="1757" y="1189" type="line"/>
    </contour>
    <contour>
      <point x="882" y="1189" type="line"/>
      <point x="92" y="1189" type="line"/>
      <point x="92" y="0" type="line"/>
      <point x="387" y="0" type="line"/>
      <point x="387" y="935" type="line"/>
      <point x="882" y="935" type="line"/>
    </contour>
    <contour>
      <point x="1788" y="1625" type="line"/>
      <point x="1389" y="1625" type="line" smooth="yes"/>
      <point x="1166" y="1625"/>
      <point x="1067" y="1536"/>
      <point x="1067" y="1360" type="curve" smooth="yes"/>
      <point x="1067" y="1262"/>
      <point x="1104" y="1111"/>
      <point x="1124" y="1051" type="curve" smooth="yes"/>
      <point x="1174" y="900"/>
      <point x="1229" y="863"/>
      <point x="1404" y="863" type="curve" smooth="yes"/>
      <point x="1472" y="863" type="line"/>
      <point x="1472" y="1098" type="line"/>
      <point x="1455" y="1098" type="line" smooth="yes"/>
      <point x="1409" y="1098"/>
      <point x="1396" y="1113"/>
      <point x="1385" y="1157" type="curve" smooth="yes"/>
      <point x="1376" y="1196"/>
      <point x="1363" y="1270"/>
      <point x="1363" y="1312" type="curve" smooth="yes"/>
      <point x="1363" y="1354"/>
      <point x="1383" y="1371"/>
      <point x="1440" y="1371" type="curve" smooth="yes"/>
      <point x="1821" y="1371" type="line"/>
    </contour>
    <contour>
      <point x="1051" y="817" type="curve" smooth="yes"/>
      <point x="917" y="817"/>
      <point x="862" y="732"/>
      <point x="849" y="638" type="curve"/>
      <point x="831" y="638" type="line"/>
      <point x="831" y="474" type="line"/>
      <point x="836" y="474" type="line"/>
      <point x="840" y="526"/>
      <point x="870" y="559"/>
      <point x="911" y="559" type="curve" smooth="yes"/>
      <point x="965" y="559"/>
      <point x="981" y="525"/>
      <point x="981" y="450" type="curve" smooth="yes"/>
      <point x="981" y="318" type="line" smooth="yes"/>
      <point x="981" y="188"/>
      <point x="964" y="103"/>
      <point x="916" y="17" type="curve"/>
      <point x="916" y="0" type="line"/>
      <point x="1562" y="0" type="line"/>
      <point x="1562" y="250" type="line"/>
      <point x="1203" y="250" type="line"/>
      <point x="1211" y="169" type="line"/>
      <point x="1253" y="230"/>
      <point x="1264" y="274"/>
      <point x="1264" y="385" type="curve" smooth="yes"/>
      <point x="1264" y="515" type="line" smooth="yes"/>
      <point x="1264" y="715"/>
      <point x="1206" y="817"/>
    </contour>
    <component base="RaBeak_Nonexporting" xOffset="491"/>
  </outline>
</glyph>
<glyph name="NgaMatraUu_SimpleUu.tm" format="2">
  <advance width="2082"/>
  <note>
NgaMatraUu.tm
</note>
  <guideline x="185" y="518" angle="90"/>
  <guideline x="566" y="518" angle="90"/>
  <anchor x="991" y="1249" name="top"/>
  <outline>
    <contour>
      <point x="1373" y="401" type="line"/>
      <point x="1373" y="-276" type="line"/>
      <point x="1667" y="-276" type="line"/>
      <point x="1667" y="401" type="line"/>
    </contour>
    <contour>
      <point x="1877" y="311" type="curve" smooth="yes"/>
      <point x="1755" y="311"/>
      <point x="1691" y="236"/>
      <point x="1676" y="136" type="curve"/>
      <point x="1638" y="136" type="line"/>
      <point x="1638" y="-31" type="line"/>
      <point x="1656" y="-31" type="line"/>
      <point x="1661" y="24"/>
      <point x="1695" y="61"/>
      <point x="1737" y="61" type="curve" smooth="yes"/>
      <point x="1787" y="61"/>
      <point x="1803" y="24"/>
      <point x="1803" y="-64" type="curve" smooth="yes"/>
      <point x="1803" y="-138" type="line" smooth="yes"/>
      <point x="1803" y="-344"/>
      <point x="1724" y="-438"/>
      <point x="1536" y="-438" type="curve" smooth="yes"/>
      <point x="1349" y="-438"/>
      <point x="1270" y="-344"/>
      <point x="1270" y="-138" type="curve"/>
      <point x="1270" y="-64" type="line"/>
      <point x="975" y="-101" type="line"/>
      <point x="975" y="-149" type="line" smooth="yes"/>
      <point x="975" y="-504"/>
      <point x="1137" y="-697"/>
      <point x="1536" y="-697" type="curve" smooth="yes"/>
      <point x="1934" y="-697"/>
      <point x="2098" y="-504"/>
      <point x="2098" y="-149" type="curve" smooth="yes"/>
      <point x="2098" y="-20" type="line" smooth="yes"/>
      <point x="2098" y="202"/>
      <point x="2039" y="311"/>
    </contour>
    <component base="Nga.tm"/>
  </outline>
</glyph>
<glyph name="NnaMatraAa.tm" format="2">
  <advance width="3425"/>
  <outline>
    <contour>
      <point x="2104" y="1231" type="curve" smooth="yes"/>
      <point x="1843" y="1231"/>
      <point x="1674" y="1172"/>
      <point x="1558" y="1089" type="curve"/>
      <point x="1744" y="913" type="line"/>
      <point x="1823" y="951"/>
      <point x="1917" y="981"/>
      <point x="2104" y="981" type="curve" smooth="yes"/>
      <point x="2292" y="981"/>
      <point x="2386" y="951"/>
      <point x="2465" y="913" type="curve"/>
      <point x="2478" y="903" type="line"/>
      <point x="2555" y="859"/>
      <point x="2577" y="788"/>
      <point x="2577" y="640" type="curve" smooth="yes"/>
      <point x="2577" y="333" type="line" smooth="yes"/>
      <point x="2577" y="261"/>
      <point x="2559" y="232"/>
      <point x="2511" y="232" type="curve" smooth="yes"/>
      <point x="2461" y="232"/>
      <point x="2441" y="261"/>
      <point x="2441" y="331" type="curve" smooth="yes"/>
      <point x="2441" y="638" type="line" smooth="yes"/>
      <point x="2441" y="788"/>
      <point x="2463" y="859"/>
      <point x="2548" y="903" type="curve"/>
      <point x="2430" y="1069" type="line"/>
      <point x="2217" y="1003"/>
      <point x="2150" y="837"/>
      <point x="2150" y="620" type="curve" smooth="yes"/>
      <point x="2150" y="340" type="line" smooth="yes"/>
      <point x="2150" y="114"/>
      <point x="2261" y="-26"/>
      <point x="2511" y="-26" type="curve" smooth="yes"/>
      <point x="2759" y="-26"/>
      <point x="2868" y="109"/>
      <point x="2868" y="340" type="curve" smooth="yes"/>
      <point x="2868" y="620" type="line" smooth="yes"/>
      <point x="2868" y="839"/>
      <point x="2805" y="994"/>
      <point x="2634" y="1069" type="curve"/>
      <point x="2634" y="1091" type="line"/>
      <point x="2533" y="1172"/>
      <point x="2358" y="1231"/>
    </contour>
    <contour>
      <point x="2886" y="1231" type="curve" smooth="yes"/>
      <point x="2644" y="1231"/>
      <point x="2474" y="1159"/>
      <point x="2373" y="1069" type="curve"/>
      <point x="2563" y="911" type="line"/>
      <point x="2662" y="964"/>
      <point x="2767" y="986"/>
      <point x="2868" y="986" type="curve" smooth="yes"/>
      <point x="2993" y="986"/>
      <point x="3058" y="944"/>
      <point x="3058" y="819" type="curve" smooth="yes"/>
      <point x="3058" y="799" type="line" smooth="yes"/>
      <point x="3058" y="718"/>
      <point x="3039" y="673"/>
      <point x="2953" y="664" type="curve" smooth="yes"/>
      <point x="2923" y="661" type="line"/>
      <point x="2923" y="414" type="line"/>
      <point x="2962" y="410" type="line" smooth="yes"/>
      <point x="3039" y="402"/>
      <point x="3065" y="379"/>
      <point x="3065" y="287" type="curve" smooth="yes"/>
      <point x="3065" y="232" type="line" smooth="yes"/>
      <point x="3065" y="-138"/>
      <point x="2855" y="-320"/>
      <point x="2090" y="-320" type="curve" smooth="yes"/>
      <point x="1556" y="-320" type="line" smooth="yes"/>
      <point x="623" y="-320"/>
      <point x="377" y="-31"/>
      <point x="377" y="580" type="curve" smooth="yes"/>
      <point x="377" y="797"/>
      <point x="386" y="1003"/>
      <point x="395" y="1189" type="curve"/>
      <point x="101" y="1189" type="line"/>
      <point x="91" y="1032"/>
      <point x="82" y="813"/>
      <point x="82" y="569" type="curve" smooth="yes"/>
      <point x="82" y="-199"/>
      <point x="474" y="-585"/>
      <point x="1567" y="-585" type="curve" smooth="yes"/>
      <point x="2077" y="-585" type="line" smooth="yes"/>
      <point x="3005" y="-585"/>
      <point x="3355" y="-333"/>
      <point x="3355" y="215" type="curve" smooth="yes"/>
      <point x="3355" y="280" type="line" smooth="yes"/>
      <point x="3355" y="462"/>
      <point x="3307" y="535"/>
      <point x="3153" y="546" type="curve"/>
      <point x="3153" y="556" type="line"/>
      <point x="3306" y="565"/>
      <point x="3348" y="679"/>
      <point x="3348" y="835" type="curve" smooth="yes"/>
      <point x="3348" y="852" type="line" smooth="yes"/>
      <point x="3348" y="1113"/>
      <point x="3211" y="1231"/>
    </contour>
    <contour>
      <point x="1289" y="1231" type="curve" smooth="yes"/>
      <point x="802" y="1231"/>
      <point x="540" y="1008"/>
      <point x="540" y="583" type="curve" smooth="yes"/>
      <point x="540" y="339" type="line" smooth="yes"/>
      <point x="540" y="116"/>
      <point x="649" y="-26"/>
      <point x="884" y="-26" type="curve" smooth="yes"/>
      <point x="1124" y="-26"/>
      <point x="1227" y="112"/>
      <point x="1227" y="329" type="curve" smooth="yes"/>
      <point x="1227" y="519" type="line" smooth="yes"/>
      <point x="1227" y="714"/>
      <point x="1170" y="817"/>
      <point x="1024" y="817" type="curve" smooth="yes"/>
      <point x="898" y="817"/>
      <point x="832" y="726"/>
      <point x="824" y="624" type="curve"/>
      <point x="812" y="624" type="line"/>
      <point x="818" y="499" type="line"/>
      <point x="822" y="539"/>
      <point x="850" y="567"/>
      <point x="884" y="567" type="curve" smooth="yes"/>
      <point x="929" y="567"/>
      <point x="942" y="537"/>
      <point x="942" y="475" type="curve" smooth="yes"/>
      <point x="942" y="315" type="line" smooth="yes"/>
      <point x="942" y="250"/>
      <point x="930" y="217"/>
      <point x="884" y="217" type="curve" smooth="yes"/>
      <point x="838" y="217"/>
      <point x="826" y="250"/>
      <point x="826" y="315" type="curve"/>
      <point x="826" y="624" type="line"/>
      <point x="815" y="624" type="line"/>
      <point x="815" y="624"/>
      <point x="815" y="624"/>
      <point x="815" y="624" type="curve"/>
      <point x="815" y="859"/>
      <point x="962" y="973"/>
      <point x="1289" y="973" type="curve" smooth="yes"/>
      <point x="1470" y="973"/>
      <point x="1560" y="944"/>
      <point x="1635" y="905" type="curve"/>
      <point x="1648" y="903" type="line"/>
      <point x="1725" y="859"/>
      <point x="1747" y="788"/>
      <point x="1747" y="640" type="curve" smooth="yes"/>
      <point x="1747" y="333" type="line" smooth="yes"/>
      <point x="1747" y="261"/>
      <point x="1729" y="232"/>
      <point x="1681" y="232" type="curve" smooth="yes"/>
      <point x="1632" y="232"/>
      <point x="1611" y="261"/>
      <point x="1611" y="331" type="curve" smooth="yes"/>
      <point x="1611" y="638" type="line" smooth="yes"/>
      <point x="1611" y="788"/>
      <point x="1633" y="859"/>
      <point x="1718" y="903" type="curve"/>
      <point x="1600" y="1069" type="line"/>
      <point x="1387" y="1003"/>
      <point x="1321" y="837"/>
      <point x="1321" y="620" type="curve" smooth="yes"/>
      <point x="1321" y="340" type="line" smooth="yes"/>
      <point x="1321" y="114"/>
      <point x="1431" y="-26"/>
      <point x="1681" y="-26" type="curve" smooth="yes"/>
      <point x="1930" y="-26"/>
      <point x="2038" y="109"/>
      <point x="2038" y="340" type="curve" smooth="yes"/>
      <point x="2038" y="620" type="line" smooth="yes"/>
      <point x="2038" y="839"/>
      <point x="1976" y="994"/>
      <point x="1805" y="1069" type="curve"/>
      <point x="1805" y="1091" type="line"/>
      <point x="1707" y="1174"/>
      <point x="1536" y="1231"/>
    </contour>
  </outline>
</glyph>
<glyph name="NnaMatraU.tm" format="2">
  <advance width="3430"/>
  <note>
NnaMatraU.tm
</note>
  <guideline x="209" y="-506" angle="90"/>
  <outline>
    <contour>
      <point x="1628" y="1231" type="curve" smooth="yes"/>
      <point x="1367" y="1231"/>
      <point x="1198" y="1172"/>
      <point x="1082" y="1089" type="curve"/>
      <point x="1268" y="913" type="line"/>
      <point x="1347" y="951"/>
      <point x="1441" y="981"/>
      <point x="1628" y="981" type="curve" smooth="yes"/>
      <point x="1816" y="981"/>
      <point x="1910" y="951"/>
      <point x="1989" y="913" type="curve"/>
      <point x="2002" y="903" type="line"/>
      <point x="2079" y="859"/>
      <point x="2101" y="788"/>
      <point x="2101" y="640" type="curve" smooth="yes"/>
      <point x="2101" y="333" type="line" smooth="yes"/>
      <point x="2101" y="261"/>
      <point x="2083" y="232"/>
      <point x="2035" y="232" type="curve" smooth="yes"/>
      <point x="1985" y="232"/>
      <point x="1965" y="261"/>
      <point x="1965" y="331" type="curve" smooth="yes"/>
      <point x="1965" y="638" type="line" smooth="yes"/>
      <point x="1965" y="788"/>
      <point x="1987" y="859"/>
      <point x="2072" y="903" type="curve"/>
      <point x="1954" y="1069" type="line"/>
      <point x="1741" y="1003"/>
      <point x="1674" y="837"/>
      <point x="1674" y="620" type="curve" smooth="yes"/>
      <point x="1674" y="340" type="line" smooth="yes"/>
      <point x="1674" y="114"/>
      <point x="1785" y="-26"/>
      <point x="2035" y="-26" type="curve" smooth="yes"/>
      <point x="2283" y="-26"/>
      <point x="2392" y="109"/>
      <point x="2392" y="340" type="curve" smooth="yes"/>
      <point x="2392" y="620" type="line" smooth="yes"/>
      <point x="2392" y="839"/>
      <point x="2329" y="994"/>
      <point x="2158" y="1069" type="curve"/>
      <point x="2158" y="1091" type="line"/>
      <point x="2057" y="1172"/>
      <point x="1882" y="1231"/>
    </contour>
    <contour>
      <point x="2410" y="1231" type="curve" smooth="yes"/>
      <point x="2168" y="1231"/>
      <point x="1998" y="1159"/>
      <point x="1897" y="1069" type="curve"/>
      <point x="2087" y="911" type="line"/>
      <point x="2186" y="964"/>
      <point x="2291" y="986"/>
      <point x="2392" y="986" type="curve" smooth="yes"/>
      <point x="2517" y="986"/>
      <point x="2582" y="944"/>
      <point x="2582" y="819" type="curve" smooth="yes"/>
      <point x="2582" y="784" type="line" smooth="yes"/>
      <point x="2582" y="703"/>
      <point x="2563" y="661"/>
      <point x="2477" y="650" type="curve" smooth="yes"/>
      <point x="2447" y="646" type="line"/>
      <point x="2447" y="399" type="line"/>
      <point x="2473" y="397" type="line" smooth="yes"/>
      <point x="2561" y="390"/>
      <point x="2589" y="355"/>
      <point x="2589" y="243" type="curve" smooth="yes"/>
      <point x="2589" y="193" type="line" smooth="yes"/>
      <point x="2589" y="13"/>
      <point x="2572" y="-132"/>
      <point x="2536" y="-213" type="curve"/>
      <point x="2517" y="-280" type="line"/>
      <point x="2432" y="-456"/>
      <point x="2109" y="-594"/>
      <point x="1465" y="-594" type="curve" smooth="yes"/>
      <point x="850" y="-594"/>
      <point x="528" y="-473"/>
      <point x="434" y="-353" type="curve"/>
      <point x="3338" y="-353" type="line"/>
      <point x="3338" y="-118" type="line"/>
      <point x="35" y="-118" type="line"/>
      <point x="70" y="-587"/>
      <point x="565" y="-830"/>
      <point x="1465" y="-830" type="curve" smooth="yes"/>
      <point x="2294" y="-830"/>
      <point x="2704" y="-605"/>
      <point x="2817" y="-322" type="curve"/>
      <point x="2828" y="-248" type="line"/>
      <point x="2859" y="-145"/>
      <point x="2879" y="-13"/>
      <point x="2879" y="197" type="curve" smooth="yes"/>
      <point x="2879" y="254" type="line" smooth="yes"/>
      <point x="2879" y="442"/>
      <point x="2831" y="521"/>
      <point x="2677" y="532" type="curve"/>
      <point x="2677" y="541" type="line"/>
      <point x="2830" y="550"/>
      <point x="2872" y="664"/>
      <point x="2872" y="821" type="curve" smooth="yes"/>
      <point x="2872" y="852" type="line" smooth="yes"/>
      <point x="2872" y="1113"/>
      <point x="2735" y="1231"/>
    </contour>
    <contour>
      <point x="3043" y="1189" type="line"/>
      <point x="3043" y="-217" type="line"/>
      <point x="3338" y="-217" type="line"/>
      <point x="3338" y="1189" type="line"/>
    </contour>
    <contour>
      <point x="813" y="1231" type="curve" smooth="yes"/>
      <point x="326" y="1231"/>
      <point x="64" y="1008"/>
      <point x="64" y="583" type="curve" smooth="yes"/>
      <point x="64" y="339" type="line" smooth="yes"/>
      <point x="64" y="116"/>
      <point x="173" y="-26"/>
      <point x="408" y="-26" type="curve" smooth="yes"/>
      <point x="648" y="-26"/>
      <point x="751" y="112"/>
      <point x="751" y="329" type="curve" smooth="yes"/>
      <point x="751" y="519" type="line" smooth="yes"/>
      <point x="751" y="714"/>
      <point x="694" y="817"/>
      <point x="548" y="817" type="curve" smooth="yes"/>
      <point x="422" y="817"/>
      <point x="356" y="726"/>
      <point x="348" y="624" type="curve"/>
      <point x="336" y="624" type="line"/>
      <point x="342" y="499" type="line"/>
      <point x="346" y="539"/>
      <point x="374" y="567"/>
      <point x="408" y="567" type="curve" smooth="yes"/>
      <point x="453" y="567"/>
      <point x="466" y="537"/>
      <point x="466" y="475" type="curve" smooth="yes"/>
      <point x="466" y="315" type="line" smooth="yes"/>
      <point x="466" y="250"/>
      <point x="454" y="217"/>
      <point x="408" y="217" type="curve" smooth="yes"/>
      <point x="362" y="217"/>
      <point x="350" y="250"/>
      <point x="350" y="315" type="curve"/>
      <point x="350" y="624" type="line"/>
      <point x="339" y="624" type="line"/>
      <point x="339" y="624"/>
      <point x="339" y="624"/>
      <point x="339" y="624" type="curve"/>
      <point x="339" y="859"/>
      <point x="486" y="973"/>
      <point x="813" y="973" type="curve" smooth="yes"/>
      <point x="994" y="973"/>
      <point x="1084" y="944"/>
      <point x="1159" y="905" type="curve"/>
      <point x="1172" y="903" type="line"/>
      <point x="1249" y="859"/>
      <point x="1271" y="788"/>
      <point x="1271" y="640" type="curve" smooth="yes"/>
      <point x="1271" y="333" type="line" smooth="yes"/>
      <point x="1271" y="261"/>
      <point x="1253" y="232"/>
      <point x="1205" y="232" type="curve" smooth="yes"/>
      <point x="1156" y="232"/>
      <point x="1135" y="261"/>
      <point x="1135" y="331" type="curve" smooth="yes"/>
      <point x="1135" y="638" type="line" smooth="yes"/>
      <point x="1135" y="788"/>
      <point x="1157" y="859"/>
      <point x="1242" y="903" type="curve"/>
      <point x="1124" y="1069" type="line"/>
      <point x="911" y="1003"/>
      <point x="845" y="837"/>
      <point x="845" y="620" type="curve" smooth="yes"/>
      <point x="845" y="340" type="line" smooth="yes"/>
      <point x="845" y="114"/>
      <point x="955" y="-26"/>
      <point x="1205" y="-26" type="curve" smooth="yes"/>
      <point x="1454" y="-26"/>
      <point x="1562" y="109"/>
      <point x="1562" y="340" type="curve" smooth="yes"/>
      <point x="1562" y="620" type="line" smooth="yes"/>
      <point x="1562" y="839"/>
      <point x="1500" y="994"/>
      <point x="1328" y="1069" type="curve"/>
      <point x="1328" y="1091" type="line"/>
      <point x="1231" y="1174"/>
      <point x="1060" y="1231"/>
    </contour>
  </outline>
</glyph>
<glyph name="NnnaMatraU.tm" format="2">
  <advance width="2600"/>
  <note>
NnnaMatraU.tm
</note>
  <guideline x="209" y="-506" angle="90"/>
  <guideline x="334" y="-506" angle="90"/>
  <outline>
    <contour>
      <point x="1581" y="1231" type="curve" smooth="yes"/>
      <point x="1338" y="1231"/>
      <point x="1168" y="1159"/>
      <point x="1067" y="1069" type="curve"/>
      <point x="1257" y="911" type="line"/>
      <point x="1356" y="964"/>
      <point x="1461" y="986"/>
      <point x="1562" y="986" type="curve" smooth="yes"/>
      <point x="1687" y="986"/>
      <point x="1752" y="944"/>
      <point x="1752" y="819" type="curve" smooth="yes"/>
      <point x="1752" y="799" type="line" smooth="yes"/>
      <point x="1752" y="718"/>
      <point x="1733" y="673"/>
      <point x="1647" y="664" type="curve" smooth="yes"/>
      <point x="1617" y="661" type="line"/>
      <point x="1617" y="414" type="line"/>
      <point x="1643" y="412" type="line" smooth="yes"/>
      <point x="1733" y="405"/>
      <point x="1759" y="370"/>
      <point x="1759" y="256" type="curve" smooth="yes"/>
      <point x="1759" y="175" type="line" smooth="yes"/>
      <point x="1759" y="15"/>
      <point x="1742" y="-125"/>
      <point x="1722" y="-201" type="curve"/>
      <point x="1711" y="-280" type="line"/>
      <point x="1660" y="-434"/>
      <point x="1444" y="-554"/>
      <point x="1038" y="-554" type="curve" smooth="yes"/>
      <point x="629" y="-554"/>
      <point x="425" y="-454"/>
      <point x="364" y="-353" type="curve"/>
      <point x="2508" y="-353" type="line"/>
      <point x="2508" y="-118" type="line"/>
      <point x="35" y="-118" type="line"/>
      <point x="50" y="-563"/>
      <point x="383" y="-793"/>
      <point x="1038" y="-793" type="curve" smooth="yes"/>
      <point x="1625" y="-793"/>
      <point x="1922" y="-591"/>
      <point x="2003" y="-311" type="curve"/>
      <point x="2009" y="-239" type="line"/>
      <point x="2033" y="-142"/>
      <point x="2049" y="-44"/>
      <point x="2049" y="178" type="curve" smooth="yes"/>
      <point x="2049" y="269" type="line" smooth="yes"/>
      <point x="2049" y="456"/>
      <point x="2002" y="535"/>
      <point x="1847" y="546" type="curve"/>
      <point x="1847" y="556" type="line"/>
      <point x="2000" y="565"/>
      <point x="2042" y="679"/>
      <point x="2042" y="835" type="curve" smooth="yes"/>
      <point x="2042" y="852" type="line" smooth="yes"/>
      <point x="2042" y="1113"/>
      <point x="1905" y="1231"/>
    </contour>
    <contour>
      <point x="2213" y="1189" type="line"/>
      <point x="2213" y="-217" type="line"/>
      <point x="2508" y="-217" type="line"/>
      <point x="2508" y="1189" type="line"/>
    </contour>
    <contour>
      <point x="813" y="1231" type="curve" smooth="yes"/>
      <point x="326" y="1231"/>
      <point x="64" y="1008"/>
      <point x="64" y="583" type="curve" smooth="yes"/>
      <point x="64" y="339" type="line" smooth="yes"/>
      <point x="64" y="116"/>
      <point x="173" y="-26"/>
      <point x="408" y="-26" type="curve" smooth="yes"/>
      <point x="648" y="-26"/>
      <point x="751" y="112"/>
      <point x="751" y="329" type="curve" smooth="yes"/>
      <point x="751" y="519" type="line" smooth="yes"/>
      <point x="751" y="714"/>
      <point x="694" y="817"/>
      <point x="548" y="817" type="curve" smooth="yes"/>
      <point x="422" y="817"/>
      <point x="356" y="726"/>
      <point x="348" y="624" type="curve"/>
      <point x="336" y="624" type="line"/>
      <point x="342" y="499" type="line"/>
      <point x="346" y="539"/>
      <point x="374" y="567"/>
      <point x="408" y="567" type="curve" smooth="yes"/>
      <point x="453" y="567"/>
      <point x="466" y="537"/>
      <point x="466" y="475" type="curve" smooth="yes"/>
      <point x="466" y="315" type="line" smooth="yes"/>
      <point x="466" y="250"/>
      <point x="454" y="217"/>
      <point x="408" y="217" type="curve" smooth="yes"/>
      <point x="362" y="217"/>
      <point x="350" y="250"/>
      <point x="350" y="315" type="curve"/>
      <point x="350" y="624" type="line"/>
      <point x="339" y="624" type="line"/>
      <point x="339" y="624"/>
      <point x="339" y="624"/>
      <point x="339" y="624" type="curve"/>
      <point x="339" y="859"/>
      <point x="486" y="973"/>
      <point x="813" y="973" type="curve" smooth="yes"/>
      <point x="994" y="973"/>
      <point x="1084" y="944"/>
      <point x="1159" y="905" type="curve"/>
      <point x="1172" y="903" type="line"/>
      <point x="1249" y="859"/>
      <point x="1271" y="788"/>
      <point x="1271" y="640" type="curve" smooth="yes"/>
      <point x="1271" y="333" type="line" smooth="yes"/>
      <point x="1271" y="261"/>
      <point x="1253" y="232"/>
      <point x="1205" y="232" type="curve" smooth="yes"/>
      <point x="1156" y="232"/>
      <point x="1135" y="261"/>
      <point x="1135" y="331" type="curve" smooth="yes"/>
      <point x="1135" y="638" type="line" smooth="yes"/>
      <point x="1135" y="788"/>
      <point x="1157" y="859"/>
      <point x="1242" y="903" type="curve"/>
      <point x="1106" y="1069" type="line"/>
      <point x="907" y="1003"/>
      <point x="845" y="837"/>
      <point x="845" y="620" type="curve" smooth="yes"/>
      <point x="845" y="340" type="line" smooth="yes"/>
      <point x="845" y="114"/>
      <point x="955" y="-26"/>
      <point x="1205" y="-26" type="curve" smooth="yes"/>
      <point x="1454" y="-26"/>
      <point x="1562" y="109"/>
      <point x="1562" y="340" type="curve" smooth="yes"/>
      <point x="1562" y="620" type="line" smooth="yes"/>
      <point x="1562" y="835"/>
      <point x="1500" y="994"/>
      <point x="1349" y="1062" type="curve"/>
      <point x="1349" y="1078" type="line"/>
      <point x="1248" y="1168"/>
      <point x="1069" y="1231"/>
    </contour>
  </outline>
</glyph>
<glyph name="NoTail_NonExporting" format="2">
  <advance width="517"/>
  <outline>
    <contour>
      <point x="517" y="-136" type="line"/>
      <point x="0" y="-136" type="line"/>
      <point x="31" y="-390" type="line"/>
      <point x="517" y="-390" type="line"/>
    </contour>
  </outline>
</glyph>
